<svg id="Layer_1" data-name="Layer 1" xmlns="http://www.w3.org/2000/svg" viewBox="0 0 1697.82 2480.45"><defs><style>.cls-1{fill:#d3ecd7;}</style></defs><path class="cls-1" d="M-.23,2610.29v-2093c9.42-.33,18.84-.64,28.26-1,8.24-.31,16.49-.66,24.73-1h113a42.49,42.49,0,0,0,4.86.62c87.34,1.56,174.43,6.58,261.17,17.25C484,539.63,536,547.88,587.37,559.09A2247,2247,0,0,1,854.07,635c111.07,39.06,218.36,86.44,320.12,145.9,90.25,52.74,174.43,113.51,247.56,188.7,32.94,33.87,63.33,69.86,88,110.34,30.06,49.33,48.58,102.67,55,160.15,1.08,9.73,2,19.48,3,29.23v40c-.31,2.11-.68,4.23-.9,6.35-1.85,17.72-3,35.54-5.63,53.13-8.1,53.5-23.44,105.13-42,155.85-18,49.07-39.18,96.77-60.78,144.32a948.14,948.14,0,0,1-86,151.26c-48.07,68.81-103.79,131-164.79,188.43a1729.87,1729.87,0,0,1-225.58,179q-101.94,68.14-205.39,134c-94.33,60.25-191.41,115.65-293.71,161.48-82.74,37.07-167.88,67.27-255.9,89.23a1376.82,1376.82,0,0,1-156.29,30C47.13,2605.41,23.42,2607.66-.23,2610.29Z" transform="translate(0.23 -383.79)"/><path class="cls-1" d="M1599.8,1272.22a95.87,95.87,0,0,1,14-6.15,96.76,96.76,0,0,0-14.83,4.39c-1,.38-1.91.78-2.86,1.18a5.9,5.9,0,0,0,.94,2.12C1598,1273.24,1598.88,1272.71,1599.8,1272.22Z" transform="translate(0.23 -383.79)"/><path class="cls-1" d="M1623.89,1314.59c-1.69-.52-3.41-1.12-5.06-1.7l-.88-.3a5.82,5.82,0,0,0-.43,1.64l.82.18c1.82.43,3.54.83,5.27,1.17l7.74,1.35,1.62.23-1.61-.41Z" transform="translate(0.23 -383.79)"/><path class="cls-1" d="M1657.34,1334.47c17-1,40.25-18.61,40.25-18.61-11.29,4.07-27.1-2.73-34.71-6.63a48.51,48.51,0,0,0-22.79-5.61,38.21,38.21,0,0,0-14.09,3c-2.26,1-5.09,2.18-6.85,4.14l.38.13c1.72.61,3.34,1.17,5,1.67l7.43,2.15c1.52.4,3,.74,4.45,1.07l2.28.53c2.1.5,4,1,5.68,1.2l8.43,1.5a1.05,1.05,0,0,1,.87,1.18h0a1.06,1.06,0,0,1-1.13.93l-8.53-.57c-1.75-.08-3.74-.33-5.85-.59l-2.44-.3c-1.49-.17-3.06-.36-4.68-.6l-7.79-1.36c-1.78-.35-3.53-.75-5.37-1.19l-.12,0a8.55,8.55,0,0,0,1.13,2.5l.15.23a35.13,35.13,0,0,0,17.32,13.14C1643.06,1334.59,1650.31,1334.86,1657.34,1334.47Z" transform="translate(0.23 -383.79)"/><path class="cls-1" d="M1598.24,1268.47a98.18,98.18,0,0,1,16.21-4.7c1.15-.24,2.32-.45,3.48-.62s2.24-.36,3.15-.45c1.71-.24,3.22-.35,4.56-.46l.53,0c.95-.08,1.77-.1,2.43-.13l.86,0,1.17,0a1.07,1.07,0,0,1,1.11,1,1.09,1.09,0,0,1-.89,1.17l-1.14.18-.88.15c-.63.1-1.39.22-2.28.41l-.55.11c-1.26.26-2.7.56-4.31,1-1,.22-1.93.49-3,.8s-2.15.64-3.23,1a93.36,93.36,0,0,0-14.7,6.33c-.75.4-1.47.83-2.21,1.26a22.29,22.29,0,0,0,6.42,3.12,38.33,38.33,0,0,0,14.24,2.12,48.57,48.57,0,0,0,22.41-7c7.36-4.36,22.73-12.09,34.25-8.71,0,0-24.29-16.23-41.29-16.16-7.05,0-14.27.74-20.85,3.4a35.12,35.12,0,0,0-16.5,14.15l-.13.23a8.52,8.52,0,0,0-1,2.79C1596.83,1269.05,1597.52,1268.75,1598.24,1268.47Z" transform="translate(0.23 -383.79)"/><path class="cls-1" d="M1638.15,1318.87c2.16.27,4.14.51,5.91.59l4.56.31,4,.27-3.91-.7-4.49-.79c-1.73-.27-3.67-.72-5.77-1.22s-4.39-1-6.78-1.61l-7.45-2.15c-2.56-.79-5.17-1.77-7.83-2.67s-5.26-2.09-7.9-3.14-5.17-2.36-7.69-3.56l-3.66-1.93c-1.21-.63-2.39-1.27-3.51-2s-2.25-1.34-3.35-2-2.09-1.37-3.1-2c-2-1.28-3.82-2.68-5.53-3.88s-3.15-2.45-4.39-3.56l-1-.84a70.05,70.05,0,0,0,8.4-4.71c2.86-1.85,5.35-3.85,7.88-5.5s5.17-3.25,7.77-4.65a93.24,93.24,0,0,1,14.85-6.4q1.69-.59,3.27-1c1-.32,2-.59,3-.82,1.88-.5,3.55-.82,4.92-1.11s2.46-.42,3.2-.56l1.14-.19-1.15,0c-.75,0-1.86,0-3.26.15s-3.12.24-5.07.5c-1,.1-2,.26-3.11.44s-2.24.37-3.43.62a96.41,96.41,0,0,0-16,4.65c-2.86,1.11-5.78,2.38-8.69,3.82s-5.74,3.15-8.45,4.45a63.35,63.35,0,0,1-16.88,5.51,58,58,0,0,1-8,.89,59.84,59.84,0,0,1-7.15-.1c-1.08-.12-2.18-.17-3.11-.33s-1.75-.22-2.78-.43l-1.39-.26-.66-.12h0l-.15,0-.29-.06-2.12-.49c-1.27-.31-2.25-.59-2.9-.78l-.17,0-1.59,12.58c.7.11,1.54.22,2.53.34l2.46.25.82.08.67,0,1.42.08c.91.07,2.21.07,3.42.1s2.46,0,3.78-.08a70.48,70.48,0,0,0,8.33-.93,67.13,67.13,0,0,0,8.52-2l1.6,1.29c1.08.82,2.38,1.81,3.91,2.84s3.29,2.14,5.2,3.36,4,2.38,6.34,3.51c1.15.58,2.31,1.19,3.51,1.78l3.74,1.7c1.25.59,2.56,1.13,3.89,1.64l4,1.6c2.74,1,5.52,1.94,8.32,2.82s5.63,1.67,8.43,2.33,5.56,1.33,8.25,1.85l7.75,1.35C1633.64,1318.35,1636,1318.59,1638.15,1318.87Z" transform="translate(0.23 -383.79)"/><path class="cls-1" d="M1057.41,2206.19a96,96,0,0,1,14.34,5.39,97.67,97.67,0,0,0-13.69-7.2c-1-.41-1.91-.77-2.86-1.15a5.8,5.8,0,0,0-.81,2.17C1055.39,2205.65,1056.4,2205.9,1057.41,2206.19Z" transform="translate(0.23 -383.79)"/><path class="cls-1" d="M1045.09,2253.35c-.85-1.55-1.66-3.18-2.44-4.75-.14-.28-.28-.55-.41-.83a5.64,5.64,0,0,0-1.46.87l.46.71c1,1.57,2,3.07,3,4.51l4.6,6.37c.33.44.67.87,1,1.3-.29-.47-.58-.94-.86-1.42Z" transform="translate(0.23 -383.79)"/><path class="cls-1" d="M1055.18,2290.93c12.83,11.17,41.81,14.76,41.81,14.76-10.92-5-17.5-20.86-20.23-29a48.57,48.57,0,0,0-12.41-19.91,38.22,38.22,0,0,0-12.17-7.7c-2.28-.9-5.17-2-7.8-1.82l.19.37c.8,1.62,1.57,3.16,2.38,4.66l3.83,6.72c.81,1.35,1.64,2.64,2.44,3.87.44.67.86,1.33,1.26,2,1.17,1.83,2.22,3.48,3.23,4.83l5,7a1.08,1.08,0,0,1-.2,1.46h0a1.07,1.07,0,0,1-1.46-.12l-5.71-6.37c-1.2-1.28-2.46-2.84-3.78-4.5l-1.54-1.92c-1-1.17-2-2.39-2.94-3.7l-4.62-6.41c-1-1.49-2-3-3-4.59l-.07-.11a8.84,8.84,0,0,0-.94,2.59,2.56,2.56,0,0,1,0,.27,35.13,35.13,0,0,0,3.24,21.49C1044.87,2281.05,1049.87,2286.3,1055.18,2290.93Z" transform="translate(0.23 -383.79)"/><path class="cls-1" d="M1058.9,2202.41a98.66,98.66,0,0,1,14.89,8c1,.63,2,1.3,2.93,2s1.85,1.31,2.57,1.88c1.39,1,2.56,2,3.59,2.85l.41.35c.73.6,1.33,1.15,1.83,1.6l.63.58.87.78a1.07,1.07,0,0,1-1.32,1.67l-1-.66-.73-.51c-.52-.36-1.15-.81-1.92-1.3l-.47-.3c-1.09-.7-2.32-1.49-3.78-2.3-.84-.51-1.73-1-2.67-1.49s-2-1-3-1.53a94.31,94.31,0,0,0-15-5.72c-.82-.23-1.64-.43-2.46-.64a22.17,22.17,0,0,0,2.41,6.71,38.27,38.27,0,0,0,8.73,11.47,48.52,48.52,0,0,0,20.91,10.64c8.31,2,24.71,7.2,30.6,17.66,0,0-6.07-28.56-18.3-40.38-5.07-4.9-10.73-9.42-17.3-12.12a35.09,35.09,0,0,0-21.69-1.37l-.26.07a8.47,8.47,0,0,0-2.67,1.29C1057.49,2201.85,1058.2,2202.11,1058.9,2202.41Z" transform="translate(0.23 -383.79)"/><path class="cls-1" d="M1052.32,2266.36c1.36,1.7,2.6,3.26,3.82,4.55l3,3.4,2.65,3-2.32-3.23-2.66-3.7c-1.06-1.4-2.12-3.07-3.28-4.9s-2.46-3.76-3.73-5.88l-3.83-6.74c-1.29-2.36-2.47-4.87-3.75-7.37s-2.31-5.18-3.48-7.77-2-5.3-3-7.91l-1.27-3.94c-.44-1.29-.83-2.58-1.15-3.86s-.69-2.52-1-3.75-.55-2.45-.81-3.62c-.57-2.34-.86-4.59-1.25-6.64s-.55-3.95-.66-5.61c0-.44-.08-.86-.11-1.27a70.55,70.55,0,0,0,9.31,2.49c3.35.67,6.53,1,9.48,1.56s6,1.28,8.81,2.08a93.14,93.14,0,0,1,15.11,5.79c1.08.5,2.1,1,3,1.55s1.87,1,2.71,1.49c1.69,1,3.11,1.89,4.29,2.64s2.07,1.41,2.69,1.83l1,.66-.86-.77c-.57-.49-1.36-1.26-2.45-2.16s-2.39-2-4-3.18c-.77-.61-1.62-1.22-2.53-1.85s-1.87-1.31-2.89-2a98.49,98.49,0,0,0-14.73-7.86c-2.82-1.2-5.8-2.33-8.89-3.32s-6.31-1.75-9.16-2.71a64.12,64.12,0,0,1-15.94-7.83,61.77,61.77,0,0,1-11.41-10c-.69-.84-1.45-1.64-2-2.4s-1.1-1.38-1.69-2.25l-.82-1.16-.38-.55-.05-.06.07.09h0l0,0-.08-.12-.17-.25-1.17-1.84c-.69-1.11-1.21-2-1.54-2.57l-.08-.16-9.92,7.91c.43.56.95,1.22,1.58,2l1.58,1.9.54.62.45.5,1,1c.6.68,1.53,1.59,2.38,2.46s1.8,1.68,2.76,2.58a68.89,68.89,0,0,0,6.62,5.15,68.06,68.06,0,0,0,7.51,4.49c.06.6.14,1.26.24,2,.21,1.33.44,3,.82,4.76s.87,3.83,1.38,6,1.23,4.53,2.1,6.94c.41,1.21.81,2.47,1.27,3.73l1.49,3.82c.48,1.3,1,2.6,1.64,3.9l1.76,3.94c1.3,2.6,2.6,5.24,4,7.83s2.86,5.12,4.41,7.55,3,4.83,4.61,7.08l4.61,6.39C1049.45,2262.85,1051,2264.66,1052.32,2266.36Z" transform="translate(0.23 -383.79)"/><path class="cls-1" d="M1464.41,1681.19a96,96,0,0,1,14.34,5.39,97.67,97.67,0,0,0-13.69-7.2c-1-.41-1.91-.77-2.86-1.15a5.8,5.8,0,0,0-.81,2.17C1462.39,1680.65,1463.4,1680.9,1464.41,1681.19Z" transform="translate(0.23 -383.79)"/><path class="cls-1" d="M1452.09,1728.35c-.85-1.55-1.66-3.18-2.44-4.75-.14-.28-.28-.55-.41-.83a5.64,5.64,0,0,0-1.46.87l.46.71c1,1.57,2,3.07,3,4.51l4.6,6.37c.33.44.67.87,1,1.3-.29-.47-.58-.94-.86-1.42Z" transform="translate(0.23 -383.79)"/><path class="cls-1" d="M1462.18,1765.93c12.83,11.17,41.81,14.76,41.81,14.76-10.92-5-17.5-20.86-20.23-29a48.57,48.57,0,0,0-12.41-19.91,38.22,38.22,0,0,0-12.17-7.7c-2.28-.9-5.17-2-7.8-1.82l.19.37c.8,1.62,1.57,3.16,2.38,4.66l3.83,6.72c.81,1.35,1.64,2.64,2.44,3.87.44.67.86,1.33,1.26,2,1.17,1.83,2.22,3.48,3.23,4.83l5,7a1.08,1.08,0,0,1-.2,1.46h0a1.07,1.07,0,0,1-1.46-.12l-5.71-6.37c-1.2-1.28-2.46-2.84-3.78-4.5l-1.54-1.92c-1-1.17-2-2.39-2.94-3.7l-4.62-6.41c-1-1.49-2-3-3-4.59l-.07-.11a8.84,8.84,0,0,0-.94,2.59,2.56,2.56,0,0,1,0,.27,35.13,35.13,0,0,0,3.24,21.49C1451.87,1756.05,1456.87,1761.3,1462.18,1765.93Z" transform="translate(0.23 -383.79)"/><path class="cls-1" d="M1465.9,1677.41a98.66,98.66,0,0,1,14.89,7.95c1,.63,2,1.3,2.93,2s1.85,1.31,2.57,1.88c1.39,1,2.56,2,3.59,2.85l.41.35c.73.6,1.33,1.15,1.83,1.6l.63.58.87.78a1.07,1.07,0,0,1-1.32,1.67l-1-.66-.73-.51c-.52-.36-1.15-.81-1.92-1.3l-.47-.3c-1.09-.7-2.32-1.49-3.78-2.3-.84-.51-1.73-1-2.67-1.49s-2-1-3-1.53a94.31,94.31,0,0,0-15-5.72c-.82-.23-1.64-.43-2.46-.64a22.17,22.17,0,0,0,2.41,6.71,38.27,38.27,0,0,0,8.73,11.47,48.52,48.52,0,0,0,20.91,10.64c8.31,2,24.71,7.2,30.6,17.66,0,0-6.07-28.56-18.3-40.38-5.07-4.9-10.73-9.42-17.3-12.12a35.09,35.09,0,0,0-21.69-1.37l-.26.07a8.47,8.47,0,0,0-2.67,1.29C1464.49,1676.85,1465.2,1677.11,1465.9,1677.41Z" transform="translate(0.23 -383.79)"/><path class="cls-1" d="M1459.32,1741.36c1.36,1.7,2.6,3.26,3.82,4.55l3,3.4,2.65,3-2.32-3.23-2.66-3.7c-1.06-1.4-2.12-3.07-3.28-4.9s-2.46-3.76-3.73-5.88l-3.83-6.74c-1.29-2.36-2.47-4.87-3.75-7.37s-2.31-5.18-3.48-7.77-2-5.3-3-7.91l-1.27-3.94c-.44-1.29-.83-2.58-1.15-3.86s-.69-2.52-1-3.75-.55-2.45-.81-3.62c-.57-2.34-.86-4.59-1.25-6.64s-.55-4-.66-5.61c0-.44-.08-.86-.11-1.27a70.55,70.55,0,0,0,9.31,2.49c3.35.67,6.53,1,9.48,1.56s6,1.28,8.81,2.08a93.14,93.14,0,0,1,15.11,5.79c1.08.5,2.1,1,3,1.55s1.87,1,2.71,1.49c1.69,1,3.11,1.89,4.29,2.64s2.07,1.41,2.69,1.83l1,.66-.86-.77c-.57-.49-1.36-1.26-2.45-2.16s-2.39-2-4-3.18c-.77-.61-1.62-1.22-2.53-1.85s-1.87-1.31-2.89-2a98.49,98.49,0,0,0-14.73-7.86c-2.82-1.2-5.8-2.33-8.89-3.32s-6.31-1.75-9.16-2.71a64.12,64.12,0,0,1-15.94-7.83,61.77,61.77,0,0,1-11.41-10c-.69-.84-1.45-1.64-2-2.4s-1.1-1.38-1.69-2.25l-.82-1.16-.38-.55,0-.06.07.09h0l0,0-.08-.12-.17-.25-1.17-1.84c-.69-1.11-1.21-2-1.54-2.57l-.08-.16-9.92,7.91c.43.56,1,1.22,1.58,2l1.58,1.9.54.62.45.5,1,1.05c.6.68,1.53,1.59,2.38,2.46s1.8,1.68,2.76,2.58a68.89,68.89,0,0,0,6.62,5.15,68.06,68.06,0,0,0,7.51,4.49c.06.6.14,1.26.24,2.05.21,1.33.44,2.95.82,4.76s.87,3.83,1.38,6,1.23,4.53,2.1,6.94c.41,1.21.81,2.47,1.27,3.73l1.49,3.82c.48,1.3,1,2.6,1.64,3.9l1.76,3.94c1.3,2.6,2.6,5.24,4,7.83s2.86,5.12,4.41,7.55,3,4.83,4.61,7.08l4.61,6.39C1456.45,1737.85,1458,1739.66,1459.32,1741.36Z" transform="translate(0.23 -383.79)"/><path class="cls-1" d="M813.64,585l-1,1.25c-.68.87-1.36,1.72-2,2.58a204.54,204.54,0,0,1-16.13,17.5c-5,4.86-9.39,8.69-12.49,11.26l-2.85,2.32,19.7,12.25c2.82-3.24,6.42-7.57,10.42-12.81a225.17,225.17,0,0,0,14.5-21.49c.58-1,1.18-2.09,1.77-3.14l.93-1.64.82-1.56c1.24-2.35,2.29-4.57,3.31-7a106.6,106.6,0,0,0,5-14.52c1.38-5,2.16-9.79,3.3-14.24s2.33-9,3.71-13.23,2.8-8.32,4.38-12.1,3.19-7.3,4.8-10.5c.86-1.58,1.69-3.08,2.47-4.52l2.44-3.95c1.65-2.41,3.11-4.52,4.47-6.12a45.79,45.79,0,0,1,3.21-3.7l1.19-1.29-1.36,1.09a48.84,48.84,0,0,0-3.77,3.21c-1.62,1.41-3.4,3.3-5.45,5.5L852,513.81,848.76,518c-2.13,3-4.4,6.34-6.54,10s-4.31,7.6-6.38,11.75-4,8.54-5.89,13.05-3.46,9.25-5.29,13.35a94.87,94.87,0,0,1-6.33,12c-1.16,1.86-2.44,3.76-3.65,5.39Z" transform="translate(0.23 -383.79)"/><path class="cls-1" d="M885.45,502.36c2.57-15.36,9.82-45.81,28-57.88,0,0-51,14.79-70.87,38.54-8.22,9.84-15.69,20.72-19.72,33a63.77,63.77,0,0,0,.38,39.54c0,.16.1.31.16.47a16.35,16.35,0,0,0,1.81,3.53l.46-1.2c.78-2.07,1.58-4.19,2.47-6.28,2.07-5,4-9.33,5.94-13.17,2.42-4.83,4.47-8.61,6.45-11.89,2.34-4,4.77-7.5,6.63-10.12l3.25-4.27,3.15-3.72c2.11-2.27,3.94-4.21,5.64-5.7a40.2,40.2,0,0,1,3.13-2.7l2.08-1.66a1.94,1.94,0,0,1,2.64,2.84l-1.82,2a31.72,31.72,0,0,0-2.46,2.86c-1.37,1.63-2.81,3.7-4.41,6L856,516.45l-2.42,4.43c-1.34,2.66-3.11,6.3-4.71,10.29-1.38,3.33-2.75,7.12-4.33,12-1.24,3.84-2.44,8.12-3.67,13.1-.5,2-.93,3.94-1.37,6-.11.54-.24,1.1-.36,1.64a46.32,46.32,0,0,0,10.11-4.83,69.81,69.81,0,0,0,19.65-17.34C877.61,530.45,883.08,516.53,885.45,502.36Z" transform="translate(0.23 -383.79)"/><path class="cls-1" d="M757.07,652.33l-.07,1.59c0,1.1-.09,2.19-.13,3.27A206.83,206.83,0,0,1,754,680.82c-1.25,6.87-2.56,12.54-3.57,16.43-.38,1.42-.71,2.61-1,3.55l23.14-1.57c.4-4.27.79-9.89,1-16.47a223.28,223.28,0,0,0-.79-25.92c-.13-1.18-.26-2.38-.39-3.58l-.2-1.88-.24-1.74c-.37-2.64-.82-5-1.37-7.58a108.31,108.31,0,0,0-4.39-14.73c-1.82-4.89-4-9.21-5.64-13.49s-3.35-8.65-4.71-12.9-2.59-8.39-3.52-12.38-1.67-7.79-2.23-11.33l-.63-5.11c-.12-1.63-.23-3.18-.33-4.64-.07-2.91-.12-5.47.05-7.57a46.43,46.43,0,0,1,.45-4.89c.14-1.13.21-1.73.21-1.73s-.16.59-.47,1.68a48.53,48.53,0,0,0-1.19,4.81c-.48,2.09-.83,4.66-1.21,7.64-.11,1.49-.24,3.08-.37,4.76s-.1,3.45-.15,5.3c0,3.69.14,7.71.53,11.94s.94,8.68,1.68,13.26,1.73,9.28,2.85,14,2.59,9.52,3.5,13.92a95.14,95.14,0,0,1,1.87,13.45c.14,2.18.21,4.47.19,6.49Z" transform="translate(0.23 -383.79)"/><path class="cls-1" d="M767.11,543.33c-6.88-14-18.78-42.91-11.05-63.34,0,0-32.8,41.82-35,72.68-.92,12.78-.63,26,3.27,38.29a63.76,63.76,0,0,0,23.4,31.88l.4.29a16.42,16.42,0,0,0,3.54,1.81c-.12-.42-.22-.82-.33-1.24-.57-2.14-1.16-4.33-1.67-6.55-1.24-5.28-2.18-9.91-2.87-14.16-.86-5.33-1.4-9.59-1.7-13.42-.43-4.59-.51-8.86-.53-12.08l.14-5.36.38-4.86c.39-3.08.75-5.73,1.26-7.93a36.9,36.9,0,0,1,1-4l.72-2.56a1.94,1.94,0,0,1,3.8.76l-.33,2.66a33.34,33.34,0,0,0-.32,3.76c-.16,2.12-.12,4.64,0,7.49l.33,4.54.62,5c.47,2.94,1.15,6.92,2.19,11.1.82,3.51,1.92,7.39,3.48,12.26,1.23,3.83,2.76,8,4.67,12.77.73,1.87,1.55,3.74,2.39,5.66.22.51.45,1,.67,1.55a47.15,47.15,0,0,0,5.38-9.84A69.64,69.64,0,0,0,776.65,585C777.15,570.71,773.47,556.22,767.11,543.33Z" transform="translate(0.23 -383.79)"/><path class="cls-1" d="M1662.58,1687.88a48.58,48.58,0,0,0-21.09-10.31,38.32,38.32,0,0,0-14.4-.07c-2.89.54-6.66,1.3-8.73,3.63l.09.06c.64.38,1.28.77,1.91,1.17L1623,1684l2.69,1.45c.65.34,1.3.7,2,1.06,1.14.63,2.32,1.28,3.5,1.83l5.67,2.63a27.94,27.94,0,0,0,2.8,1.17l3.43,1.31a48,48,0,0,0,5.3,1.82l6.06,1.78a1.07,1.07,0,0,1,.74,1.29,1.09,1.09,0,0,1-1.27.78l-6.14-1.37a52.78,52.78,0,0,1-5.65-1.53l-3.51-1.09a31.33,31.33,0,0,1-3.08-1l-5.87-2.27c-1.3-.51-2.57-1.1-3.8-1.67-.67-.31-1.34-.63-2-.92l-2.89-1.33-2.86-1.48-1.16-.61a9.17,9.17,0,0,0,.56,2.31l.11.26a35.05,35.05,0,0,0,14.13,16.5c6.11,3.63,13.13,5.43,20.09,6.53,16.8,2.66,43.28-9.66,43.28-9.66C1683.2,1703.29,1669.19,1693.31,1662.58,1687.88Z" transform="translate(0.23 -383.79)"/><path class="cls-1" d="M1570.43,1706.66c3-6.39,5.42-13.21,5.83-20.3a35.12,35.12,0,0,0-5.77-21l-.15-.22a8.37,8.37,0,0,0-2.37-2.3c0,.3,0,.59,0,.88l-.11,3.51c0,1.65-.16,3.32-.32,4.94-.07.68-.13,1.36-.19,2-.08,1.19-.26,2.37-.44,3.46l-.52,3.25a31.6,31.6,0,0,1-.64,3.22l-.69,2.95a42.72,42.72,0,0,1-1.27,4.61l-.25.83c-.2.59-.37,1.15-.53,1.69a29.86,29.86,0,0,1-1,2.86l-2.49,6.25a1.07,1.07,0,0,1-2-.67l1.75-6.5a27.25,27.25,0,0,0,.57-2.71c.1-.57.21-1.17.33-1.77l.16-.85a41.56,41.56,0,0,0,.68-4.43l.33-3a28.33,28.33,0,0,0,.24-3l.13-3.24c0-1,.09-2.1,0-3.18,0-.69,0-1.37-.06-2a43.14,43.14,0,0,0-.23-4.54l-.3-3.35c0-.32-.08-.65-.13-1a24.7,24.7,0,0,0-4.85,4.09,38.13,38.13,0,0,0-8,12,48.44,48.44,0,0,0-3.26,23.23c.8,8.52,1.23,25.72-6.74,34.69C1538.2,1737.11,1563.24,1722.07,1570.43,1706.66Z" transform="translate(0.23 -383.79)"/><path class="cls-1" d="M1566.11,1602.39a25.55,25.55,0,0,0,2.67-1.32l2.71-1.43c1.09-.61,2.17-1.31,3.22-2l1.8-1.14c1-.65,1.94-1.39,2.87-2.11.53-.4,1-.8,1.58-1.18a26.54,26.54,0,0,0,2.58-2.16c.4-.37.8-.74,1.2-1.08s.76-.69,1.15-1a19.38,19.38,0,0,0,1.88-1.8l4.31-4.58a1.07,1.07,0,0,1,1.66,1.35l-3.59,5.14a19.89,19.89,0,0,1-1.77,2.28c-.32.38-.65.77-1,1.19s-.69.82-1,1.24a29.68,29.68,0,0,1-2.48,2.78c-.43.42-.88.89-1.34,1.36-.88.91-1.79,1.85-2.8,2.76l-1.61,1.4c-1,.9-2.09,1.83-3.23,2.71l-2.62,1.94a32.92,32.92,0,0,1-2.77,1.92l-1,.65-.82.5a7.41,7.41,0,0,0,4.48,1.52h.27a35.11,35.11,0,0,0,20.73-6.54c5.73-4.2,10.14-10,13.88-15.92,9-14.41,8.07-43.6,8.07-43.6-3.21,11.57-17.88,20.54-25.47,24.5a48.57,48.57,0,0,0-17.74,15.35,38.37,38.37,0,0,0-5.72,13.22,33.94,33.94,0,0,0-.74,4.35Z" transform="translate(0.23 -383.79)"/><path class="cls-1" d="M1559.74,1700.05l1.34-3.35c.54-1.29.91-2.82,1.45-4.46a52.48,52.48,0,0,0,1.51-5.36c.22-1,.45-2,.69-3a28,28,0,0,0,.62-3.13c.17-1.07.35-2.16.52-3.26a33.52,33.52,0,0,0,.44-3.36c.18-2.27.5-4.59.51-6.92,0-1.17.06-2.33.1-3.49s-.05-2.32-.07-3.47c0-2.31-.23-4.57-.42-6.76s-.51-4.3-.79-6.3c-.11-.57-.2-1.12-.3-1.67l2,2.24.17.19c1.56,1.58,3.07,3,4.64,4.48s3.14,2.87,4.74,4.26,3.23,2.75,4.85,4.11,3.31,2.65,5,4,3.38,2.55,5.06,3.83,3.43,2.47,5.16,3.68,3.47,2.42,5.26,3.54,3.53,2.33,5.36,3.39l5.46,3.2c1.83,1,3.73,2,5.59,3l2.8,1.46,2.88,1.32c1.93.85,3.8,1.81,5.77,2.57l5.89,2.28a30.76,30.76,0,0,0,3,1l3,.93a55,55,0,0,0,6.07,1.67l6.13,1.36-6-1.76a55.94,55.94,0,0,1-5.92-2l-2.92-1.12a29.11,29.11,0,0,1-2.88-1.2l-5.67-2.63c-1.88-.88-3.68-2-5.52-2.92l-2.74-1.48-2.67-1.62c-1.76-1.1-3.56-2.14-5.29-3.28l-5.16-3.5c-1.72-1.16-3.35-2.45-5-3.67s-3.31-2.5-4.92-3.8-3.25-2.57-4.81-3.94-3.18-2.66-4.69-4.07-3.1-2.76-4.58-4.2-3-2.84-4.46-4.32-2.91-2.93-4.32-4.43-2.76-3-4-4.42l-3.68-4.67-1.88-2.38c-.66-.77-1.35-1.5-2-2.25l-3.65-4-.12-.31-.12,0-.21-.23-4.38-4.2c-.74-.7-1.46-1.41-2.21-2.09l-2.32-2c-1.55-1.29-3.07-2.65-4.67-3.89l-.09-.07c1.56-.39,3.18-1,4.91-1.52,1.78-.71,3.7-1.33,5.57-2.23l2.87-1.31c1-.47,1.89-1,2.85-1.5,1.94-1,3.77-2.19,5.62-3.35a31.34,31.34,0,0,0,2.69-1.86l2.6-1.92c1.69-1.31,3.23-2.75,4.77-4.06s2.82-2.81,4.12-4.11a50.06,50.06,0,0,0,3.41-3.91c1-1.25,2-2.31,2.72-3.41l1.92-2.76c1-1.52,1.66-2.38,1.66-2.38l-2,2.12-2.28,2.42c-.84,1-2,1.86-3.14,2.93a47,47,0,0,1-3.85,3.29c-1.45,1.06-2.9,2.26-4.52,3.34s-3.3,2.17-5.07,3.16l-2.71,1.43a26,26,0,0,1-2.75,1.36c-1.88.82-3.72,1.7-5.63,2.32-1,.33-1.87.69-2.8,1l-2.78.8c-1.81.57-3.62.86-5.29,1.26s-3.3.6-4.79.73-2.84.29-4,.35-2.23.07-3.07.08-1.49,0-1.83-.06h-.08l-1.36-.92-2.58-1.59c-1.74-1-3.44-2.16-5.22-3.11l-5.32-2.94-5.43-2.74-5.53-2.56c-1.87-.78-3.73-1.61-5.62-2.36s-3.8-1.49-5.74-2.17c-.79-.29-1.6-.55-2.41-.82l-6.22,11.42c.75.17,1.36.31,2.14.52s1.8.46,2.7.73c1.81.5,3.61,1.07,5.41,1.65s3.58,1.23,5.37,1.85l5.32,2,5.25,2.23,5.17,2.42c1.74.79,3.39,1.74,5.09,2.6l2.53,1.34,2.46,1.44c1.63,1,3.33,1.86,4.9,2.93l4.78,3.13c1.58,1.07,3.08,2.24,4.62,3.36l2.31,1.7,2.19,1.82,2.45,2,.27.52c.21.37.52,1,.93,1.87s.86,1.9,1.35,3.13,1,2.62,1.57,4.19,1,3.26,1.6,5.07,1,3.76,1.44,5.79.86,4.14,1.13,6.31c.15,1.08.35,2.17.46,3.28s.19,2.21.29,3.32c.26,2.22.21,4.45.3,6.66.05,1.11,0,2.2,0,3.28s-.09,2.15-.13,3.2a28.38,28.38,0,0,1-.25,3.1c-.11,1-.22,2-.33,3a52.36,52.36,0,0,1-.85,5.4c-.34,1.66-.54,3.22-.92,4.55l-.93,3.46c-.52,1.93-.81,3-.81,3Z" transform="translate(0.23 -383.79)"/><path class="cls-1" d="M342,428.29c.4-2.14.77-4.1,1-5.86s.42-3.28.59-4.53c.32-2.51.51-3.94.51-3.94s-.34,1.4-.93,3.86c-.3,1.23-.66,2.72-1.07,4.43s-1,3.62-1.58,5.68-1.25,4.32-2,6.67-1.71,4.77-2.61,7.3-2.08,5.05-3.15,7.65-2.41,5.12-3.61,7.7-2.69,5-4,7.45l-2.15,3.53c-.7,1.17-1.41,2.31-2.18,3.39l-2.18,3.22c-.73,1-1.5,2-2.21,3-1.4,2-2.92,3.65-4.22,5.28s-2.63,3-3.83,4.16c-.3.32-.6.62-.89.91a69.09,69.09,0,0,0-4.18-8.67c-1.68-3-3.52-5.59-5-8.21s-2.93-5.37-4.17-8A94.75,94.75,0,0,1,288.55,448c-.32-1.15-.59-2.26-.82-3.33s-.46-2.07-.62-3c-.39-1.9-.61-3.58-.81-5s-.27-2.49-.36-3.24-.12-1.14-.12-1.14,0,.4,0,1.15-.07,1.86,0,3.27,0,3.12.18,5.08c0,1,.14,2,.25,3.13s.23,2.26.4,3.47a97.2,97.2,0,0,0,3.65,16.28c.93,2.93,2,5.92,3.29,8.91s2.78,5.92,3.91,8.71a63.63,63.63,0,0,1,4.46,17.19,57.33,57.33,0,0,1,.39,8.05,59.49,59.49,0,0,1-.54,7.14c-.19,1.07-.3,2.17-.52,3.08s-.33,1.74-.6,2.75c-.12.47-.23.93-.34,1.37-.06.23-.11.44-.17.66l0,.08c0,.13,0-.16,0-.12v0l0,.15L300,523l-.63,2.08c-.39,1.25-.72,2.22-1,2.85l-.06.17,12.46,2.36c.15-.7.31-1.52.49-2.5.12-.74.25-1.56.4-2.45,0-.26.09-.53.13-.81s.05-.44.08-.67c.05-.45.11-.92.17-1.41.13-.9.21-2.2.31-3.4s.1-2.47.15-3.78a70.46,70.46,0,0,0-.41-8.38,67.75,67.75,0,0,0-1.49-8.62c.41-.44.86-.93,1.39-1.52.88-1,2-2.26,3.08-3.73s2.34-3.15,3.67-5,2.63-3.88,3.89-6.11c.65-1.11,1.34-2.23,2-3.4s1.28-2.39,1.93-3.62,1.29-2.48,1.89-3.78,1.22-2.6,1.84-3.91c1.12-2.68,2.27-5.39,3.32-8.14s2-5.51,2.85-8.27,1.67-5.47,2.35-8.11,1.25-5.23,1.84-7.66S341.57,430.43,342,428.29Z" transform="translate(0.23 -383.79)"/><path class="cls-1" d="M294.52,478.42c-.67-1.42-1.36-2.89-2-4.41-1.22-2.88-2.33-5.91-3.32-9a99.36,99.36,0,0,1-3.69-16.47c-.17-1.17-.3-2.35-.4-3.52s-.22-2.28-.26-3.17c-.12-1.72-.15-3.23-.17-4.57v-.54c0-.95,0-1.76,0-2.43,0-.33,0-.61,0-.87l0-1.17a1.07,1.07,0,0,1,2.13-.08l.12,1.14q0,.38.09.9c.06.63.14,1.4.27,2.3l.08.55c.18,1.28.39,2.73.71,4.37.17,1,.38,2,.62,3s.5,2.18.81,3.28A94.33,94.33,0,0,0,295,462.79c1.27,2.75,2.66,5.43,4.12,7.95.7,1.24,1.47,2.46,2.29,3.75.16.25.32.52.49.77a10.85,10.85,0,0,0,4.08-4.57s2.44-3.78-2.07-5.47c0,0,4.79-4.78-1-8.36,0,0,6.62-6.36-.19-7.75,0,0,6.8-5.51-.52-9.25,0,0,7.73-6.7-.14-9.58,0,0,7.92-7.18-4.21-8.56,0,0,3-6.85-3.13-8.35,0,0,5.25-7.88-5.2-7.65,0,0-6.12-10.12-11.6.13,0,0-12.46,3.48-5.33,10,0,0-13.77,4.74-3.61,11.62,0,0-15.23,8-1.35,11.13,0,0-12.46,7.37,1.4,10.59,0,0-5.77,8,5,8.73,0,0-4.7,7.91,6,8.17,0,0-.62,7.63,6.55,6.57,0,0,.29,7.57,8.07,6Z" transform="translate(0.23 -383.79)"/><path class="cls-1" d="M358.09,419.87c13.61-4.16-2.18-11-2.18-11,9.61-7.63-4.47-11.32-4.47-11.32,6.61-7.06-6.08-9.59-6.08-9.59-6.23-9.8-11.58.74-11.58.74-10.43.56-4.6,8-4.6,8-6,1.95-2.49,8.56-2.49,8.56-12,2.29-3.56,8.85-3.56,8.85-7.62,3.47.59,9.56.59,9.56-7,4.29.18,9.27.18,9.27-6.68,1.9.39,7.74.39,7.74-5.51,4-.37,8.41-.37,8.41-4.37,2-1.65,5.61-1.65,5.61a11,11,0,0,0,4.6,4.37c.42-.78.84-1.56,1.24-2.34s.86-1.8,1.31-2.72c.78-1.6,1.59-3.26,2.28-4.91l1.15-2.75c.71-1.67,1.38-3.26,2-4.85l2.6-7.29c.49-1.48.92-2.95,1.33-4.35.23-.78.45-1.54.68-2.27.62-2.07,1.19-3.95,1.55-5.6l2-8.31a1.07,1.07,0,0,1,1.23-.81h0a1.07,1.07,0,0,1,.86,1.18l-1.1,8.48c-.19,1.75-.56,3.72-.95,5.8-.16.86-.3,1.63-.44,2.41-.27,1.49-.55,3-.9,4.65l-1.84,7.69c-.45,1.75-1,3.46-1.5,5.27-.29.95-.58,1.91-.86,2.89-.55,1.83-1.21,3.66-1.84,5.43-.35,1-.7,1.92-1,2.89-.29.75-.59,1.49-.89,2.23l.18.05c8.12,1.11,7.82-6.61,7.82-6.61,7.22.5,6-7,6-7,10.66-1.07,5.37-8.6,5.37-8.6,10.72-1.54,4.36-9.08,4.36-9.08C371.08,426.28,358.09,419.87,358.09,419.87Z" transform="translate(0.23 -383.79)"/><path class="cls-1" d="M138.85,2650.25l3.94-1.25c1.53-.47,3.18-1.19,5-1.88s3.85-1.43,5.89-2.41,4.28-1.86,6.47-3,4.52-2.27,6.77-3.59l3.41-2c1.15-.66,2.29-1.35,3.4-2.09,2.23-1.46,4.49-2.89,6.6-4.46,1.07-.77,2.14-1.52,3.18-2.3l3-2.36c2-1.52,3.81-3.17,5.6-4.65s3.37-3,4.81-4.46c.4-.38.76-.74,1.13-1.11.35,1.24.69,2.47,1.05,3.74.64,2,1.35,4,2,6,.35,1,.7,2,1.06,3.07s.85,2,1.27,3c.88,2,1.7,4.11,2.64,6.17a129.71,129.71,0,0,0,6.64,12.18l1.87,3,.94,1.51.91,1.37q1.8,2.74,3.5,5.69c1.25,2.15,2.48,4.37,3.7,6.63v0c-.06.45-.28,1.32-.52,2.38s-.62,2.38-1.15,3.88-1.12,3.17-1.84,5c-.35.92-.81,1.84-1.23,2.81s-.88,2-1.43,3l-1.61,3.11c-.58,1.05-1.24,2.08-1.87,3.16-1.22,2.19-2.77,4.27-4.25,6.46s-3.25,4.22-4.91,6.35c-1.82,2-3.58,4.06-5.44,6s-3.79,3.72-5.67,5.45l-5.65,4.76c-1.83,1.48-3.67,2.72-5.32,4a56.14,56.14,0,0,1-4.62,3.2l-3.68,2.32-3.22,2,3.42-1.64,3.94-1.9c1.55-.69,3.19-1.65,5-2.69s3.8-2.1,5.82-3.38l6.28-4.19c2.12-1.54,4.24-3.24,6.44-4.92s4.19-3.67,6.32-5.53c2-2,4-4,5.89-6.06s3.7-4.14,5.27-6.32c.8-1.07,1.63-2.1,2.38-3.15s1.43-2.13,2.12-3.15,1.31-2.06,1.91-3.06,1.2-2,1.7-2.93c.67-1.26,1.3-2.46,1.86-3.6,3.29,6.52,6.47,13.17,9.46,19.91l.3.68,0,0,0,0c4.58,10.33,8.76,20.84,12.35,31.28-.24.45-.57,1-1,1.81s-1.21,2-2,3.23-1.68,2.63-2.76,4.08c-.52.74-1.07,1.51-1.64,2.3l-1.85,2.39c-1.24,1.68-2.72,3.3-4.17,5s-3.11,3.42-4.8,5.1-3.42,3.4-5.31,4.92l-2.78,2.36c-.93.76-1.93,1.45-2.88,2.17s-1.91,1.44-2.87,2.11l-2.94,1.86c-1,.6-1.91,1.23-2.87,1.78l-2.85,1.5c-.94.48-1.84,1-2.72,1.42s-1.78.76-2.63,1.13c-1.7.69-3.24,1.37-4.64,1.9l-3.71,1.14-3.23,1,3.3-.76,3.8-.88c1.44-.43,3-1,4.81-1.57.87-.31,1.81-.57,2.74-1l2.85-1.24,3-1.31c1-.49,2-1.06,3-1.6l3.13-1.68c1-.62,2.05-1.29,3.09-1.94s2.1-1.3,3.12-2l3-2.21c2.06-1.43,3.91-3.11,5.83-4.66s3.62-3.28,5.33-4.9,3.28-3.26,4.68-4.89c.73-.8,1.43-1.59,2.1-2.34l1.88-2.26c1.23-1.44,2.23-2.85,3.19-4.06l.95-1.31c1.52,4.74,2.92,9.47,4.16,14.14,4.64,17.32,7.08,34,7.09,48.35a108.49,108.49,0,0,1-1.6,19.49l-.78,4.17c-.34,1.32-.67,2.59-1,3.82-.16.61-.31,1.21-.46,1.8s-.38,1.13-.56,1.69c-.37,1.09-.73,2.14-1.06,3.14a68.9,68.9,0,0,1-4,8.91l-1.63,3.06,1.77-3a69.1,69.1,0,0,0,4.4-8.77c.38-1,.79-2,1.21-3.12.21-.54.45-1.1.65-1.68s.36-1.18.55-1.79q.56-1.83,1.17-3.81c.31-1.35.64-2.74,1-4.18a109.93,109.93,0,0,0,2.53-19.7,174.33,174.33,0,0,0-1.62-30.83l2.35,1.56c1.33.79,2.78,1.74,4.45,2.63.83.46,1.68.95,2.59,1.42l2.82,1.41c1.92,1,4.05,1.82,6.2,2.79l3.36,1.26c1.13.43,2.28.86,3.47,1.19l3.56,1.1c1.19.38,2.43.6,3.64.91s2.44.6,3.66.83l3.67.59a64.76,64.76,0,0,0,7.18.78,57.17,57.17,0,0,0,6.74.17c1.07,0,2.11,0,3.11,0l2.9-.28c1.86-.21,3.56-.29,5.05-.55l3.85-.75,3.34-.66-3.37.47-3.86.55c-1.5.17-3.2.17-5.05.27l-2.88.13c-1,0-2-.09-3.08-.13a57.47,57.47,0,0,1-6.62-.52,65.39,65.39,0,0,1-7-1.15l-3.56-.77c-1.18-.29-2.35-.67-3.53-1s-2.36-.64-3.5-1.08l-3.41-1.25c-1.14-.39-2.23-.86-3.31-1.34l-3.19-1.4c-2-1.05-4.05-2-5.86-3l-2.65-1.51c-.85-.5-1.64-1-2.42-1.5-1.56-.95-2.91-1.94-4.13-2.76s-2.24-1.63-3.06-2.29-1.46-1.16-1.86-1.52l-.48-.41q-1-6.28-2.42-12.75a352.06,352.06,0,0,0-14.15-47.38c1.34.39,2.78.8,4.35,1.1,2,.48,4.15.79,6.43,1.15,1.14.18,2.31.25,3.51.38s2.42.27,3.66.29c2.49.1,5,.27,7.64.18l3.91-.05,3.92-.25c1.31-.09,2.62-.16,3.91-.27l3.86-.46,3.79-.45,3.66-.6c2.4-.44,4.74-.73,6.91-1.24l6.14-1.34c1.9-.38,3.61-.86,5.14-1.27l3.94-1,3.42-.92-3.5.56-4,.64c-1.55.24-3.29.55-5.22.73l-6.19.69c-2.18.28-4.52.33-6.91.51l-3.65.22-3.74.05-3.79,0c-1.27,0-2.54-.09-3.81-.13l-3.8-.15-3.75-.34c-2.48-.17-4.89-.58-7.21-.92-1.17-.14-2.29-.41-3.4-.63s-2.19-.41-3.22-.69c-2.06-.55-4-1-5.73-1.65s-3.29-1.2-4.65-1.73-2.47-1.12-3.34-1.62c-.46-.23-.83-.46-1.14-.65s-.62-.37-.74-.47l-.52-.37c-3.13-7.83-6.48-15.56-10-23.1-2-4.36-4.07-8.61-6.27-12.85-1.11-2.12-2.26-4.22-3.48-6.29l-.63-1c.51.1,1,.19,1.57.27l3.39.58,3.63.49c2.48.38,5.14.56,7.85.84s5.55.35,8.41.42,5.77.13,8.68-.09l4.34-.21c1.44-.06,2.87-.28,4.28-.42l4.21-.45,4.06-.72,3.92-.69,3.69-.93,3.48-.88c1.13-.26,2.17-.7,3.2-1l5.53-1.89,4.12-1.82,3.56-1.57-3.75,1.05-4.28,1.21-5.66,1.07c-1,.17-2.1.45-3.23.55l-3.49.37-3.66.39-3.86.13-4,.13-4.06-.14c-1.37-.06-2.74,0-4.12-.18l-4.13-.38c-2.75-.19-5.49-.73-8.17-1.08s-5.3-1-7.82-1.52-4.94-1.14-7.2-1.82l-3.3-.94-3-1c-2-.6-3.71-1.29-5.27-1.83s-2.89-1.1-4-1.56l-1.44-.61-1-.44-.12-.05c-.22-.51-.45-1-.68-1.51-.78-1.94-1.45-3.9-2.17-5.8q-.53-1.44-1-2.85c-.28-1-.56-1.94-.84-2.89-.55-1.92-1.13-3.79-1.64-5.66l-1.28-5.58c-.46-1.81-.76-3.64-1.06-5.43s-.64-3.53-.88-5.25c-.4-3.48-.92-6.77-1.1-10-.12-1.58-.24-3.13-.36-4.63s-.11-3-.17-4.39c-.16-2.83-.06-5.49-.1-7.94s.1-4.7.21-6.72c.21-4,.49-7.22.74-9.33.07-.7.14-1.24.2-1.68l-14.39,3.14q-.15,3.11-.18,7.51c0,2.19,0,4.61.1,7.25s.2,5.47.51,8.5c.13,1.51.26,3.08.4,4.68s.4,3.26.61,4.95c.32,3.09.94,6.3,1.5,9.64-.19.33-.42.7-.68,1.12-.58.89-1.27,2-2.14,3.23s-1.85,2.63-3,4.12-2.42,3.07-3.77,4.77-2.86,3.41-4.51,5.11c-.82.86-1.64,1.74-2.48,2.64s-1.75,1.72-2.64,2.61c-1.76,1.79-3.67,3.45-5.57,5.16-.94.87-1.92,1.69-2.92,2.48l-2.95,2.41c-2,1.59-4,3-6,4.43s-3.94,2.63-5.79,3.87-3.68,2.25-5.36,3.23-3.21,1.92-4.63,2.6l-3.67,1.83-3.21,1.6Z" transform="translate(0.23 -383.79)"/><path class="cls-1" d="M169,2741.75s9.4,11.12,12.13-.84c0,0,13,11.29,10.87-2.78,0,0,11.38,8.95,9.37-5.14,0,0,9.54,2.49,6.31-7.85,0,0,9.08,1.52,5.44-8.55,0,0,7.34-2.18,3.76-8.48,0,0,7.1-3.06,2.59-9.9,0,0-.27-.34-.73-.85-.67.81-1.36,1.61-2.05,2.39l-1.44,1.66c-1.35,1.51-2.8,3-4.2,4.36l-1.74,1.75c-.79.69-1.51,1.34-2.23,2-1.35,1.21-2.76,2.47-4.18,3.63l-2.26,1.75c-1.42,1.11-2.82,2.19-4.22,3.21l-6.32,4.21c-1.35.86-2.67,1.6-3.94,2.31-.66.38-1.31.74-1.93,1.11l-.49.28c-1.62.93-3.16,1.81-4.62,2.46l-7.32,3.53a1.07,1.07,0,0,1-1.4-.45,1.06,1.06,0,0,1,.36-1.42l6.9-4.34c1.29-.76,2.65-1.76,4.1-2.82l.46-.34c.57-.43,1.18-.87,1.8-1.32,1.14-.82,2.32-1.67,3.48-2.61l5.63-4.75c1.16-1.07,2.35-2.23,3.55-3.4l2.07-2c1.15-1.18,2.31-2.49,3.43-3.75.65-.73,1.3-1.45,2-2.17.46-.6,1-1.26,1.51-1.92,1.12-1.41,2.29-2.87,3.32-4.33.4-.6.83-1.21,1.25-1.82.63-.9,1.22-1.78,1.79-2.66a9.06,9.06,0,0,0-4-1.12s-4.4-.9-4.35,3.91c0,0-6.19-2.74-7.42,4,0,0-8.32-3.87-7.16,3,0,0-7.59-4.34-8.44,3.83,0,0-9-4.78-8.87,3.6,0,0-9.56-4.78-6.46,7,0,0-7.45-.28-6.64,5.94,0,0-9.25-2-5.25,7.61,0,0-7.22,9.37,4.32,10.77C157.7,2740.41,165.45,2750.77,169,2741.75Z" transform="translate(0.23 -383.79)"/><path class="cls-1" d="M327.43,2684c-3.45-5.24-8.91-.15-8.91-.15-5.37-11-9.48-1.1-9.48-1.1-5.35-6.44-9.07,3.08-9.07,3.08-6-5.64-8.89,2.61-8.89,2.61-3.59-5.94-7.36,2.42-7.36,2.42-5.32-4.26-8.22,1.85-8.22,1.85-3.1-3.68-5.84-.11-5.84-.11a11.59,11.59,0,0,0-3.14,6.14c.2,0,.4.07.6.09l1.53.23c1.83.27,3.72.55,5.64.68l3.77.35,5.09.2,2.44.08,7.5-.11,3.59-.22,2.53-.16c1.51-.09,2.94-.17,4.32-.34l6.2-.7c1.66-.15,3.19-.4,4.55-.62l8.15-1.29a1.07,1.07,0,0,1,.44,2.09l-8,2.12c-1.15.31-2.46.67-3.85,1l-.76.16-6.56,1.43c-1.3.29-2.61.5-4,.73l-2.5.42-3.69.61-7.69.91-2.62.19-5.68.34-3.56,0c-2.1.07-4.2,0-6.22-.12l-1.47-.06H266c1.53,6.86,8.23,4.77,8.23,4.77,1.41,7.1,8.39,4,8.39,4,3.83,10,9.71,2.91,9.71,2.91,4.31,9.94,9.91,1.82,9.91,1.82,7.68,12,10.44-2.23,10.44-2.23,7.6,12,10-5,10-5,9.89,7.26,9.74-7.3,9.74-7.3,8.56,4.52,7.66-8.38,7.66-8.38,7.82-8.6-3.77-11-3.77-11C333.1,2676.41,327.43,2684,327.43,2684Z" transform="translate(0.23 -383.79)"/><path class="cls-1" d="M249.63,2642.77l2.67.39c1.77.28,3.6.56,5.39.68l4.16.39c.87.08,1.73.1,2.58.12l1.49.05,4.05.14,8.2-.31,6.62-.7a18.5,18.5,0,0,0,2-.33L288,2643l5.63-1.07,7.94-2.24a1.1,1.1,0,0,1,1.3.67,1.07,1.07,0,0,1-.58,1.34l-7.68,3.38L289,2647l-1.08.37a22,22,0,0,1-2.21.68l-7.16,1.81-8.06,1.42-4.27.47c-.5,0-1,.1-1.48.16-.94.1-1.9.21-2.87.26l-4.34.21c-2,.15-4,.13-5.94.11l-2.78,0c-1,0-1.93-.06-2.87-.1,1.74,6.27,8.12,4.27,8.12,4.27,1.41,7.1,8.39,4,8.39,4,3.83,10,9.71,2.91,9.71,2.91,4.3,9.94,9.9,1.82,9.9,1.82,7.69,12,10.45-2.24,10.45-2.24,7.59,12,10-5,10-5,9.89,7.27,9.74-7.29,9.74-7.29,8.56,4.52,7.65-8.39,7.65-8.39,7.82-8.59-3.76-11-3.76-11-3.29-9.92-8.95-2.33-8.95-2.33-3.46-5.24-8.92-.15-8.92-.15-5.36-11-9.47-1.1-9.47-1.1-5.36-6.45-9.07,3.08-9.07,3.08-6-5.64-8.89,2.61-8.89,2.61-3.6-5.94-7.37,2.42-7.37,2.42-5.31-4.26-8.21,1.85-8.21,1.85-3.1-3.68-5.85-.12-5.85-.12a10.27,10.27,0,0,0-2.7,4.54C247.66,2642.43,248.64,2642.61,249.63,2642.77Z" transform="translate(0.23 -383.79)"/><path class="cls-1" d="M358.09,2775.31c-1.49-10.34-8.41-3.87-8.41-3.87-2.47-5.76-8.74-1.71-8.74-1.71-3.36-11.74-9.13-2.75-9.13-2.75-4.15-7.29-9.48,1.43-9.48,1.43-4.9-6.6-9.21,1-9.21,1-2.49-6.48-7.68,1.09-7.68,1.09-4.48-5.14-8.41.37-8.41.37-2.4-4.17-5.73-1.14-5.73-1.14-2,1.17-3.32,3.45-4.26,5.72l2,.88c1,.46,2.11.93,3.23,1.31l3.43,1.26c.71.27,1.42.47,2.18.69l1.27.37,1.24.37c.74.22,1.48.44,2.23.63l3.53.76a49,49,0,0,0,5.58.95l1.33.18a39.48,39.48,0,0,0,5.1.44l1.44.07,1.12.05c.65,0,1.29.07,1.92.08l2.81-.12,1.94-.09c1.09,0,2.12-.08,3-.18l7.21-1a1.07,1.07,0,0,1,.38,2.11h0l-7.19,1.41c-1,.18-2.1.27-3.24.38l-1.9.18-2.91.29c-.72,0-1.4,0-2.08,0h-2.55a45.93,45.93,0,0,1-5.45-.18l-1.27-.1a50.76,50.76,0,0,1-6-.7l-3.64-.58c-.85-.17-1.65-.36-2.46-.55l-1.26-.3-1.29-.3c-.8-.18-1.63-.37-2.45-.64l-3.55-1.09a36.37,36.37,0,0,1-3.54-1.22l-1.67-.62c-.24,1.06-.34,1.76-.34,1.76-.39,8.19,7.28,7.2,7.28,7.2.14,7.24,7.56,5.37,7.56,5.37,2,10.52,9.05,4.58,9.05,4.58,2.49,10.54,9.43,3.53,9.43,3.53,5.45,13.14,10.68-.36,10.68-.36,5.35,13.18,10.76-3.16,10.76-3.16,8.45,8.89,10.87-5.46,10.87-5.46,7.63,5.95,9-6.91,9-6.91C369.07,2779.69,358.09,2775.31,358.09,2775.31Z" transform="translate(0.23 -383.79)"/><path class="cls-1" d="M117.82,2658.48s6,11.48,10.9,3.15c0,0,7.47,12.5,12.11,1.15,0,0,11,13.25,11.18-1,0,0,9.77,10.68,10.08-3.55,0,0,9,4,7.5-6.72,0,0,8.71,3,6.76-7.55,0,0,7.6-.95,5.09-7.75,0,0,7.43-1.86,4.21-9.26l-1.45,1.14c-.69.52-1.39,1-2.08,1.51l-1.13.81c-1.8,1.33-3.73,2.59-5.6,3.8l-1,.68c-1,.69-2.15,1.39-3.45,2.13l-3.4,2c-1.49.87-3,1.65-4.49,2.4-.78.4-1.56.8-2.31,1.2-1.47.77-2.93,1.42-4.34,2.05-.75.33-1.48.65-2.19,1-1.58.77-3.14,1.36-4.64,1.94l-1.31.51-1.91.73c-1.12.44-2.17.86-3.21,1.17l-7.33,2.34a1.07,1.07,0,0,1-.8-2l6.88-3.44c.89-.42,1.83-1,2.82-1.55.57-.33,1.16-.68,1.77-1l1.19-.68c1.33-.77,2.72-1.56,4.09-2.5.66-.45,1.35-.89,2-1.33,1.23-.79,2.5-1.61,3.73-2.52.68-.51,1.38-1,2.09-1.53,1.27-.92,2.57-1.86,3.82-2.87l3-2.41c1.08-.85,2-1.65,2.86-2.43l1-.88c1.53-1.37,3.12-2.79,4.56-4.25l1-.95c.57-.55,1.13-1.1,1.68-1.66l1.28-1.37a8.7,8.7,0,0,0-3.16-1.32s-4.19-1.61-4.92,3.15c0,0-5.66-3.7-8,2.71,0,0-7.57-5.17-7.54,1.78,0,0-6.78-5.53-9,2.4,0,0-8.14-6.18-9.35,2.11,0,0-8.65-6.27-7.5,5.88,0,0-7.31-1.49-7.53,4.78,0,0-8.79-3.52-6.42,6.66C115.3,2647.15,106.66,2655.22,117.82,2658.48Z" transform="translate(0.23 -383.79)"/><path class="cls-1" d="M223.48,2783s9.23,3.48,7.1-7.14c0,0,8.87,2.46,6.32-7.93,0,0,7.52-1.4,4.63-8,0,0,7.38-2.3,3.62-9.57l-.33-.49-1.32,1.34c-.51.51-1,1-1.53,1.57l-.24.22c-1.65,1.56-3.35,3.18-5.16,4.74-.6.48-1.17,1-1.73,1.43-1.33,1.12-2.71,2.27-4.19,3.3l-3,2.19c-.69.49-1.39.92-2.08,1.36-.37.23-.73.45-1.09.69l-1.1.7c-.68.43-1.34.85-2,1.26l-3.18,1.7-1.09.58c-.66.36-1.32.72-2,1l-5.9,2.57c-.64.26-1.27.47-1.89.67l-.92.31-1.83.6c-1.07.37-2.09.71-3,1l-7.16,1.65h0a1.07,1.07,0,0,1-.54-2.06l6.94-2.14c.82-.31,1.77-.71,2.77-1.13l1.79-.74c.28-.13.6-.25.92-.38.54-.22,1.09-.44,1.63-.72l5.56-2.91c.56-.32,1.15-.7,1.75-1.08l1-.66,2.93-1.85c.57-.4,1.17-.85,1.77-1.3L222,2763l1-.77c.61-.44,1.22-.89,1.8-1.37l2.76-2.35c1.3-1,2.5-2.21,3.67-3.34.54-.52,1.07-1,1.61-1.54,1.54-1.53,3-3.15,4.45-4.72l.29-.32c.44-.53.91-1.08,1.38-1.62s1.13-1.33,1.66-2a11.73,11.73,0,0,0-6.11-3.28s-4.28-1.36-4.74,3.43c0,0-5.86-3.37-7.8,3.17,0,0-7.86-4.72-7.42,2.21,0,0-7.1-5.12-8.8,2.92,0,0-8.48-5.7-9.21,2.65,0,0-9-5.76-7.15,6.3,0,0-7.39-1.06-7.24,5.21,0,0-9-3-6,7,0,0-8.16,8.56,3.17,11.16,0,0,6.62,11.12,11.07,2.53,0,0,8.18,12,12.16.43,0,0,11.72,12.6,11.1-1.62C213.63,2787.07,224,2797.17,223.48,2783Z" transform="translate(0.23 -383.79)"/><path class="cls-1" d="M276.21,2801.61s3.9-6.68-3.78-9.52a31,31,0,0,0-3.77-.68c0,2.83,0,5.59-.12,8.26a111.6,111.6,0,0,1-2.55,19.88l-1,4.19-1.74,5.68c-.15.43-.3.81-.45,1.19l-1.44,3.68a69,69,0,0,1-4.49,9l-1.75,2.94a1.07,1.07,0,0,1-1.86-1.05l1.63-3a67.94,67.94,0,0,0,3.91-8.8l1.25-3.69c.12-.34.24-.69.34-1l1.44-5.59.76-4.09a107,107,0,0,0,1.58-19.29c0-2.68-.12-5.47-.29-8.31a10.15,10.15,0,0,0-5.12,1.64s-4.08,1.88-1.19,5.72c0,0-6.6,1.47-3.63,7.6,0,0-9,1.82-4,6.64,0,0-8.69,1-4.52,8.09,0,0-10.11,1.51-5,8.16,0,0-10.53,1.82-1,9.48,0,0-6.17,4.2-1.83,8.73,0,0-8.66,3.84.28,9.24,0,0-.25,11.83,9.87,6.11,0,0,12.38,3.75,9.88-5.6,0,0,14.16,3.38,9.27-7.87,0,0,17.15,1.4,7.11-8.68,0,0,14.47.46,4.5-9.69,0,0,9.16-3.65.43-10.06,0,0,8.21-4.16-.68-10.12C278.21,2810.66,282.82,2804.56,276.21,2801.61Z" transform="translate(0.23 -383.79)"/><path class="cls-1" d="M543.61,2346.12l3-2.81c1.19-1.08,2.36-2.44,3.74-3.85s2.88-2.94,4.3-4.7,3.08-3.51,4.57-5.48,3.11-4,4.59-6.13l2.23-3.26c.76-1.09,1.5-2.2,2.18-3.34,1.4-2.27,2.83-4.53,4.07-6.85.63-1.16,1.29-2.29,1.89-3.44l1.72-3.42c1.18-2.24,2.09-4.5,3.08-6.6s1.77-4.16,2.45-6.09c.2-.51.37-1,.55-1.49l2.54,2.94c1.43,1.53,2.93,3,4.43,4.58l2.27,2.32,2.45,2.21c1.66,1.47,3.29,3,5,4.45a126.09,126.09,0,0,0,11.21,8.19l3,1.93,1.49,1,1.41.84c1.87,1.14,3.73,2.37,5.6,3.65,2,1.41,4.1,2.9,6.17,4.42v0c.14.44.31,1.32.55,2.38s.45,2.42.61,4,.34,3.35.48,5.31c.08,1,0,2,.08,3.08s.06,2.17,0,3.3-.09,2.31-.13,3.51-.23,2.41-.34,3.66c-.17,2.5-.68,5-1.08,7.65s-1.14,5.21-1.73,7.84c-.8,2.58-1.51,5.2-2.37,7.72s-1.84,5-2.8,7.35l-3.08,6.71c-1,2.12-2.16,4-3.12,5.86s-1.87,3.49-2.81,4.87l-2.34,3.67-2,3.2,2.39-3,2.75-3.4c1.1-1.28,2.18-2.85,3.37-4.56s2.54-3.53,3.82-5.55l3.89-6.46c1.26-2.3,2.45-4.74,3.72-7.2s2.22-5.12,3.36-7.71c.92-2.66,1.94-5.31,2.74-8s1.57-5.33,2.06-8c.27-1.31.58-2.6.8-3.87s.39-2.54.58-3.76.31-2.42.42-3.58.24-2.28.29-3.37c.06-1.43.12-2.78.14-4.05,5.76,4.49,11.47,9.15,17.06,14l.56.49v0h0c8.54,7.39,16.81,15.1,24.52,23,0,.52-.07,1.19-.15,2.08-.07,1-.24,2.3-.4,3.76s-.4,3.09-.75,4.87c-.16.89-.33,1.82-.5,2.78s-.43,1.94-.66,3c-.4,2-1,4.14-1.62,6.34s-1.35,4.41-2.16,6.66-1.64,4.53-2.71,6.71l-1.5,3.32c-.52,1.09-1.12,2.13-1.68,3.2s-1.11,2.11-1.69,3.13l-1.87,2.93c-.62,1-1.19,1.93-1.82,2.84l-2,2.57-1.85,2.45c-.61.78-1.29,1.45-1.89,2.14-1.24,1.35-2.35,2.63-3.39,3.71l-2.86,2.61-2.5,2.28,2.66-2.09,3.06-2.42c1.12-1,2.33-2.2,3.68-3.48.66-.65,1.4-1.29,2.07-2l2-2.33,2.17-2.48c.71-.87,1.36-1.81,2.06-2.74s1.41-1.89,2.12-2.86,1.3-2,2-3.07,1.34-2.07,1.95-3.15l1.79-3.28c1.25-2.17,2.21-4.48,3.28-6.7s1.87-4.52,2.73-6.71,1.57-4.35,2.14-6.42l.9-3c.25-1,.5-1.93.73-2.84.5-1.83.81-3.53,1.16-5,.1-.56.2-1.09.29-1.6q5.12,5.48,9.81,11c11.58,13.68,20.91,27.72,27,40.69a108.54,108.54,0,0,1,6.88,18.31c.37,1.41.73,2.78,1.07,4.1l.75,3.87c.11.62.23,1.23.35,1.82s.14,1.19.21,1.77c.14,1.15.26,2.25.38,3.29a66.71,66.71,0,0,1,.22,9.76c-.11,2.25-.17,3.46-.17,3.46s.12-1.2.33-3.45a68.54,68.54,0,0,0,.24-9.81c-.08-1.05-.15-2.17-.24-3.33,0-.59-.07-1.19-.13-1.8s-.18-1.22-.27-1.85q-.27-1.91-.57-4c-.29-1.35-.58-2.75-.89-4.19a110.43,110.43,0,0,0-6.13-18.9,173.82,173.82,0,0,0-14.63-27.18c.84.13,1.76.26,2.8.4,1.53.16,3.25.39,5.14.49,1,.05,1.93.14,2.94.18l3.16.07c2.16.07,4.44-.09,6.79-.13l3.58-.3c1.21-.09,2.43-.2,3.65-.4l3.69-.53c1.23-.16,2.45-.49,3.68-.73s2.46-.5,3.66-.81l3.58-1a66.66,66.66,0,0,0,6.82-2.36,57.39,57.39,0,0,0,6.16-2.73c1-.47,1.91-.9,2.8-1.36l2.5-1.5c1.59-1,3.1-1.78,4.34-2.65l3.15-2.33,2.75-2-2.85,1.86-3.26,2.14c-1.28.8-2.82,1.52-4.45,2.41l-2.55,1.34c-.91.41-1.87.79-2.84,1.2a55.71,55.71,0,0,1-6.21,2.36,64.3,64.3,0,0,1-6.82,2l-3.54.82c-1.2.24-2.42.39-3.62.59s-2.41.43-3.63.52l-3.62.33c-1.2.13-2.39.17-3.57.2l-3.48.1c-2.29-.08-4.5-.05-6.59-.24l-3-.22c-1-.1-1.92-.23-2.83-.33-1.81-.19-3.45-.51-4.91-.73s-2.72-.52-3.74-.76-1.82-.44-2.34-.58l-.6-.17q-3.62-5.25-7.64-10.49a352.35,352.35,0,0,0-33-36.81c1.37-.22,2.85-.46,4.4-.86,2-.41,4.09-1.06,6.3-1.71,1.11-.32,2.2-.76,3.34-1.15s2.3-.79,3.43-1.3c2.3-1,4.68-1.91,7-3.1l3.51-1.72,3.44-1.9c1.14-.64,2.3-1.26,3.42-1.92l3.3-2,3.23-2,3.06-2.11c2-1.42,4-2.68,5.71-4.07l5-3.83c1.56-1.15,2.9-2.32,4.1-3.34l3.12-2.64,2.71-2.29-2.94,2-3.36,2.3c-1.29.88-2.74,1.9-4.41,2.88l-5.29,3.27c-1.87,1.19-3.95,2.23-6,3.42l-3.2,1.75-3.36,1.65-3.41,1.66c-1.15.52-2.33,1-3.5,1.51l-3.5,1.49L687.6,2334c-2.32.91-4.68,1.56-6.92,2.25-1.12.37-2.25.6-3.34.88s-2.16.56-3.21.75c-2.09.38-4.06.78-5.89,1s-3.48.32-4.94.42-2.71,0-3.71,0c-.51,0-.94-.06-1.31-.11s-.71-.07-.88-.11l-.62-.11c-6.17-5.74-12.5-11.3-18.89-16.62-3.71-3.08-7.35-6-11.15-8.95-1.91-1.44-3.85-2.85-5.84-4.19l-1-.68,1.54-.42,3.31-.93,3.49-1.1c2.41-.72,4.88-1.69,7.46-2.6s5.17-2.05,7.79-3.21,5.26-2.35,7.8-3.78l3.83-2c1.28-.67,2.48-1.48,3.7-2.21l3.61-2.2,3.37-2.38,3.24-2.3,3-2.42c.95-.78,1.87-1.55,2.77-2.28s1.66-1.57,2.45-2.29l4.19-4.07,3-3.4,2.55-2.95-2.94,2.56-3.36,2.91-4.65,3.39c-.87.6-1.71,1.31-2.69,1.88l-3,1.82-3.15,1.92-3.43,1.76-3.53,1.81-3.73,1.61c-1.27.53-2.5,1.13-3.8,1.59l-3.9,1.42c-2.57,1-5.27,1.69-7.85,2.52s-5.21,1.36-7.72,2-4.95,1.08-7.29,1.43l-3.38.56-3.17.42c-2,.29-3.9.41-5.55.59s-3.08.24-4.24.28l-1.56.06-1.07,0h-.13l-1.26-1.07c-1.53-1.42-3-2.91-4.44-4.32l-2.16-2.13-2-2.25c-1.32-1.5-2.64-2.95-3.9-4.42l-3.53-4.5c-1.19-1.44-2.25-3-3.29-4.45s-2.08-2.93-3-4.38c-1.84-3-3.72-5.73-5.24-8.53q-1.18-2.07-2.3-4c-.7-1.33-1.37-2.63-2-3.89-1.35-2.49-2.4-4.94-3.48-7.14s-1.92-4.29-2.68-6.17c-1.54-3.75-2.65-6.73-3.32-8.75-.23-.67-.4-1.18-.53-1.6l-11.67,9c.79,1.91,1.8,4.21,3,6.87.92,2,2,4.15,3.19,6.51s2.51,4.86,4.08,7.47c.77,1.31,1.55,2.67,2.37,4.06l2.66,4.22c1.61,2.65,3.55,5.29,5.48,8.07,0,.38-.09.82-.14,1.31-.15,1-.3,2.34-.56,3.83s-.54,3.17-.94,5-.88,3.81-1.37,5.92-1.14,4.31-1.91,6.55c-.36,1.13-.73,2.28-1.11,3.44s-.84,2.31-1.27,3.49c-.82,2.37-1.85,4.7-2.84,7.05-.47,1.19-1,2.35-1.57,3.49l-1.64,3.43c-1.09,2.28-2.36,4.42-3.49,6.55s-2.44,4.07-3.58,6-2.37,3.61-3.47,5.21-2.08,3.1-3.08,4.32l-2.54,3.23-2.22,2.82Z" transform="translate(0.23 -383.79)"/><path class="cls-1" d="M609.92,2416s13.25,6,10.61-5.95c0,0,16.57,4.67,8.64-7.15,0,0,14.11,3.23,6.28-8.65,0,0,9.69-1.83,2.35-9.79,0,0,8.86-2.51,1.27-10.06,0,0,5.7-5.1-.22-9.27,0,0,5.11-5.8-1.88-10.06,0,0-.39-.19-1-.45-.26,1-.54,2-.83,3-.2.7-.4,1.4-.59,2.11-.58,1.95-1.27,3.88-1.94,5.74-.28.77-.55,1.55-.82,2.32-.42,1-.8,1.86-1.17,2.75-.71,1.67-1.45,3.41-2.23,5.07-.46.87-.88,1.71-1.31,2.55-.81,1.6-1.61,3.18-2.44,4.7l-3.91,6.5c-.86,1.36-1.74,2.59-2.58,3.78l-1.28,1.82-.32.46c-1.07,1.54-2.08,3-3.12,4.2l-5.12,6.32a1.07,1.07,0,0,1-1.73-1.25l4.38-6.86c.84-1.24,1.65-2.73,2.5-4.31l.27-.5c.34-.64.7-1.29,1.07-2,.68-1.22,1.38-2.49,2-3.84l3.06-6.7c.6-1.46,1.18-3,1.77-4.59.33-.89.66-1.79,1-2.69.53-1.56,1-3.24,1.5-4.86l.84-2.8.55-2.37c.42-1.76.84-3.58,1.16-5.34.11-.71.23-1.44.35-2.17.18-1.09.34-2.14.48-3.18a9.15,9.15,0,0,0-4.11.71s-4.37,1.06-2.27,5.39c0,0-6.76.17-5,6.76,0,0-9.17,0-5.19,5.75,0,0-8.72-.69-6,7.07,0,0-10.22-.47-6.5,7,0,0-10.68-.24-2.83,9.11,0,0-6.86,2.93-3.47,8.21,0,0-9.24,2.1-1.5,9.13,0,0-2.52,11.55,8.51,7.89C599.15,2419.6,610.58,2425.65,609.92,2416Z" transform="translate(0.23 -383.79)"/><path class="cls-1" d="M728.54,2296.11c-5.36-3.26-8.13,3.67-8.13,3.67-9.53-7.62-9,3-9,3-7.6-3.54-6.89,6.66-6.89,6.66-7.82-2.54-6.92,6.16-6.92,6.16-5.79-3.84-5.63,5.33-5.63,5.33-6.63-1.58-6.64,5.18-6.64,5.18-4.38-2-5.33,2.4-5.33,2.4-.89,2-.72,4.56-.22,6.89l.59-.17,1.47-.45c1.78-.53,3.61-1.09,5.4-1.79l3.55-1.3,4.69-2,2.24-1,6.74-3.3,3.16-1.73c.73-.42,1.48-.83,2.21-1.23,1.33-.72,2.59-1.41,3.76-2.15l5.31-3.28c1.43-.84,2.72-1.72,3.85-2.5l6.81-4.65a1.07,1.07,0,0,1,1.3,1.7l-6.29,5.32c-.91.77-1.94,1.65-3.07,2.52l-.62.47-5.32,4.1c-1,.81-2.15,1.56-3.31,2.36-.69.47-1.39,1-2.08,1.45l-3.07,2.12-6.57,4.11c-.77.45-1.53.87-2.29,1.29l-5,2.74-3.2,1.56c-1.87,1-3.81,1.77-5.68,2.55l-1.36.57-.26.11c4.32,5.55,9.49.8,9.49.8,4.31,5.82,9.27,0,9.27,0,7.73,7.4,10-1.51,10-1.51,8.13,7.14,9.73-2.59,9.73-2.59,12.06,7.55,8.49-6.48,8.49-6.48,12,7.64,6.94-8.81,6.94-8.81,12.05,2.35,5.7-10.75,5.7-10.75,9.67.43,3.34-10.85,3.34-10.85,3.4-11.12-8.09-8.32-8.09-8.32C730.42,2286.83,728.54,2296.11,728.54,2296.11Z" transform="translate(0.23 -383.79)"/><path class="cls-1" d="M640.58,2292.06c.83-.27,1.7-.53,2.58-.79,1.72-.51,3.49-1,5.17-1.69l3.93-1.43c.81-.29,1.6-.64,2.38-1,.46-.2.91-.4,1.36-.58l3.73-1.61,7.28-3.79,5.69-3.45c.6-.36,1.15-.77,1.69-1.16.31-.24.62-.47.94-.69l4.64-3.37,6.22-5.41a1.09,1.09,0,0,1,1.46.05,1.06,1.06,0,0,1,.05,1.45l-5.5,6.35-4.25,4.13-.83.8a20.09,20.09,0,0,1-1.71,1.56l-5.7,4.69-6.68,4.73-3.66,2.25c-.43.25-.85.51-1.27.78-.8.49-1.63,1-2.49,1.46l-3.83,2c-1.73,1-3.56,1.82-5.33,2.63l-2.51,1.18-2.64,1.13c4.25,4.93,9.16.39,9.16.39,4.31,5.82,9.28,0,9.28,0,7.73,7.41,10-1.51,10-1.51,8.14,7.14,9.74-2.59,9.74-2.59,12.06,7.55,8.49-6.48,8.49-6.48,12,7.64,6.94-8.81,6.94-8.81,12,2.35,5.69-10.75,5.69-10.75,9.67.43,3.34-10.85,3.34-10.85,3.4-11.12-8.09-8.32-8.09-8.32-7.2-7.57-9.09,1.71-9.09,1.71-5.35-3.26-8.12,3.67-8.12,3.67-9.53-7.62-9,3.06-9,3.06-7.6-3.54-6.9,6.65-6.9,6.65-7.81-2.54-6.92,6.17-6.92,6.17-5.79-3.85-5.62,5.33-5.62,5.33-6.63-1.59-6.64,5.17-6.64,5.17-4.38-2-5.34,2.4-5.34,2.4a10,10,0,0,0-.5,5.26Z" transform="translate(0.23 -383.79)"/><path class="cls-1" d="M795.25,2365.59c-5.76-8.72-9.25.09-9.25.09-4.7-4.15-8.64,2.18-8.64,2.18-8-9.18-9.43,1.42-9.43,1.42-6.86-4.82-8,5.34-8,5.34-7.24-3.88-7.9,4.85-7.9,4.85-5-4.8-6.47,4.25-6.47,4.25-6.25-2.72-7.45,3.93-7.45,3.93-4-2.74-5.67,1.42-5.67,1.42-1.27,1.9-1.53,4.54-1.41,7l2.19-.06c1.12,0,2.3-.06,3.48-.19l3.64-.33c.76-.06,1.49-.18,2.27-.31l1.31-.2,1.27-.2c.77-.12,1.53-.24,2.29-.39l3.51-.81a48.59,48.59,0,0,0,5.46-1.53l1.28-.4a41.8,41.8,0,0,0,4.8-1.78l1.33-.55,1-.43,1.76-.75,2.49-1.32,1.72-.9c1-.5,1.88-1,2.66-1.46l6.09-4a1.07,1.07,0,0,1,1.24,1.74l0,0-5.9,4.34c-.85.6-1.78,1.14-2.77,1.72l-1.63,1-2.52,1.5c-.64.34-1.25.63-1.87.92l-1,.49-1.28.62a44.15,44.15,0,0,1-5,2.16l-1.19.45a50.32,50.32,0,0,1-5.71,1.93l-3.54,1c-.83.21-1.65.38-2.46.55l-1.27.27-1.29.27c-.8.18-1.63.37-2.48.48l-3.68.53c-1.29.21-2.61.33-3.72.41l-1.79.15c.25,1.06.45,1.74.45,1.74,3.15,7.56,9.66,3.39,9.66,3.39,3.22,6.49,9.13,1.64,9.13,1.64,6.31,8.65,10.13.27,10.13.27,6.76,8.47,10-.83,10-.83,10.55,9.55,9.5-4.89,9.5-4.89,10.48,9.63,8.39-7.45,8.39-7.45,11.44,4.43,7.49-9.58,7.49-9.58,9.44,2.13,5.2-10.09,5.2-10.09C807.05,2364.86,795.25,2365.59,795.25,2365.59Z" transform="translate(0.23 -383.79)"/><path class="cls-1" d="M528.1,2362.54s10.29,7.84,11.2-1.8c0,0,12.09,8.11,11.45-4.14,0,0,15.58,7.3,9.69-5.65,0,0,13.39,5.49,7.6-7.51,0,0,9.85-.22,3.91-9.28,0,0,9.15-1,2.89-9.71,0,0,6.46-4.11,1.29-9.19,0,0,5.93-4.85-.15-10.16l-.82,1.64c-.41.77-.82,1.51-1.24,2.26l-.67,1.21c-1.06,2-2.27,3.93-3.44,5.83l-.66,1.07c-.63,1-1.35,2.17-2.21,3.39l-2.23,3.25c-1,1.43-2,2.78-3,4.09-.54.7-1.07,1.39-1.58,2.08-1,1.32-2,2.53-3.05,3.7-.53.62-1,1.22-1.55,1.82-1.11,1.37-2.26,2.58-3.38,3.74l-1,1c-.5.51-1,1-1.4,1.47-.83.88-1.61,1.71-2.41,2.43l-5.63,5.25a1.07,1.07,0,0,1-1.57-1.44l4.76-6c.62-.76,1.24-1.65,1.88-2.6.38-.55.76-1.11,1.17-1.68l.78-1.13c.88-1.26,1.8-2.56,2.64-4,.41-.69.84-1.38,1.27-2.08.77-1.24,1.57-2.52,2.29-3.86.4-.75.82-1.51,1.24-2.28.75-1.37,1.53-2.78,2.22-4.23l1.65-3.43c.61-1.24,1.11-2.36,1.54-3.43l.51-1.21c.81-1.89,1.64-3.85,2.31-5.79l.47-1.27c.27-.74.55-1.48.8-2.22l.58-1.78a8.68,8.68,0,0,0-3.42.15s-4.48.34-3.11,4.95c0,0-6.7-.93-6.05,5.86,0,0-9.06-1.44-6.06,4.83,0,0-8.5-2.1-7.07,6,0,0-10-2.11-7.55,5.9,0,0-10.5-2-4.28,8.52,0,0-7.25,1.78-4.76,7.54,0,0-9.46.57-3,8.76C521,2353.37,516.62,2364.36,528.1,2362.54Z" transform="translate(0.23 -383.79)"/><path class="cls-1" d="M676.8,2430s9.83-.8,3.37-9.49c0,0,9.07-1.56,2.32-9.87,0,0,6.21-4.48.76-9.25,0,0,5.69-5.23-.82-10.2l-.51-.3-.61,1.78c-.24.68-.49,1.37-.72,2.06l-.12.31c-.82,2.12-1.67,4.31-2.65,6.49-.33.69-.64,1.36-1,2-.72,1.57-1.47,3.2-2.38,4.76l-1.77,3.26c-.41.74-.86,1.43-1.3,2.12-.23.36-.46.72-.68,1.08l-.71,1.11c-.42.68-.84,1.35-1.28,2l-2.15,2.9-.73,1c-.45.61-.9,1.21-1.36,1.79l-4.24,4.84c-.47.51-.95,1-1.42,1.41l-.7.67-1.4,1.33c-.82.79-1.58,1.53-2.32,2.19l-5.77,4.55h0a1.07,1.07,0,0,1-1.37-1.64l5.36-4.89c.61-.63,1.29-1.39,2-2.21l1.3-1.43c.2-.23.43-.49.67-.74.39-.43.8-.86,1.17-1.34l3.78-5c.37-.53.75-1.13,1.12-1.73l.67-1,1.86-2.92c.34-.61.69-1.27,1-1.93l.61-1.14.61-1.14c.36-.66.72-1.32,1-2l1.49-3.3c.73-1.49,1.32-3.06,1.89-4.58.26-.7.52-1.4.8-2.09.73-2,1.38-4.14,2-6.16l.12-.42c.17-.66.37-1.37.55-2.06q.36-1.28.66-2.49c-2.29-.7-4.83-1.08-6.92-.36,0,0-4.46.6-2.82,5.12,0,0-6.74-.54-5.7,6.2,0,0-9.13-.91-5.77,5.17,0,0-8.6-1.6-6.71,6.4,0,0-10.1-1.54-7.2,6.32,0,0-10.59-1.36-3.77,8.76,0,0-7.13,2.19-4.32,7.8,0,0-9.41,1.12-2.45,8.92,0,0-3.72,11.22,7.63,8.74,0,0,10.73,7.23,11.09-2.45,0,0,12.54,7.4,11.18-4.79,0,0,16,6.38,9.35-6.21C669.65,2437.91,683.34,2442.61,676.8,2430Z" transform="translate(0.23 -383.79)"/><path class="cls-1" d="M732.44,2424.33s.68-7.7-7.48-7a31,31,0,0,0-3.7,1c1.24,2.55,2.39,5.06,3.42,7.52a111,111,0,0,1,6.18,19.07l.89,4.21.85,5.88c0,.45.08.86.11,1.26l.27,3.95a68.58,68.58,0,0,1-.24,10l-.32,3.41a1.07,1.07,0,0,1-2.13-.15l.17-3.46a68.29,68.29,0,0,0-.22-9.63l-.45-3.87c0-.36-.08-.73-.14-1.1l-1.09-5.66-1-4a107.76,107.76,0,0,0-6.81-18.11c-1.15-2.43-2.44-4.9-3.81-7.39a10.16,10.16,0,0,0-3.93,3.66s-2.89,3.45,1.37,5.69c0,0-5.35,4.14,0,8.41,0,0-7.35,5.49-.77,7.72,0,0-7.43,4.61-.64,9.24,0,0-8.5,5.68-1,9.53,0,0-8.75,6.13,3.11,9,0,0-3.79,6.43,2.07,8.67,0,0-6.19,7.17,4.2,8.24,0,0,4.82,10.8,11.53,1.31,0,0,12.8-1.9,6.54-9.28,0,0,14.25-3,5-11.08,0,0,16.1-6.06,2.72-10.88,0,0,13.28-5.76-.07-10.69,0,0,6.72-7.21-3.91-9.28,0,0,5.65-7.27-4.94-8.85C738.11,2431.67,739.68,2424.18,732.44,2424.33Z" transform="translate(0.23 -383.79)"/><path class="cls-1" d="M1175,573.15c4.13,10.94,10.7,21.18,19.44,28.8a56.72,56.72,0,0,0,18.43,10.74c2.93,1,6.53,2.24,9.93,2.32-.76-1.75-1.56-3.51-2.47-5.23l-2.5-5-3.73-6.59c-.59-1-1.18-2.09-1.79-3.11l-6-9.36-3.08-4.37c-.73-1-1.46-2-2.17-3.05-1.29-1.84-2.5-3.58-3.79-5.18l-5.71-7.27c-1.48-2-3-3.71-4.32-5.25l-8-9.25a1.58,1.58,0,0,1,2.28-2.19l8.88,8.38c1.29,1.21,2.75,2.58,4.22,4.1l7.23,7.49.48.49c1.36,1.41,2.65,2.89,4,4.46.81.94,1.63,1.89,2.49,2.84l3.63,4.16,7.13,9c.78,1,1.52,2.07,2.25,3.11l4.56,6.41,3.15,5c.95,1.42,1.82,2.87,2.67,4.33a13.87,13.87,0,0,0,.72-2.67c0-.13,0-.26,0-.39a51.94,51.94,0,0,0-6-31.63c-5.15-9.17-12.83-16.67-20.95-23.23-19.59-15.83-62.68-19.57-62.68-19.57C1159.94,538.13,1170.53,561.29,1175,573.15Z" transform="translate(0.23 -383.79)"/><path class="cls-1" d="M1162.83,674.2l-2.75-5.54c-.57-1.15-1.21-2.25-1.84-3.34-.37-.64-.74-1.27-1.1-1.92l-3-5.21-6.36-9.55-6.45-8.33a29.61,29.61,0,0,0-2-2.29c-.4-.43-.8-.85-1.17-1.28l-5.73-6.26-9-8.26a1.58,1.58,0,0,1,2-2.47l10.25,7,6.79,5.57c.44.38.87.73,1.31,1.08a31,31,0,0,1,2.59,2.26l7.84,7.61,8.07,9,3.91,5c.45.6.91,1.17,1.36,1.75.86,1.09,1.75,2.22,2.57,3.4l3.64,5.3c.63.87,1.21,1.78,1.8,2.68,0-.29.13-.57.17-.86l0-.4a52,52,0,0,0-6.5-31.52c-5.32-9.07-13.13-16.44-21.36-22.86-19.86-15.48-63-18.47-63-18.47,16.56,6.47,27.56,29.45,32.24,41.23,4.33,10.86,11.07,21,19.95,28.45a56.74,56.74,0,0,0,18.61,10.41,36.36,36.36,0,0,0,9.21,2.13C1164.27,677.12,1163.58,675.63,1162.83,674.2Z" transform="translate(0.23 -383.79)"/><path class="cls-1" d="M1261.54,478.38c2.57,11.41,7.65,22.47,15.25,31.22a56.69,56.69,0,0,0,16.76,13.19c3.16,1.63,7.14,3.62,11,3.84,0,0,0-.1,0-.16l-1.08-5.31c-.21-1.09-.51-2.15-.83-3.26-.18-.64-.36-1.27-.52-1.91s-.34-1.22-.51-1.84c-.29-1.11-.59-2.22-.94-3.3l-1.78-5a72.85,72.85,0,0,0-3.15-7.77l-.81-1.82a59.92,59.92,0,0,0-3.4-6.75c-.36-.63-.7-1.26-1-1.88l-.81-1.46c-.47-.85-.93-1.68-1.4-2.47l-2.35-3.45c-.55-.79-1.09-1.59-1.6-2.37-.9-1.34-1.75-2.61-2.6-3.68l-6.89-8.3a1.58,1.58,0,0,1,.17-2.2,1.65,1.65,0,0,1,2.21.12l7.36,8c1,1.14,2,2.42,3,3.77.55.73,1.12,1.49,1.73,2.26l2.62,3.45c.6.89,1.13,1.74,1.67,2.61l.88,1.4c.37.6.75,1.2,1.13,1.8a63.86,63.86,0,0,1,4,7l.87,1.67a75.24,75.24,0,0,1,3.78,8.09l2.1,5c.45,1.18.83,2.34,1.21,3.5l.62,1.85c.2.64.41,1.25.62,1.85.39,1.16.8,2.35,1.11,3.58l1.28,4.9a11.51,11.51,0,0,0,3.29-5.34c0-.13.07-.26.11-.39a52,52,0,0,0-1.5-32.14c-3.84-9.8-10.4-18.29-17.53-25.92-17.2-18.39-59.35-28.08-59.35-28.08C1251.48,441.61,1258.75,466,1261.54,478.38Z" transform="translate(0.23 -383.79)"/><path class="cls-1" d="M1276.08,807.4c-7.27-7.48-15.45-14.44-25-18.73a52,52,0,0,0-32-3l-.39.09a14.17,14.17,0,0,0-1.78.57c1.56.71,3.2,1.54,5,2.53l5.14,2.73c2.26,1.21,4.43,2.51,6.52,3.78,1.12.68,2.23,1.35,3.32,2,2.11,1.24,4.06,2.57,6,3.86,1,.68,2,1.35,3,2,2.22,1.42,4.19,2.92,6.09,4.38l1.63,1.23c.84.65,1.64,1.25,2.41,1.83,1.43,1.06,2.77,2.07,4,3.12l8.66,7.42a1.58,1.58,0,0,1-1.86,2.55l-9.68-6c-1.23-.79-2.65-1.54-4.15-2.34-.86-.46-1.76-.93-2.67-1.44l-1.79-1c-2-1.09-4.07-2.22-6.32-3.21-1.08-.49-2.16-1-3.25-1.52-2-.94-4-1.9-6.08-2.74-1.17-.46-2.36-1-3.55-1.44-2.14-.88-4.36-1.79-6.6-2.58l-5.33-1.84c-1.93-.7-3.66-1.26-5.29-1.71l-1-.3a37.7,37.7,0,0,0,3.09,8.75,56.79,56.79,0,0,0,12.38,17.37c8.39,8,19.19,13.6,30.47,16.71,12.21,3.37,36.25,11.8,44.49,27.55C1301.32,868,1293.64,825.45,1276.08,807.4Z" transform="translate(0.23 -383.79)"/><path class="cls-1" d="M1352.12,610.14a52,52,0,0,0-32.14-1.79l-.38.11a12.84,12.84,0,0,0-3.77,1.8c2.25.6,4.53,1.24,6.82,2,1.07.38,2.11.72,3.15,1.06,2.44.81,5,1.64,7.41,2.71l5.09,2.07c1.15.49,2.24,1,3.33,1.56l1.71.83,1.75.85c1.06.51,2.12,1,3.15,1.56l4.62,2.68,1.59.91c1,.56,1.93,1.12,2.85,1.7l7.82,5.44c.84.6,1.59,1.23,2.32,1.86l1.11.92,2.19,1.83c1.29,1.07,2.51,2.08,3.6,3L1382,649h0a1.58,1.58,0,0,1-2.18,2.29l-8-7c-1.17-.9-2.4-1.79-3.71-2.72l-2.33-1.68c-.38-.26-.79-.56-1.2-.86-.69-.51-1.4-1-2.17-1.5l-8-4.73c-.85-.46-1.79-.91-2.73-1.37-.55-.26-1.1-.52-1.65-.8l-4.61-2.25c-.94-.4-2-.81-3-1.22l-1.78-.71c-.58-.22-1.17-.46-1.77-.71-1-.42-2.07-.84-3.14-1.2l-5.1-1.65c-2.32-.82-4.73-1.43-7.06-2-1.08-.27-2.14-.54-3.2-.83-2.79-.66-5.62-1.21-8.38-1.73.2,3.8,2.15,7.77,3.74,10.92a56.63,56.63,0,0,0,13,16.88c8.68,7.67,19.69,12.86,31.08,15.53,12.33,2.9,36.68,10.4,45.52,25.82,0,0-9.31-42.24-27.55-59.6C1370.31,620.7,1361.88,614.06,1352.12,610.14Z" transform="translate(0.23 -383.79)"/><path class="cls-1" d="M1359.28,529.29a11.21,11.21,0,0,0-2.12,6.46,169.17,169.17,0,0,1,20.56-8.78l6-2,8.51-2.23c.66-.15,1.26-.26,1.85-.36l5.75-1.06a102.92,102.92,0,0,1,14.78-1.31l5.08-.09a1.58,1.58,0,0,1,.13,3.16l-5.12.33a99,99,0,0,0-14.12,1.92l-5.63,1.3c-.52.12-1.06.24-1.59.39l-8.16,2.54-5.75,2.22a162.66,162.66,0,0,0-20,9.72c2.56,3,6.71,4.86,10,6.33a56.84,56.84,0,0,0,20.78,4.82c11.58.44,23.38-2.51,33.89-7.65,11.39-5.56,35-15.17,51.58-8.82,0,0-33.94-26.81-59-28.71-10.4-.79-21.14-.59-31.17,2.55a52,52,0,0,0-26,19Z" transform="translate(0.23 -383.79)"/><path class="cls-1" d="M1369.39,746.5s-15.76-40.28-36.48-54.6c-8.58-5.93-18-11.18-28.2-13.54a52,52,0,0,0-32,3.23l-.37.17a14.15,14.15,0,0,0-2.34,1.44c2.43.47,4.84,1,7.18,1.57l3.56.83c1.49.46,2.85.86,4.22,1.26,2.59.77,5.27,1.56,7.85,2.45l4,1.5c2.48.93,4.93,1.84,7.29,2.81l10.22,4.68c2.14,1,4.1,2.12,6,3.16,1,.55,2,1.08,2.89,1.58l.75.41a74.17,74.17,0,0,1,6.67,3.89l10.15,6.48a1.58,1.58,0,0,1-1.54,2.75l-10.84-5.31c-2-1-4.28-2-6.75-3l-.78-.32c-1-.39-2-.81-3.07-1.25-1.92-.79-3.9-1.61-6-2.35L1301.41,701c-2.24-.63-4.61-1.22-7-1.82-1.38-.35-2.77-.69-4.17-1.06-2.38-.52-4.92-1-7.37-1.4-1.43-.25-2.86-.51-4.28-.78-1.12-.11-2.36-.26-3.6-.41-2.63-.31-5.36-.64-8-.81a36.47,36.47,0,0,0,4.81,8.2,56.76,56.76,0,0,0,15.5,14.65c9.78,6.23,21.46,9.64,33.12,10.51C1333.05,729,1358.26,732.63,1369.39,746.5Z" transform="translate(0.23 -383.79)"/><path class="cls-1" d="M1263.42,818.92l-4.65-4c-1.77-1.58-4-3.08-6.27-4.88s-4.81-3.74-7.63-5.54-5.68-3.95-8.83-5.81-6.37-3.92-9.79-5.74l-5.16-2.74c-1.73-.94-3.48-1.84-5.28-2.65-3.57-1.68-7.13-3.42-10.76-4.85-1.8-.75-3.58-1.52-5.36-2.22l-5.33-2c-3.48-1.36-7-2.33-10.22-3.44-3.31-.92-6.42-1.91-9.36-2.59-.79-.21-1.52-.38-2.28-.56l3.9-4.22c2-2.36,4-4.83,6-7.28l3-3.73,2.84-4c1.89-2.68,3.86-5.34,5.72-8.12,3.44-5.79,7.26-11.48,10.18-17.85l2.35-4.7,1.18-2.37,1-2.21c1.37-2.94,2.86-5.88,4.44-8.84,1.73-3.24,3.58-6.53,5.47-9.82l.06,0c.62-.27,1.88-.68,3.4-1.2s3.49-1.07,5.78-1.57,4.88-1,7.74-1.58c1.43-.28,3-.41,4.51-.64s3.19-.44,4.87-.53l5.18-.38c1.77-.09,3.59-.07,5.44-.11,3.71-.17,7.53.17,11.44.32s7.85.82,11.83,1.25c3.92.75,7.89,1.35,11.75,2.2s7.64,1.88,11.28,2.91l10.39,3.4c3.29,1.15,6.29,2.51,9.13,3.62s5.45,2.17,7.64,3.33l5.78,2.84,5.05,2.47-4.73-3-5.46-3.49c-2.07-1.41-4.56-2.73-7.27-4.2s-5.61-3.16-8.8-4.7l-10.16-4.66c-3.59-1.47-7.38-2.81-11.21-4.28-3.87-1.32-7.89-2.42-11.9-3.65-4.07-.92-8.14-2-12.21-2.71s-8.11-1.44-12.06-1.72c-2-.18-3.92-.42-5.83-.54l-5.62-.22c-1.83-.11-3.61-.05-5.34,0s-3.4,0-5,.13c-2.12.15-4.11.28-6,.46,5.64-9.21,11.55-18.4,17.71-27.41l.63-.91h0v0c9.45-13.81,19.43-27.25,29.79-39.91.76,0,1.75-.09,3.08-.12,1.54-.07,3.43,0,5.6,0s4.62.07,7.29.3l4.17.28,4.45.47c3.08.26,6.26.86,9.6,1.33s6.72,1.26,10.16,2.08,6.94,1.66,10.33,2.86l5.13,1.66c1.69.58,3.33,1.3,5,1.94s3.3,1.29,4.89,2l4.63,2.26c1.52.75,3,1.44,4.47,2.21l4.12,2.44,3.9,2.31c1.25.77,2.35,1.66,3.47,2.43,2.2,1.6,4.26,3,6,4.37l4.32,3.78,3.77,3.3-3.52-3.56-4.07-4.11c-1.66-1.48-3.62-3-5.73-4.83-1.07-.86-2.13-1.85-3.33-2.71l-3.77-2.63-4-2.77c-1.4-.9-2.89-1.7-4.38-2.59l-4.56-2.64c-1.58-.82-3.21-1.57-4.84-2.38s-3.27-1.63-5-2.35l-5.14-2.09c-3.4-1.48-7-2.5-10.4-3.71s-7-2-10.32-2.9-6.66-1.6-9.81-2.1l-4.58-.82-4.31-.6c-2.77-.43-5.33-.6-7.59-.86l-2.4-.18c4.8-5.61,9.66-11,14.58-16.25,18.21-19.32,37.32-35.38,55.39-46.56a160.55,160.55,0,0,1,25.8-13.17l5.85-2.25,5.58-1.74,2.62-.82c.87-.24,1.73-.41,2.57-.61l4.78-1.11a101.9,101.9,0,0,1,14.32-1.94l5.12-.33-5.13.09a102.13,102.13,0,0,0-14.47,1.29l-4.87.89c-.86.17-1.74.3-2.62.5l-2.69.7-5.72,1.5-6,2a163.25,163.25,0,0,0-26.79,12.14,257.8,257.8,0,0,0-37.57,26c0-1.26.09-2.63.13-4.18,0-2.28,0-4.86-.15-7.65-.07-1.4-.11-2.86-.22-4.36s-.28-3.06-.42-4.65c-.25-3.2-.86-6.53-1.32-10q-.51-2.57-1-5.21c-.33-1.77-.69-3.54-1.19-5.31s-.93-3.55-1.4-5.34-1.13-3.53-1.69-5.3-1.14-3.53-1.79-5.25l-2.12-5.09a97.63,97.63,0,0,0-4.6-9.65,83,83,0,0,0-5-8.61c-.85-1.34-1.64-2.66-2.47-3.9l-2.61-3.43c-1.7-2.18-3.14-4.26-4.63-5.94l-3.94-4.26-3.42-3.7s1.17,1.42,3.22,3.88l3.69,4.45c1.38,1.74,2.7,3.9,4.27,6.14l2.4,3.53c.76,1.27,1.47,2.62,2.24,4a87.26,87.26,0,0,1,4.5,8.75,96.19,96.19,0,0,1,4,9.71c.59,1.68,1.2,3.37,1.8,5.08s1,3.49,1.47,5.23,1,3.47,1.37,5.25l1.08,5.27c.39,1.74.65,3.49.88,5.22s.49,3.43.73,5.11c.26,3.38.68,6.62.75,9.73.06,1.55.11,3.05.17,4.51s0,2.87,0,4.22c0,2.7-.17,5.17-.25,7.35s-.31,4.08-.5,5.63-.34,2.75-.47,3.53c-.06.4-.11.7-.15.92q-7.12,6.18-14.17,13a521.41,521.41,0,0,0-48.67,54.7c-.56-2-1.17-4.12-2-6.33-.94-2.87-2.24-5.84-3.57-9-.66-1.57-1.49-3.11-2.25-4.72s-1.54-3.26-2.48-4.84c-1.81-3.21-3.59-6.56-5.72-9.76l-3.11-4.89c-1.12-1.58-2.25-3.16-3.37-4.75s-2.24-3.17-3.39-4.71l-3.57-4.5-3.51-4.43-3.62-4.14c-2.42-2.69-4.61-5.4-6.94-7.75l-6.46-6.68c-2-2.1-3.9-3.88-5.6-5.48s-3.17-3-4.39-4.15l-3.82-3.61,3.43,4,3.93,4.56c1.52,1.76,3.25,3.73,5,6l5.69,7.26c2,2.54,3.93,5.44,6,8.31l3.12,4.42q1.47,2.31,3,4.67c1,1.57,2,3.15,3,4.74s1.87,3.27,2.8,4.9l2.77,4.9c.84,1.67,1.67,3.34,2.49,5,1.72,3.26,3.07,6.62,4.46,9.81.74,1.58,1.26,3.21,1.85,4.77s1.18,3.08,1.63,4.59c.92,3,1.83,5.85,2.39,8.51.71,2.63,1,5.07,1.44,7.2s.5,4,.56,5.47c.06.75.06,1.39.06,1.94s0,1.06,0,1.31c0,.53-.06.81-.07.93-7.42,10-14.55,20.28-21.32,30.56-3.91,6-7.68,11.82-11.31,17.9-1.81,3-3.56,6.13-5.21,9.28l-.82,1.6c-.28-.72-.57-1.45-.89-2.19l-1.91-4.72c-.71-1.6-1.44-3.26-2.2-5-1.45-3.42-3.29-6.9-5.06-10.54s-3.88-7.26-6-10.93-4.33-7.36-6.87-10.85l-3.64-5.3c-1.21-1.76-2.6-3.4-3.87-5.08l-3.84-4.94-4.07-4.56-3.92-4.39c-1.38-1.34-2.73-2.66-4-3.93l-3.81-3.71c-1.21-1.21-2.58-2.19-3.78-3.22l-6.69-5.5c-2.12-1.46-4-2.73-5.49-3.77l-4.75-3.27,4.25,3.91,4.84,4.45,5.76,6.29c1,1.18,2.2,2.29,3.21,3.64l3.18,4.11,3.34,4.31,3.16,4.76,3.25,4.89c1,1.72,2,3.47,3,5.23s2.07,3.48,3,5.32l2.73,5.5c1.91,3.61,3.36,7.48,5,11.13s2.88,7.45,4.17,11,2.42,7.11,3.31,10.49l1.39,4.89c.4,1.59.78,3.13,1.14,4.6.78,2.94,1.25,5.67,1.8,8.06s.86,4.5,1.11,6.2c.13.86.25,1.62.35,2.28s.15,1.15.2,1.57c0,.08,0,.13,0,.19l-1.37,2c-1.83,2.49-3.78,4.86-5.62,7.25l-2.78,3.54-3,3.31c-2,2.18-3.89,4.37-5.84,6.47l-6,6c-1.93,2-4,3.8-6,5.56s-4,3.55-5.94,5.21c-4.07,3.19-7.81,6.43-11.68,9.13l-5.56,4-5.39,3.63c-3.44,2.41-6.87,4.35-9.92,6.31s-6,3.54-8.64,5c-5.27,2.89-9.47,5-12.32,6.33-1,.46-1.68.79-2.28,1.05l15.16,15.69c2.67-1.49,5.89-3.35,9.6-5.62,2.78-1.68,5.77-3.65,9-5.77s6.75-4.51,10.32-7.25l5.59-4.15,5.76-4.62c3.64-2.81,7.2-6.1,11-9.41h2c1.57,0,3.5,0,5.73.18s4.76.27,7.52.55,5.75.67,8.94,1c3.14.56,6.52.95,10,1.72l5.25,1.06c1.77.39,3.54.86,5.34,1.29,3.62.82,7.22,1.94,10.85,3,1.82.51,3.62,1.1,5.39,1.74l5.33,1.85c3.53,1.23,6.88,2.73,10.22,4s6.38,2.93,9.38,4.28,5.7,2.89,8.24,4.24,4.91,2.55,6.88,3.82l5.17,3.19,4.51,2.8Z" transform="translate(0.23 -383.79)"/><path class="cls-1" d="M1461.17,1161.77c-8.57-8-15.56-17.92-19.3-28.9a56.72,56.72,0,0,1-3-21.12c.16-3.1.39-6.89,1.61-10.08,1.33,1.38,2.66,2.78,3.91,4.28l3.7,4.21,4.68,5.95c.75.94,1.49,1.88,2.21,2.83l6.4,9.07,2.88,4.5c.65,1.06,1.33,2.12,2,3.16,1.22,1.89,2.37,3.68,3.36,5.47l4.57,8c1.25,2.11,2.3,4.17,3.22,6l5.54,10.89a1.58,1.58,0,0,0,2.89-1.29l-4.39-11.39c-.63-1.65-1.35-3.52-2.2-5.46l-4.2-9.53-.26-.62c-.79-1.8-1.68-3.55-2.62-5.41-.56-1.1-1.12-2.22-1.68-3.37l-2.48-4.94-5.61-10c-.67-1.12-1.35-2.19-2-3.26l-4.21-6.65-3.39-4.8c-1-1.41-2-2.77-3-4.1a14.07,14.07,0,0,1,2.74.34l.38.1a52,52,0,0,1,27,17.48c6.53,8.25,10.56,18.19,13.56,28.19,7.23,24.12-5.62,65.42-5.62,65.42C1487.87,1189,1470.44,1170.4,1461.17,1161.77Z" transform="translate(0.23 -383.79)"/><path class="cls-1" d="M1363,1134.78l4.09,4.64c.85,1,1.63,2,2.4,3,.45.58.89,1.16,1.36,1.74l3.69,4.73,6.43,9.49,5.27,9.13a30,30,0,0,1,1.37,2.71c.24.53.48,1,.74,1.56l3.62,7.68,4.25,11.46a1.58,1.58,0,0,0,3-.89l-2.64-12.15-2.59-8.4c-.18-.55-.34-1.08-.5-1.61a31.42,31.42,0,0,0-1.11-3.26l-4.08-10.14-5.31-10.89-3.16-5.52c-.38-.64-.74-1.28-1.1-1.92-.69-1.21-1.39-2.46-2.19-3.66l-3.52-5.38c-.57-.91-1.18-1.79-1.8-2.68.29.06.58.09.86.17l.39.1a52,52,0,0,1,26.71,17.95c6.39,8.36,10.25,18.38,13.07,28.43,6.81,24.24-6.76,65.31-6.76,65.31.28-17.78-16.82-36.66-26-45.45-8.42-8.12-15.24-18.2-18.78-29.23a56.68,56.68,0,0,1-2.59-21.17,36.69,36.69,0,0,1,1.52-9.34C1360.87,1132.35,1362,1133.54,1363,1134.78Z" transform="translate(0.23 -383.79)"/><path class="cls-1" d="M1581.64,1117.57c-9.58-6.7-17.89-15.59-23.12-25.94a56.56,56.56,0,0,1-5.86-20.51c-.31-3.54-.65-8,.59-11.59l.14.09,4.5,3a33.08,33.08,0,0,1,2.71,2c.52.4,1,.81,1.57,1.2s1,.77,1.52,1.17c.91.7,1.82,1.39,2.69,2.12l4,3.56a71,71,0,0,1,6,5.85l1.37,1.45a58.94,58.94,0,0,1,5,5.7l1.35,1.67,1,1.31c.61.75,1.21,1.49,1.77,2.22l2.3,3.48c.52.82,1.06,1.62,1.58,2.39.9,1.34,1.75,2.6,2.42,3.79l5.07,9.53a1.59,1.59,0,0,0,2.1.67,1.63,1.63,0,0,0,.73-2.09l-4.57-9.83c-.68-1.38-1.5-2.74-2.36-4.19-.47-.79-1-1.6-1.44-2.46l-2.2-3.73c-.6-.9-1.18-1.71-1.78-2.54l-1-1.34c-.42-.57-.82-1.15-1.23-1.72a65.32,65.32,0,0,0-5-6.36l-1.22-1.43a76.74,76.74,0,0,0-6-6.57l-3.87-3.85c-.93-.86-1.85-1.65-2.78-2.45l-1.48-1.27c-.52-.43-1-.85-1.48-1.27-.92-.8-1.87-1.63-2.89-2.38l-4-3a11.48,11.48,0,0,1,6.18-1l.4,0a51.93,51.93,0,0,1,29.19,13.56c7.61,7.26,13,16.55,17.35,26,10.51,22.89,3.51,65.57,3.51,65.57C1611.87,1140.81,1592,1124.83,1581.64,1117.57Z" transform="translate(0.23 -383.79)"/><path class="cls-1" d="M1282.63,979.52c4.16,9.57,7.51,19.77,7.85,30.28a51.92,51.92,0,0,1-9.34,30.8l-.23.33a14.89,14.89,0,0,1-1.2,1.43c-.07-1.71-.21-3.55-.44-5.61l-.58-5.8c-.26-2.55-.65-5-1-7.46-.2-1.29-.4-2.57-.58-3.83-.35-2.42-.85-4.73-1.33-7-.25-1.19-.5-2.35-.72-3.49-.47-2.59-1.12-5-1.74-7.3l-.52-2c-.29-1-.54-2-.79-2.93-.44-1.72-.86-3.34-1.39-4.84L1267,981.34a1.59,1.59,0,0,0-3.07.76l1.89,11.23c.26,1.44.42,3,.59,4.73.1,1,.2,2,.33,3l.21,2c.25,2.27.51,4.61.58,7.07,0,1.19.11,2.38.17,3.58.13,2.17.26,4.41.24,6.67,0,1.26,0,2.54,0,3.83,0,2.32,0,4.71-.11,7.09l-.31,5.63c-.08,2-.22,3.86-.42,5.54l-.11,1.06a37.44,37.44,0,0,1-6.93-6.18,56.72,56.72,0,0,1-11.39-18c-4.23-10.8-5.32-22.91-3.93-34.53,1.51-12.58,2.81-38-8.65-51.61C1236.08,933.21,1272.57,956.44,1282.63,979.52Z" transform="translate(0.23 -383.79)"/><path class="cls-1" d="M1494,983.84a51.88,51.88,0,0,1-10.51,30.42l-.25.32a12.5,12.5,0,0,1-3.09,2.8c.29-2.31.57-4.65.77-7,.06-1.14.13-2.23.21-3.32.17-2.56.36-5.22.29-7.88l0-5.5c0-1.24-.1-2.46-.18-3.67,0-.63-.09-1.27-.12-1.9l-.13-1.94c-.07-1.18-.14-2.35-.25-3.5l-.72-5.29c-.1-.62-.18-1.22-.26-1.82-.14-1.11-.29-2.21-.49-3.28l-2.06-9.3c-.25-1-.55-1.94-.85-2.85-.15-.46-.3-.92-.43-1.37-.31-1-.59-1.86-.86-2.72-.51-1.61-1-3.12-1.47-4.49l-4.26-10v0a1.58,1.58,0,0,0-2.94,1.15l3.43,10c.39,1.42.74,2.89,1.11,4.46.22.9.44,1.84.67,2.79.1.45.22.94.34,1.44.21.83.42,1.69.57,2.57l1.36,9.2c.1.95.16,2,.23,3,0,.6.07,1.21.11,1.82l.34,5.12c0,1,0,2.14,0,3.25l0,1.92c0,.62,0,1.26,0,1.91,0,1.11,0,2.23-.08,3.35l-.4,5.35c-.12,2.46-.47,4.92-.81,7.3-.15,1.1-.31,2.19-.44,3.27-.44,2.84-1,5.66-1.57,8.42-3.44-1.63-6.38-4.93-8.69-7.6a56.51,56.51,0,0,1-10.69-18.45c-3.81-10.95-4.44-23.1-2.6-34.65,2-12.52,4.26-37.89-6.67-51.91,0,0,35.57,24.61,44.74,48.06C1491.11,963,1494.06,973.33,1494,983.84Z" transform="translate(0.23 -383.79)"/><path class="cls-1" d="M1571.53,1007.83a11.1,11.1,0,0,1-6.77-.49,169.26,169.26,0,0,0,15.9-15.7l4.16-4.84,5.28-7c.39-.55.72-1.07,1-1.58l3.15-4.92a101.58,101.58,0,0,0,6.81-13.18l2-4.67a1.58,1.58,0,0,0-2.88-1.31l-2.24,4.61a100.41,100.41,0,0,1-7.12,12.35l-3.34,4.71c-.31.44-.62.89-1,1.33l-5.44,6.58-4.23,4.49a162.35,162.35,0,0,1-16.59,14.85c-1.76-3.48-2-8-2.06-11.68a56.79,56.79,0,0,1,3.41-21.05c4-10.89,11.18-20.69,19.91-28.47,9.46-8.44,27.29-26.64,27.7-44.41,0,0,12,41.57,4.21,65.53-3.21,9.93-7.46,19.79-14.16,27.89a52,52,0,0,1-27.4,16.9Z" transform="translate(0.23 -383.79)"/><path class="cls-1" d="M1374.33,916.22s31.31,29.85,36.72,54.44c2.24,10.19,3.55,20.85,1.85,31.23a52,52,0,0,1-15.12,28.41l-.29.28a14.1,14.1,0,0,1-2.21,1.62c.47-2.42.88-4.86,1.25-7.24.19-1.2.38-2.41.58-3.61.15-1.55.29-3,.43-4.38.28-2.69.56-5.47.71-8.19,0-1.47.08-2.88.13-4.27.08-2.66.16-5.26.16-7.81l-.46-11.23c-.15-2.38-.41-4.6-.66-6.75-.13-1.12-.26-2.21-.37-3.27l-.09-.85c-.3-2.75-.58-5.34-1.07-7.65l-2.16-11.85a1.59,1.59,0,0,0-3.14.39l.82,12c.21,2.21.2,4.71.19,7.37v.84c0,1.07,0,2.18,0,3.32,0,2.07,0,4.22-.1,6.44l-.78,10.87c-.27,2.32-.62,4.73-1,7.18q-.32,2.12-.6,4.26c-.42,2.4-1,4.92-1.5,7.36-.3,1.41-.61,2.83-.9,4.25-.31,1.08-.65,2.28-1,3.48-.71,2.56-1.44,5.21-2.28,7.72a36.91,36.91,0,0,1-5.77-7.56,56.62,56.62,0,0,1-7.68-19.89c-2.07-11.41-.8-23.51,2.81-34.63C1376.75,956.48,1383,931.77,1374.33,916.22Z" transform="translate(0.23 -383.79)"/><path class="cls-1" d="M1267.17,986.88c.54,1.61,1.19,3.57,1.93,5.81s1.34,4.84,2.13,7.65,1.65,5.87,2.25,9.17,1.5,6.74,2,10.37,1.22,7.38,1.61,11.23q.29,2.88.58,5.81c.22,2,.38,3.92.45,5.89.2,3.94.46,7.9.42,11.8,0,2,0,3.89,0,5.8s-.13,3.81-.2,5.67c-.06,3.74-.48,7.33-.69,10.77-.4,3.41-.67,6.66-1.15,9.64-.11.81-.23,1.55-.34,2.33l5.39-2c2.94-1,6-1.85,9-2.79l4.6-1.41,4.76-1.12c3.2-.73,6.41-1.55,9.69-2.22,6.65-1,13.37-2.38,20.37-2.66l5.24-.4,2.64-.19,2.43-.1c3.24-.15,6.53-.42,9.86-.76,3.66-.38,7.4-.84,11.16-1.35l0,0c.49-.47,1.34-1.49,2.4-2.7s2.31-2.82,3.64-4.75,2.83-4.12,4.4-6.57c.79-1.22,1.49-2.57,2.29-3.93s1.62-2.78,2.34-4.31l2.31-4.64c.76-1.61,1.43-3.3,2.17-5,1.55-3.37,2.69-7,4-10.71s2.22-7.57,3.32-11.42c.8-3.91,1.74-7.81,2.41-11.71s1.16-7.78,1.59-11.54c.27-3.78.53-7.44.78-10.9s.06-6.78.1-9.83.06-5.86-.18-8.33-.32-4.64-.44-6.42c-.24-3.57-.38-5.61-.38-5.61s.37,2,1,5.53l1.16,6.36c.53,2.46.8,5.26,1.14,8.33s.79,6.39,1,9.92.3,7.29.46,11.17c0,3.88-.19,7.89-.29,12s-.74,8.23-1.12,12.4c-.68,4.11-1.25,8.28-2.11,12.33s-1.75,8-3,11.81c-.58,1.9-1.09,3.78-1.7,5.6l-1.93,5.28c-.59,1.74-1.31,3.37-2,5s-1.3,3.15-2,4.59c-.93,1.9-1.81,3.7-2.69,5.36,10.67-1.73,21.41-3.72,32.08-6l1.08-.24v0l0,0c16.35-3.53,32.58-7.68,48.21-12.47.33-.69.75-1.59,1.28-2.8.65-1.4,1.32-3.17,2.16-5.17s1.68-4.3,2.48-6.86c.43-1.27.87-2.6,1.32-4s.83-2.82,1.25-4.3c.93-2.94,1.58-6.12,2.41-9.38.67-3.29,1.38-6.7,1.92-10.19s1.09-7.06,1.26-10.65c.13-1.79.27-3.59.4-5.38s.06-3.57.09-5.34.06-3.54,0-5.28-.23-3.45-.34-5.14-.18-3.36-.36-5-.47-3.19-.7-4.72-.44-3-.66-4.49-.64-2.81-.93-4.13c-.65-2.64-1.19-5.09-1.77-7.23s-1.34-3.92-1.86-5.43l-1.63-4.74,2,4.61c.63,1.48,1.39,3.26,2.26,5.32s1.46,4.51,2.3,7.13c.4,1.32.9,2.67,1.25,4.11s.66,3,1,4.49l1,4.75c.3,1.63.48,3.32.74,5s.47,3.46.72,5.22.24,3.57.37,5.38.27,3.65.3,5.49,0,3.69,0,5.54c.09,3.71-.31,7.38-.5,11s-.77,7.2-1.22,10.65-1,6.77-1.78,9.87c-.33,1.57-.66,3.09-1,4.56s-.73,2.86-1.08,4.22c-.64,2.72-1.46,5.15-2.07,7.34-.27.81-.51,1.56-.75,2.29,7-2.31,13.89-4.75,20.56-7.34,24.78-9.54,46.88-21.14,64.07-33.63a161.64,161.64,0,0,0,22-18.89l4.3-4.57,3.72-4.5,1.75-2.12c.55-.71,1-1.45,1.54-2.14l2.84-4a99.27,99.27,0,0,0,7.21-12.52l2.24-4.61-2,4.71a101.74,101.74,0,0,1-6.67,12.91l-2.67,4.17c-.48.72-.94,1.49-1.45,2.23s-1.11,1.47-1.67,2.22l-3.55,4.73-4.14,4.82a163.82,163.82,0,0,1-21.39,20.19,257.81,257.81,0,0,1-38.33,24.91c1.19.43,2.46.91,3.92,1.46,2.1.9,4.5,1.81,7,3,1.26.6,2.6,1.19,4,1.86l4.14,2.15c2.86,1.44,5.71,3.27,8.74,5l4.43,2.93c1.51,1,3,2,4.46,3.11l4.41,3.31c1.5,1.09,2.84,2.39,4.27,3.57s2.83,2.4,4.18,3.65l3.91,3.89a97.51,97.51,0,0,1,7.19,7.91,85.31,85.31,0,0,1,6.06,7.93c.92,1.29,1.84,2.52,2.67,3.76s1.49,2.53,2.19,3.72c1.37,2.4,2.76,4.52,3.74,6.53l2.45,5.26c1.35,2.91,2.13,4.57,2.13,4.57l-2.37-4.45c-.76-1.41-1.67-3.13-2.72-5.1s-2.58-4-4.06-6.28l-2.36-3.56c-.89-1.18-1.87-2.35-2.84-3.57a82.71,82.71,0,0,0-6.4-7.48,94.65,94.65,0,0,0-7.46-7.38l-4-3.59c-1.39-1.16-2.86-2.23-4.29-3.35s-2.82-2.27-4.34-3.25l-4.47-3c-1.46-1-3-1.93-4.49-2.8l-4.46-2.6c-3-1.53-5.88-3.14-8.72-4.38l-4.11-1.87c-1.34-.58-2.66-1.07-3.91-1.58-2.49-1-4.85-1.8-6.91-2.55s-3.89-1.26-5.39-1.67-2.68-.73-3.45-.91l-.9-.21q-8.42,4.26-17.38,8.2a520.71,520.71,0,0,1-69.06,24.34c1.62,1.27,3.37,2.64,5.1,4.25,2.3,2,4.56,4.28,7,6.7,1.21,1.21,2.32,2.56,3.52,3.88s2.43,2.65,3.54,4.12c2.28,2.89,4.71,5.81,6.86,9l3.35,4.72,3.12,4.92c1,1.65,2.09,3.27,3.08,4.92l2.81,5c.93,1.66,1.86,3.3,2.77,4.93l2.47,4.92c1.57,3.25,3.25,6.3,4.54,9.35s2.58,5.87,3.73,8.51,2.12,5.08,3,7.26,1.57,4.07,2.17,5.64c1.21,3.12,1.89,4.9,1.89,4.9s-.86-1.71-2.38-4.69l-2.74-5.36c-1.06-2.07-2.22-4.42-3.68-6.89l-4.56-8c-1.57-2.86-3.55-5.7-5.41-8.73q-1.44-2.24-2.91-4.55l-3.2-4.53c-1.07-1.51-2.15-3-3.24-4.58s-2.32-3-3.48-4.45l-3.48-4.42-3.68-4.19c-2.36-2.83-5-5.35-7.38-7.84-1.19-1.28-2.5-2.38-3.72-3.52s-2.4-2.26-3.63-3.25c-2.45-2-4.73-3.9-7-5.43s-4.3-2.89-6.12-4.06-3.5-2-4.85-2.58a18.79,18.79,0,0,0-1.78-.8c-.51-.21-1-.42-1.21-.48l-.89-.3c-12.1,3.07-24.28,5.79-36.35,8.17-7,1.35-13.85,2.63-20.86,3.69-3.5.52-7,1-10.56,1.3l-1.8.16c.57.53,1.13,1.08,1.7,1.65,1.17,1.14,2.39,2.32,3.64,3.55s2.47,2.57,3.76,3.92c2.62,2.64,5.14,5.66,7.84,8.67s5.26,6.34,7.84,9.7,5.17,6.8,7.45,10.47c1.17,1.8,2.35,3.59,3.52,5.38s2.16,3.69,3.24,5.5,2.08,3.64,3.11,5.43l2.69,5.49q1.31,2.7,2.58,5.29c.71,1.79,1.42,3.53,2.1,5.24l2,4.93c.67,1.58,1,3.21,1.56,4.72.94,3,1.79,5.8,2.55,8.27.55,2.51,1,4.7,1.42,6.51.78,3.59,1.22,5.64,1.22,5.64l-2-5.42c-.63-1.71-1.4-3.78-2.29-6.17-1.08-2.3-2.3-4.89-3.64-7.71-.7-1.39-1.28-2.9-2.15-4.35l-2.6-4.49c-.88-1.54-1.8-3.12-2.73-4.73s-2.11-3.12-3.2-4.73l-3.3-4.86-3.7-4.75c-1.27-1.57-2.44-3.23-3.8-4.76l-4.06-4.62c-2.62-3.13-5.65-5.94-8.41-8.84s-5.8-5.48-8.63-8-5.66-4.92-8.45-7l-4-3.14-3.83-2.8c-2.42-1.82-4.77-3.3-6.77-4.71s-3.84-2.51-5.33-3.38l-2-1.19-1.38-.78-.17-.09c-.8.16-1.6.34-2.4.49-3,.75-5.93,1.66-8.83,2.46l-4.33,1.23-4.2,1.5c-2.77,1-5.52,2-8.19,3l-7.8,3.34c-2.57,1-5,2.25-7.43,3.45s-4.78,2.32-7.06,3.53c-4.5,2.55-8.91,4.79-12.88,7.35l-5.85,3.61-5.41,3.62c-3.53,2.27-6.62,4.71-9.59,6.79s-5.55,4.22-7.87,6.12c-4.66,3.78-8.22,6.87-10.52,9-.79.7-1.37,1.25-1.84,1.7l-8.78-20c2.39-1.91,5.33-4.18,8.83-6.76,2.61-1.93,5.57-4,8.77-6.18s6.73-4.54,10.62-6.81l6-3.6L1243,1104c4-2.3,8.38-4.35,12.86-6.59l.75-1.8c.56-1.47,1.28-3.25,2-5.37s1.54-4.51,2.34-7.17,1.55-5.58,2.41-8.67c.68-3.12,1.6-6.4,2.19-9.86.33-1.72.66-3.48,1-5.26s.55-3.6.83-5.43c.61-3.67.94-7.42,1.33-11.18.22-1.88.35-3.77.43-5.65s.21-3.76.31-5.63c.2-3.73.08-7.41.13-11s-.29-7-.41-10.31-.51-6.37-.8-9.24-.5-5.51-.93-7.81l-1-6-.88-5.24S1266.11,983.67,1267.17,986.88Z" transform="translate(0.23 -383.79)"/></svg>