<svg id="Layer_1" data-name="Layer 1" xmlns="http://www.w3.org/2000/svg" viewBox="0 0 1608.49 2274.34"><defs><style>.cls-1{fill:#d3ecd7;}</style></defs><path class="cls-1" d="M872.24,1527.58v-34c.64-5.59,1.35-11.17,1.92-16.77,4.87-48.28,21.55-92.11,49.7-131.57,27.85-39,63.5-69.86,102.9-96.62,45.46-30.89,94-56.18,144.41-77.78,61-26.15,122.51-51.08,184-76.08,70.45-28.63,140.58-57.88,207.63-94.06,69.07-37.27,130.54-84.21,183.81-141.92,34.38-37.23,66.06-76.67,96.75-116.95,38.75-50.85,77-102.11,116.48-152.38,32.67-41.58,68.81-80.08,109.63-114,48.14-39.93,101.28-70.86,162.32-86,33-8.2,66.81-13.59,100.33-19.81,11.25-2.09,22.75-2.82,34.13-4.17V2395.62c-1.63-.23-3.28-.37-4.89-.71-36.26-7.8-72.4-16.25-108.8-23.29a1272.8,1272.8,0,0,1-193.71-53.22c-88.74-32.26-173.43-73.26-255.08-120.4-54.61-31.52-108.26-64.71-162.06-97.6-61-37.31-125.24-68.39-190.31-97.81-80.46-36.37-161.29-71.93-241.4-109-59-27.31-115.69-58.86-168.61-96.83-42.61-30.56-81.35-65.16-112-108.13-29.22-41-48-86.17-54.3-136.29C874.05,1544.07,873.19,1535.82,872.24,1527.58Z" transform="translate(-757.75 -211.63)"/><path class="cls-1" d="M2112.46,320.17l.05.27a8.13,8.13,0,0,0,1.61,3.36c.57-2.31,1.25-4.7,2.1-7.11.75-2.08,1.41-3.76,2.1-5.29.88-2,1.67-3.53,2.47-4.93.4-.74.85-1.51,1.34-2.27s.85-1.35,1.39-2.1.93-1.33,1.42-1.94l.1-.12c.44-.57.86-1.12,1.32-1.62.9-1.08,1.86-2,2.62-2.81.56-.54,1.09-1,1.56-1.42l.64-.57,2.06-1.62a1.08,1.08,0,0,1,1.47.15,1.06,1.06,0,0,1-.08,1.47l-1.83,1.74-.55.6c-.4.43-.85.91-1.31,1.46-.64.78-1.45,1.76-2.21,2.87-.38.52-.71,1-1.05,1.58l-.1.16c-.4.61-.77,1.24-1.13,1.9s-.79,1.43-1.09,2.07-.74,1.49-1,2.22a50.46,50.46,0,0,0-1.85,4.8c-.5,1.47-1,3.09-1.47,5.1a76.77,76.77,0,0,0-1.46,7.74,21.74,21.74,0,0,0,6.88-2.12,38.18,38.18,0,0,0,11.83-8.2,48.52,48.52,0,0,0,11.56-20.42c2.39-8.22,8.3-24.37,19-29.79,0,0-28.81,4.8-41.16,16.49-5.12,4.84-9.89,10.3-12.88,16.75A35.07,35.07,0,0,0,2112.46,320.17Z" transform="translate(-757.75 -211.63)"/><path class="cls-1" d="M2092.47,377.2c-.43-.08-.87-.12-1.31-.17l-.78-.08-4.27-.48a33.09,33.09,0,0,0-3.82-.25l-4.48-.15a29.34,29.34,0,0,0-3.64,0l-4.14.19a41.15,41.15,0,0,0-5.38.5l-1.59.21-3.12.4a22.71,22.71,0,0,0-2.68.45l-8.52,1.88a1.07,1.07,0,0,1-1.26-.77,1.11,1.11,0,0,1,.7-1.29l8.31-2.64a19.73,19.73,0,0,1,2.88-.76l3.1-.69,1.55-.35a45.84,45.84,0,0,1,5.63-1l4.14-.57a32.87,32.87,0,0,1,3.93-.4l4.53-.26a36.08,36.08,0,0,1,4.18-.1l4.43.08.78,0c.51,0,1,0,1.53.06l5.25.48a8.73,8.73,0,0,0-1.27-1.57l-.2-.19a35.14,35.14,0,0,0-19.75-9.06c-7.07-.73-14.2.57-21,2.49-16.37,4.61-35.24,26.9-35.24,26.9,10.14-6.42,27-3.22,35.32-1.06a48.54,48.54,0,0,0,23.46.52,38.32,38.32,0,0,0,13.11-6c1.92-1.36,4.3-3.09,5.63-5.26Z" transform="translate(-757.75 -211.63)"/><path class="cls-1" d="M2182.23,347.92c-5.55,4.34-10.81,9.33-14.38,15.47a35,35,0,0,0-4.34,21.29l0,.27a9,9,0,0,0,.26,1.25c.69-1.18,1.4-2.34,2.12-3.46.4-.64.81-1.27,1.2-1.91.6-1,1.31-2,2-2.9l3-4.09c1.14-1.48,2.32-2.87,3.45-4.22.61-.72,1.21-1.43,1.79-2.14,1.18-1.35,2.37-2.57,3.52-3.75.6-.62,1.2-1.23,1.77-1.84l1.25-1.3c.31-.3.6-.56.89-.82l2.9-2.59c.54-.47,1-.93,1.53-1.38a31.45,31.45,0,0,1,2.9-2.45l6.5-5A1.06,1.06,0,0,1,2200,350l-5.91,5.71a29.16,29.16,0,0,0-2.43,2.58c-.44.5-.9,1-1.38,1.55l-2.54,2.84c-.23.27-.47.53-.7.81l-1.05,1.37c-.5.66-1,1.35-1.57,2-1,1.24-2,2.52-2.89,3.86-.48.75-1,1.52-1.52,2.31-.93,1.38-1.88,2.82-2.77,4.28l-2.41,4.24a31.24,31.24,0,0,0-1.47,2.79l-1,2.07c-.77,1.56-1.49,3.06-2.11,4.6a22.61,22.61,0,0,0,6.86-1.47,38.32,38.32,0,0,0,12.56-7.06A48.64,48.64,0,0,0,2203,363.23c3.15-8,10.54-23.49,21.71-27.89C2224.75,335.34,2195.62,337.43,2182.23,347.92Z" transform="translate(-757.75 -211.63)"/><path class="cls-1" d="M2091.5,289.61a8.27,8.27,0,0,0,3,1.6c-.39-2.51-.74-5-1-7.38l-.46-4c-.07-.9-.1-1.76-.14-2.61,0-.45,0-.89-.06-1.33l-.32-7.15c.05-1.63.09-3.1.12-4.5.07-2.74.13-5.11.28-7.24l1.11-10.08a1.07,1.07,0,0,1,2.13.17l-.56,10.07c0,2,0,4.34.12,7,0,1.41.09,2.89.12,4.44l.7,7c.05.43.09.88.13,1.33.08.8.16,1.62.27,2.45l.66,3.92c.35,2.39.83,4.85,1.36,7.34,2.49-1.43,4.21-4.45,5.51-6.82a38.26,38.26,0,0,0,4.43-13.71,48.61,48.61,0,0,0-3.2-23.24c-3.09-8-8.21-24.41-3-35.22,0,0-20,21.31-22.7,38.09-1.13,7-1.61,14.19-.07,21.13a35.06,35.06,0,0,0,11.26,18.58Z" transform="translate(-757.75 -211.63)"/><path class="cls-1" d="M2124.68,386.34c1.92.93,3.62,1.89,5.12,2.75s2.75,1.66,3.77,2.32,1.8,1.2,2.27,1.55l.22.17.89,1.52,1.32,2.27,1.2,2.2c.79,1.46,1.61,2.89,2.36,4.34l2.09,4.38c.71,1.42,1.31,2.89,1.9,4.34s1.22,2.86,1.75,4.29a157.63,157.63,0,0,1,5.16,16.38c.68,2.57,1.19,5.08,1.72,7.44s.92,4.64,1.22,6.78c.72,4.26,1.09,8,1.4,11.06s.39,5.48.42,7.08c0,.18,0,.31,0,.46l12.35-4.24c-.15-1.37-.35-2.93-.59-4.71-.51-3.31-1.13-7.31-2.15-11.82-.45-2.27-1.09-4.65-1.7-7.17s-1.39-5.13-2.27-7.84c-.59-1.9-1.25-3.85-2-5.82v-.15c0-.51.06-1.39.13-2.53s.2-2.52.44-4.12q.16-1.2.36-2.55c.16-.89.34-1.84.52-2.82.33-2,.91-4.08,1.42-6.33.68-2.21,1.23-4.6,2.12-7q.63-1.8,1.26-3.66l1.51-3.67c.95-2.5,2.23-4.9,3.4-7.37.56-1.25,1.27-2.42,1.94-3.6s1.34-2.37,2-3.54c1.39-2.31,2.92-4.48,4.32-6.65s3.07-4,4.49-5.94l1.07-1.4c.37-.44.76-.86,1.13-1.28l2.15-2.41c1.41-1.53,2.59-3.05,3.86-4.17l3.15-3.05,2.76-2.67-3,2.34-3.49,2.7c-1.4,1-2.75,2.36-4.34,3.74l-2.45,2.2c-.42.38-.86.76-1.28,1.17l-1.24,1.28c-1.66,1.76-3.5,3.55-5.24,5.54s-3.5,4.1-5.21,6.31l-2.47,3.42c-.83,1.14-1.7,2.28-2.43,3.5-1.5,2.42-3.12,4.79-4.41,7.29-.67,1.24-1.35,2.46-2,3.67l-1.77,3.7c-1.22,2.41-2.1,4.87-3.08,7.15-.68,1.94-1.38,3.78-2,5.55-.09-.18-.17-.35-.25-.53-.72-1.51-1.44-3-2.3-4.53l-2.48-4.55c-.89-1.51-1.85-3-2.78-4.51l-1.41-2.27-1.43-2.18-2.9-4.4c-1.89-3-3.86-5.92-5.73-9s-3.8-6.11-5.63-9.24-3.65-6.28-5.44-9.45-3.43-6.41-5.16-9.6c-.47-.93-.92-1.85-1.38-2.78,0-.41-.08-1-.14-1.76-.09-1.55-.19-3.79-.16-6.48a88.25,88.25,0,0,1,2.34-19.64c.44-1.74.93-3.49,1.5-5.17a51.39,51.39,0,0,1,1.87-4.88c.33-.78.69-1.53,1.06-2.26s.73-1.45,1.12-2.12.76-1.34,1.17-1.95.76-1.23,1.17-1.78c.77-1.13,1.57-2.1,2.27-3s1.41-1.55,2-2.14l1.83-1.74-2,1.56c-.6.54-1.35,1.17-2.16,2s-1.7,1.7-2.59,2.78c-.47.51-.91,1.09-1.38,1.69s-.93,1.21-1.38,1.88-.92,1.33-1.36,2.06-.9,1.45-1.31,2.22c-.87,1.52-1.67,3.16-2.42,4.84s-1.44,3.43-2.07,5.2a91.62,91.62,0,0,0-4.21,18.44c-.95-2.14-1.91-4.28-2.85-6.38l-3.84-9.65q-1.68-4.84-3.31-9.5c-.92-3.15-1.83-6.23-2.71-9.23-1.51-6.07-2.89-11.84-3.68-17.26-.23-1.35-.45-2.67-.67-4s-.27-2.57-.4-3.81c-.25-2.49-.49-4.85-.71-7.06-.09-4.45-.28-8.35-.23-11.55l.55-10.07-1.1,10.05c-.22,3.2-.25,7.11-.4,11.61.1,2.24.21,4.63.32,7.15.07,1.26.09,2.55.2,3.87s.3,2.67.45,4c.5,5.53,1.58,11.43,2.78,17.68.73,3.1,1.47,6.28,2.24,9.53q1.38,4.81,2.83,9.82c1.11,3.29,2.23,6.64,3.37,10l3.87,10.12c1.44,3.35,2.82,6.76,4.33,10.12s3,6.75,4.71,10.05,3.26,6.65,5,9.9,3.26,6.18,4.94,9.21l-1.09-.43c-2.11-.89-4.47-1.63-6.93-2.49-1.24-.41-2.54-.74-3.85-1.12s-2.65-.79-4-1.07c-2.77-.62-5.61-1.3-8.56-1.7-1.47-.22-2.94-.51-4.43-.66l-4.49-.41-2.24-.21c-.74-.06-1.5,0-2.24-.07l-4.46-.08a39.67,39.67,0,0,0-4.37.11l-4.26.24a36,36,0,0,0-4.09.44l-3.9.53a64.59,64.59,0,0,0-7.06,1.37l-3.11.7a20.67,20.67,0,0,0-2.77.73l-4.45,1.41-3.86,1.23,4-.88,4.53-1a22,22,0,0,1,2.8-.48l3.13-.41a61.17,61.17,0,0,1,7.05-.7l3.85-.18a33.52,33.52,0,0,1,4-.06l4.15.14a37.84,37.84,0,0,1,4.23.27l4.28.48c.72.08,1.44.13,2.15.25l2.13.4,4.26.78c1.4.28,2.78.69,4.16,1,2.76.62,5.4,1.52,8,2.35,1.29.37,2.51.89,3.72,1.35s2.4.89,3.52,1.38C2120.65,384.44,2122.8,385.33,2124.68,386.34Z" transform="translate(-757.75 -211.63)"/><path class="cls-1" d="M1423.39,1053.4a48.68,48.68,0,0,0,23-4.62,38.47,38.47,0,0,0,11.48-8.69,23.33,23.33,0,0,0,4-5.59c-1.3,0-2.6.06-3.91.18l-3.78.25-5.08.61c-.8.1-1.6.19-2.4.31l-7.39,1.28-3.52.78c-.81.2-1.65.38-2.46.56-1.49.32-2.89.63-4.22,1l-6,1.66c-1.61.41-3.09.9-4.39,1.33l-7.85,2.56a1.07,1.07,0,0,1-.76-2l7.52-3.36c1.09-.48,2.32-1,3.66-1.56l6.55-2.56.42-.17c1.24-.48,2.5-.89,3.83-1.33.79-.27,1.6-.53,2.41-.82l3.55-1.18,7.45-2.11c.85-.21,1.69-.4,2.52-.59l5.19-1.17,3.9-.68c1.13-.22,2.27-.39,3.39-.53a8.51,8.51,0,0,0-1.47-1.14l-.23-.14a35.06,35.06,0,0,0-21.26-4.52c-7,.83-13.73,3.66-19.92,7-15,8.08-28.5,34-28.5,34C1397.65,1053.69,1414.84,1053.11,1423.39,1053.4Z" transform="translate(-757.75 -211.63)"/><path class="cls-1" d="M1483.2,1087.27l-4.17.28c-.86,0-1.71.16-2.56.28l-1.48.18-4,.51-7.61,1.47-6.87,1.86a19.16,19.16,0,0,0-1.94.64l-1.1.39-5.39,1.95-7.5,3.45a1.06,1.06,0,0,1-1-1.86l7-4.56,5.24-2.78,1-.54a20.12,20.12,0,0,1,2.08-1l6.79-2.91,7.73-2.68,4.14-1.13,1.45-.39c.9-.25,1.83-.52,2.79-.71l4.24-.9c.71-.16,1.43-.29,2.14-.42-.16-.11-.32-.23-.49-.33l-.23-.14a35,35,0,0,0-21.34-4.14c-7,1-13.66,3.9-19.8,7.36-14.81,8.35-27.9,34.46-27.9,34.46,8.34-8.63,25.52-9.51,34.08-9.37a48.45,48.45,0,0,0,22.92-5,38.4,38.4,0,0,0,11.33-8.89,25.06,25.06,0,0,0,3.72-5.19C1485.39,1087.14,1484.29,1087.17,1483.2,1087.27Z" transform="translate(-757.75 -211.63)"/><path class="cls-1" d="M1386.84,974.83a48.57,48.57,0,0,0,23.42-1.39,38.28,38.28,0,0,0,12.58-7c1.84-1.55,4.11-3.51,5.25-5.83l-.11,0-3.6-.71c-.73-.15-1.47-.24-2.25-.33l-1.32-.17-1.28-.16c-.77-.11-1.53-.21-2.3-.28l-3.6-.19a49,49,0,0,0-5.67-.07l-1.34,0a39.85,39.85,0,0,0-5.09.36l-1.44.16-1.13.13-1.9.22-2.76.57-1.89.39c-1.07.21-2.08.41-3,.66l-7,2.14a1.07,1.07,0,0,1-1.33-.69,1.11,1.11,0,0,1,.64-1.34l6.88-2.52c1-.34,2-.6,3.13-.88.6-.15,1.22-.31,1.86-.49l2.83-.74c.71-.14,1.38-.25,2.06-.36l1.1-.18,1.41-.24a45.23,45.23,0,0,1,5.4-.68l1.27-.1a53.93,53.93,0,0,1,6-.26h3.69c.86,0,1.68.09,2.5.15l1.31.1,1.32.1c.82,0,1.67.11,2.52.24l3.38.47a7.69,7.69,0,0,0-2.47-3.44l-.21-.17a35.1,35.1,0,0,0-20.43-7.42c-7.1-.16-14.1,1.72-20.7,4.18-15.94,5.93-32.94,29.68-32.94,29.68C1361.3,971.54,1378.41,973.35,1386.84,974.83Z" transform="translate(-757.75 -211.63)"/><path class="cls-1" d="M1595.67,1051.34c-6.56,2.59-13,5.87-18.19,10.74a35,35,0,0,0-10.22,19.18l0,.27a8.66,8.66,0,0,0-.1,1.25c.85-.78,1.79-1.59,2.88-2.47l3-2.5c1.34-1.09,2.72-2.1,4-3.08.72-.52,1.42-1,2.1-1.55,1.33-1,2.66-1.86,4-2.7.68-.44,1.36-.88,2-1.32,1.46-1,2.91-1.85,4.31-2.66l1.19-.69,1.77-1c1-.61,2-1.19,3-1.66l6.88-3.46a1.07,1.07,0,0,1,1.1,1.82l-6.25,4.47c-.82.57-1.65,1.25-2.54,2l-1.59,1.29-1.07.86c-1.2,1-2.44,2-3.64,3.11-.59.55-1.19,1.08-1.79,1.63-1.1,1-2.23,2-3.3,3.08-.59.61-1.2,1.22-1.81,1.83-1.11,1.11-2.26,2.25-3.33,3.45l-2.53,2.84c-.94,1-1.74,2-2.44,2.85l-.46.56a25.3,25.3,0,0,0,6.26.35,38.48,38.48,0,0,0,14-3.2,48.56,48.56,0,0,0,18.33-14.64c5.28-6.74,16.79-19.53,28.75-20.56C1640,1051.38,1611.48,1045.09,1595.67,1051.34Z" transform="translate(-757.75 -211.63)"/><path class="cls-1" d="M1492.51,952.65a35,35,0,0,0-9.47,19.56l0,.27a8.83,8.83,0,0,0,.14,2.81c1-1.24,1.95-2.49,3-3.73.51-.58,1-1.13,1.48-1.69,1.14-1.31,2.32-2.67,3.62-3.91l2.61-2.64c.6-.59,1.22-1.13,1.84-1.67l1-.85,1-.87c.6-.53,1.19-1,1.8-1.56l2.87-2.18,1-.75c.6-.46,1.2-.91,1.8-1.33l5.42-3.47c.6-.36,1.19-.66,1.77-1l.86-.45,1.71-.89c1-.53,2-1,2.83-1.45l6.82-2.76h0a1.07,1.07,0,0,1,.86,2l-6.41,3.15c-.86.49-1.73,1-2.66,1.61l-1.65,1-.85.53c-.49.3-1,.6-1.5,1l-5,3.75c-.5.41-1,.87-1.56,1.34-.3.28-.61.55-.92.82l-2.61,2.29c-.49.48-1,1-1.54,1.56l-.9.93c-.29.3-.6.6-.91.91-.53.54-1.06,1.08-1.56,1.64l-2.36,2.76c-1.11,1.23-2.12,2.57-3.09,3.87-.45.6-.9,1.2-1.35,1.78-1.14,1.57-2.21,3.19-3.26,4.77,2.42.86,5.4.68,7.78.51a38.29,38.29,0,0,0,13.91-3.73,48.61,48.61,0,0,0,17.76-15.33c5-6.94,16-20.16,27.93-21.66,0,0-28.74-5.18-44.31,1.67C1503.82,944.06,1497.49,947.59,1492.51,952.65Z" transform="translate(-757.75 -211.63)"/><path class="cls-1" d="M1444,927.16a7.6,7.6,0,0,0,3.47,3,111.69,111.69,0,0,1-.12-15.1l.32-4.29.82-5.88c.08-.45.17-.86.26-1.25l.83-3.86a70.2,70.2,0,0,1,3-9.55l1.27-3.19a1.07,1.07,0,0,1,2,.74l-1.13,3.28a67.27,67.27,0,0,0-2.48,9.3l-.65,3.84c-.06.36-.12.72-.17,1.1l-.54,5.74-.11,4.16a109.28,109.28,0,0,0,.85,15c2.5-.82,4.77-2.92,6.55-4.6a38.24,38.24,0,0,0,8.41-11.7,48.63,48.63,0,0,0,4.05-23.11c-.51-8.54-.36-25.74,7.92-34.44,0,0-25.54,14.18-33.25,29.33-3.2,6.28-5.87,13-6.52,20.1a35.09,35.09,0,0,0,5,21.14Z" transform="translate(-757.75 -211.63)"/><path class="cls-1" d="M1582,977.35s-29.2-.65-43.51,8.53c-5.93,3.81-11.64,8.28-15.77,14.06a35,35,0,0,0-6.32,20.79,2.44,2.44,0,0,0,0,.27,8.9,8.9,0,0,0,.28,1.84c.93-1.39,1.9-2.75,2.85-4.06l1.45-2,1.88-2.3c1.15-1.42,2.34-2.88,3.56-4.25l2-2.11c1.23-1.31,2.43-2.59,3.65-3.81l5.57-5.15c1.21-1.07,2.39-2,3.53-2.91l1.74-1.39.45-.37a51.59,51.59,0,0,1,4.15-3.14l6.68-4.64a1.07,1.07,0,0,1,1.32,1.68l-6.13,5.37c-1.15,1-2.34,2.16-3.6,3.43l-.4.41c-.5.52-1,1-1.58,1.59-1,1-2,2-3,3.12l-4.81,5.58c-1,1.23-2,2.55-3,3.89-.58.78-1.15,1.55-1.74,2.33-1,1.34-1.89,2.81-2.8,4.23-.53.82-1,1.65-1.59,2.46-.36.67-.78,1.4-1.19,2.14-.89,1.56-1.8,3.17-2.59,4.77a24.61,24.61,0,0,0,6.36-.86,38.38,38.38,0,0,0,13.16-5.85,48.55,48.55,0,0,0,15.16-17.91C1561.63,995.45,1570.44,980.68,1582,977.35Z" transform="translate(-757.75 -211.63)"/><path class="cls-1" d="M1599.55,1062.23l-3.69,1.86c-1.44.69-2.95,1.67-4.67,2.64s-3.58,2-5.44,3.31-3.93,2.51-5.92,4-4.1,3-6.12,4.61l-3,2.51c-1,.83-2.05,1.69-3,2.6-2,1.78-4,3.55-5.83,5.44-.93.93-1.87,1.83-2.77,2.76l-2.61,2.81c-1.75,1.82-3.26,3.73-4.8,5.48s-2.86,3.5-4.05,5.16c-.34.44-.63.85-.94,1.28l-1.62-3.54c-1-1.86-2-3.72-3-5.63-.5-1-1-1.9-1.53-2.86s-1.15-1.87-1.74-2.81c-1.18-1.87-2.32-3.79-3.58-5.68a128.35,128.35,0,0,0-8.47-11l-2.32-2.69-1.17-1.35-1.11-1.2q-2.22-2.43-4.36-5.07c-1.56-1.92-3.13-3.93-4.69-6v0c0-.46.07-1.35.14-2.44s.24-2.45.52-4,.61-3.31,1-5.23c.2-1,.51-2,.78-3s.55-2.1.93-3.17l1.11-3.33c.41-1.13.89-2.25,1.35-3.42.86-2.35,2.06-4.64,3.17-7s2.55-4.68,3.86-7c1.48-2.25,2.89-4.57,4.43-6.75s3.15-4.27,4.74-6.27l4.82-5.59c1.58-1.75,3.2-3.27,4.64-4.75s2.76-2.83,4.06-3.9l3.27-2.86,2.85-2.51-3.11,2.17-3.59,2.49c-1.42.93-2.89,2.13-4.52,3.44s-3.42,2.68-5.21,4.26-3.62,3.35-5.55,5.12-3.67,3.87-5.58,5.87-3.56,4.3-5.37,6.47c-1.63,2.29-3.35,4.56-4.87,6.9s-3,4.68-4.2,7.08c-.63,1.18-1.28,2.33-1.85,3.49s-1.08,2.32-1.6,3.44-1,2.24-1.41,3.32-.87,2.13-1.22,3.16c-.46,1.36-.89,2.63-1.27,3.85-4.27-5.92-8.46-12-12.47-18.17-.14-.21-.27-.42-.4-.63v0h0c-6.15-9.48-11.93-19.2-17.13-28.95.17-.49.4-1.11.73-2s.88-2.14,1.43-3.5,1.25-2.86,2.08-4.46c.41-.81.83-1.66,1.26-2.53s1-1.74,1.45-2.66c1-1.84,2.17-3.67,3.33-5.63s2.53-3.86,3.94-5.79,2.84-3.89,4.47-5.69l2.37-2.77c.8-.9,1.68-1.73,2.51-2.6s1.66-1.71,2.5-2.53l2.61-2.3c.86-.75,1.69-1.52,2.54-2.21l2.59-1.93,2.46-1.83c.8-.58,1.64-1,2.42-1.53,1.56-1,3-1.87,4.28-2.61l3.48-1.71,3-1.5-3.14,1.27-3.61,1.47c-1.36.65-2.85,1.46-4.5,2.31-.82.44-1.71.85-2.56,1.37l-2.62,1.67-2.77,1.77c-.92.64-1.81,1.36-2.75,2.06l-2.83,2.15c-.92.77-1.82,1.59-2.74,2.4s-1.87,1.61-2.76,2.48-1.75,1.77-2.63,2.66c-1.81,1.73-3.37,3.68-5,5.52s-3.07,3.81-4.5,5.67-2.72,3.74-3.85,5.57l-1.71,2.64c-.51.88-1,1.72-1.49,2.53-1,1.61-1.76,3.17-2.51,4.51-.26.51-.5,1-.74,1.45-2.25-4.45-4.37-8.9-6.33-13.31-7.31-16.38-12.34-32.46-14.62-46.64a108.73,108.73,0,0,1-1.49-19.5q.06-2.19.12-4.23c.12-1.36.25-2.67.37-3.93,0-.63.11-1.24.17-1.85s.19-1.18.28-1.75c.2-1.15.38-2.24.56-3.27a68.07,68.07,0,0,1,2.51-9.43l1.13-3.28s-.45,1.12-1.28,3.23a68.16,68.16,0,0,0-3,9.35c-.23,1-.46,2.12-.71,3.27-.12.57-.26,1.15-.37,1.75s-.17,1.23-.26,1.86c-.18,1.27-.37,2.59-.56,4s-.21,2.8-.31,4.27A109.68,109.68,0,0,0,1449,935a174.06,174.06,0,0,0,6.46,30.18c-.77-.36-1.61-.73-2.57-1.16-1.43-.58-3-1.29-4.81-1.9-.89-.32-1.81-.68-2.77-1l-3-.94c-2.06-.68-4.29-1.17-6.56-1.78l-3.52-.71c-1.18-.26-2.39-.49-3.61-.64l-3.7-.52c-1.23-.19-2.49-.21-3.74-.32s-2.49-.21-3.74-.25h-3.72a65.31,65.31,0,0,0-7.21.36,56.41,56.41,0,0,0-6.68.9c-1,.18-2.08.33-3.07.53l-2.82.73c-1.8.5-3.47.85-4.9,1.34l-3.68,1.35-3.2,1.17,3.26-1,3.73-1.14c1.44-.41,3.13-.67,4.94-1.07l2.82-.57c1-.14,2-.24,3.07-.36a55.13,55.13,0,0,1,6.62-.53,64.61,64.61,0,0,1,7.09,0l3.63.2c1.22.11,2.43.3,3.64.44s2.44.26,3.63.52l3.57.7c1.18.2,2.34.49,3.48.8l3.37.88c2.18.72,4.31,1.3,6.26,2.06l2.86,1.07c.91.36,1.78.75,2.62,1.1,1.69.69,3.18,1.46,4.52,2.08s2.46,1.25,3.37,1.77,1.63.93,2.09,1.21c.23.14.4.26.53.33,1.33,4,2.8,8.11,4.4,12.21a353.08,353.08,0,0,0,21.43,44.56c-1.38-.17-2.87-.35-4.46-.4-2-.16-4.23-.12-6.53-.12-1.15,0-2.33.12-3.53.18s-2.43.11-3.66.28c-2.47.3-5,.54-7.57,1l-3.86.66-3.83.87c-1.28.29-2.56.56-3.82.88l-3.74,1.06-3.67,1-3.52,1.18c-2.3.81-4.56,1.47-6.63,2.31l-5.85,2.29c-1.81.67-3.43,1.42-4.87,2.06l-3.73,1.66-3.24,1.44,3.38-1.1,3.86-1.26c1.5-.49,3.17-1.06,5-1.54l6-1.66c2.12-.62,4.42-1,6.75-1.59l3.57-.79,3.68-.64,3.74-.65c1.26-.18,2.52-.31,3.78-.47l3.78-.45,3.75-.26c2.48-.22,4.92-.19,7.28-.23,1.17,0,2.32,0,3.45.09s2.23.07,3.28.18c2.12.22,4.13.38,5.93.72s3.43.67,4.86,1,2.61.72,3.55,1.08c.49.15.89.32,1.23.46s.67.27.81.35l.57.28c4.33,7.24,8.85,14.34,13.49,21.24,2.71,4,5.37,7.86,8.22,11.71,1.42,1.91,2.89,3.81,4.43,5.65l.78.93-1.6,0-3.43,0-3.67.08c-2.51,0-5.16.26-7.88.41s-5.54.53-8.37.91-5.72.78-8.56,1.45l-4.25.89c-1.41.3-2.79.74-4.17,1.09l-4.07,1.11-3.91,1.35-3.75,1.3-3.5,1.5-3.3,1.42c-1.07.43-2,1-3,1.51l-5.16,2.74-3.78,2.44-3.27,2.11,3.54-1.63,4-1.86,5.42-2c1-.34,2-.78,3.1-1.06l3.39-.91,3.56-1,3.78-.73,3.9-.76,4-.5c1.36-.15,2.71-.38,4.09-.47l4.14-.27c2.75-.25,5.54-.15,8.24-.22s5.39.14,8,.27,5.06.34,7.4.66l3.4.41,3.17.48c2,.28,3.86.7,5.49,1s3,.63,4.15.92l1.51.37,1,.29.12,0c.3.46.61.93.92,1.38,1.07,1.79,2,3.62,3,5.39.49.89,1,1.77,1.48,2.65l1.29,2.72c.85,1.8,1.71,3.56,2.51,5.32s1.44,3.57,2.14,5.31,1.33,3.48,1.9,5.2,1.19,3.39,1.71,5.05c.93,3.37,2,6.54,2.65,9.66l1.08,4.52c.29,1.47.58,2.91.86,4.3.6,2.77.92,5.41,1.35,7.83s.64,4.66.85,6.67c.43,4,.65,7.21.74,9.33,0,.71.05,1.25.06,1.69l13.72-5.37c-.23-2-.56-4.54-1-7.44-.33-2.17-.78-4.55-1.25-7.14s-1.05-5.38-1.83-8.32q-.55-2.2-1.14-4.56t-1.38-4.79c-.8-3-1.93-6.07-3-9.28l.51-1.22c.43-1,.93-2.17,1.6-3.52s1.41-2.89,2.3-4.55,1.91-3.41,3-5.29,2.29-3.82,3.66-5.76l2-3c.7-1,1.45-2,2.19-3,1.46-2,3.09-4,4.69-6,.79-1,1.63-2,2.49-2.91l2.54-2.83c1.68-1.89,3.49-3.59,5.17-5.32s3.49-3.22,5.11-4.74,3.28-2.8,4.79-4,2.86-2.4,4.16-3.29l3.34-2.39,2.92-2.09Z" transform="translate(-757.75 -211.63)"/><path class="cls-1" d="M876.6,1545.39l.84-.23,1.74-.49a113.68,113.68,0,0,1,12.83-2.51c3.81-.51,7-.79,9.2-.92l2-.1-4.75-11.83c-2.3.51-5.3,1.26-8.77,2.28a121.76,121.76,0,0,0-13.42,4.81l-1.81.81-.94.42-.87.42c-1.32.64-2.5,1.29-3.73,2a58,58,0,0,0-7,4.79c-2.25,1.78-4.14,3.63-6.09,5.23s-4,3.22-5.95,4.65-4,2.78-5.88,3.94-3.79,2.2-5.54,3.09L836,1563l-2.37,1c-1.51.53-2.85,1-4,1.26s-2,.46-2.63.59l-.94.18,1,0a26.17,26.17,0,0,0,2.71-.19c1.17-.1,2.58-.36,4.2-.67l2.55-.61,2.8-.82c1.92-.64,4-1.38,6.15-2.3s4.38-2,6.65-3.13,4.56-2.47,6.85-3.87,4.54-3,6.69-4.19a52.45,52.45,0,0,1,6.71-3.26c1.12-.44,2.3-.87,3.36-1.2Z" transform="translate(-757.75 -211.63)"/><path class="cls-1" d="M822.94,1548.2s-8.41-6.6-7.73,5.59c0,0-7.25-1.77-7.7,4.49,0,0-8.66-3.85-6.67,6.41,0,0-8.94,7.74,2.08,11.41,0,0,5.52,11.7,10.78,3.58,0,0,7,12.77,12.06,1.6,0,0,10.46,13.66,11.2-.55,0,0,9.36,11,10.21-3.15,0,0,8.85,4.34,7.75-6.43,0,0,8.59,3.3,7.05-7.29,0,0,7.62-.67,5.38-7.56,0,0,6.88-1.45,4.84-8.2a51.16,51.16,0,0,0-6.05,3c-1.15.65-2.3,1.4-3.53,2.2-1,.66-2.06,1.34-3.14,2-2.55,1.55-4.81,2.82-6.91,3.9-2.65,1.35-4.79,2.36-6.73,3.17-2.33,1-4.55,1.77-6.22,2.32l-5.44,1.46a43.48,43.48,0,0,1-4.36.69,19.44,19.44,0,0,1-2.26.18l-1.46.06a1.07,1.07,0,0,1-.25-2.12l1.46-.28a17.72,17.72,0,0,0,2-.47,40.41,40.41,0,0,0,3.92-1.24l2.32-.94,2.52-1.18c1.45-.74,3.42-1.77,5.43-3,1.69-1,3.54-2.25,5.81-3.89,1.8-1.3,3.73-2.8,5.89-4.61.86-.7,1.69-1.44,2.56-2.21,1.11-1,2.27-2,3.55-3a64.38,64.38,0,0,1,5.41-3.81,10.17,10.17,0,0,0-4.61-2.67s-4.14-1.77-5,3c0,0-5.52-3.92-8.07,2.4,0,0-7.38-5.45-7.61,1.49,0,0-6.57-5.77-9,2.07C832.36,1546.45,824.46,1540,822.94,1548.2Z" transform="translate(-757.75 -211.63)"/><path class="cls-1" d="M1502.31,2038l.52-.7,1.05-1.46a109.77,109.77,0,0,1,8.46-10c2.64-2.78,5-5,6.6-6.47l1.52-1.33-11.1-6.28c-1.47,1.84-3.35,4.3-5.43,7.26a125.19,125.19,0,0,0-7.48,12.13c-.3.59-.6,1.17-.9,1.77l-.47.92-.42.87c-.63,1.32-1.15,2.57-1.66,3.89a58.86,58.86,0,0,0-2.45,8.09c-.64,2.8-1,5.43-1.49,7.89s-1.08,5-1.74,7.35-1.35,4.63-2.13,6.74-1.59,4.09-2.4,5.88c-.44.88-.85,1.73-1.25,2.54l-1.25,2.22c-.85,1.36-1.61,2.55-2.32,3.47a26.05,26.05,0,0,1-1.68,2.1l-.62.73.72-.63a25.72,25.72,0,0,0,2-1.84c.85-.82,1.79-1.89,2.87-3.14.5-.66,1-1.35,1.61-2.08l1.67-2.38c1.1-1.71,2.27-3.59,3.37-5.64s2.19-4.27,3.23-6.6,2-4.78,2.94-7.3,1.69-5.15,2.61-7.45a52.7,52.7,0,0,1,3.2-6.73c.6-1,1.26-2.12,1.88-3Z" transform="translate(-757.75 -211.63)"/><path class="cls-1" d="M1462.15,2073.69s-10.68.1-2.54,9.19c0,0-6.77,3.15-3.22,8.31,0,0-9.16,2.4-1.2,9.18,0,0-2.15,11.62,8.75,7.61,0,0,11.62,5.69,10.65-3.94,0,0,13.44,5.61,10.42-6.28,0,0,16.71,4.14,8.41-7.42,0,0,14.21,2.78,6-8.84,0,0,9.63-2.13,2-9.86,0,0,8.78-2.79,1-10.09,0,0,5.53-5.29-.52-9.27,0,0,4.46-5.43-1.34-9.43a52.37,52.37,0,0,0-2.88,6.09c-.49,1.23-.92,2.54-1.38,3.92-.39,1.16-.78,2.34-1.22,3.51-1,2.8-2,5.22-3,7.37-1.22,2.71-2.26,4.83-3.28,6.67-1.19,2.24-2.45,4.23-3.41,5.71l-3.33,4.53a43.6,43.6,0,0,1-3,3.26,20.94,20.94,0,0,1-1.66,1.55l-1.1,1a1.07,1.07,0,0,1-1.52-1.5l1-1.13a18.42,18.42,0,0,0,1.28-1.62c.72-.93,1.46-2.1,2.29-3.42l1.22-2.19,1.23-2.48c.68-1.49,1.57-3.53,2.36-5.76.68-1.86,1.35-4,2.1-6.68.6-2.13,1.16-4.51,1.73-7.27.23-1.08.42-2.19.61-3.32.25-1.48.52-3,.88-4.6a59.32,59.32,0,0,1,1.85-6.35,10,10,0,0,0-5.27.8s-4.34,1.2-2.1,5.45c0,0-6.75.39-4.8,6.92,0,0-9.16.35-5,5.91,0,0-8.73-.4-5.76,7.26C1468.42,2066.44,1458.2,2066.3,1462.15,2073.69Z" transform="translate(-757.75 -211.63)"/><path class="cls-1" d="M1959.57,497.76l-3.16,2.14c-1.23.81-2.47,1.91-3.91,3a55.12,55.12,0,0,0-4.5,3.75l-2.37,2.16a32.92,32.92,0,0,0-2.41,2.33l-2.4,2.5a35.21,35.21,0,0,0-2.38,2.64c-1.52,1.84-3.18,3.64-4.58,5.62l-2.18,2.93c-.71,1-1.35,2-2,3-1.37,2-2.54,4-3.69,6s-2.14,3.95-3.1,5.81l-.75,1.59-.38-3,0-.25c-.39-2.2-.82-4.26-1.28-6.35s-1-4.16-1.5-6.22-1.11-4.1-1.68-6.15-1.24-4.06-1.85-6.09-1.36-4-2-6-1.44-4-2.2-6-1.51-3.95-2.37-5.88-1.62-3.9-2.54-5.8l-2.75-5.71c-.94-1.89-2-3.72-3-5.58l-1.52-2.78-1.67-2.69c-1.13-1.78-2.16-3.62-3.38-5.34l-3.67-5.15a29.15,29.15,0,0,0-1.94-2.49l-2-2.44a53.41,53.41,0,0,0-4.18-4.72l-4.43-4.51,4.09,4.79a52.54,52.54,0,0,1,3.83,5l1.82,2.54a26.76,26.76,0,0,1,1.74,2.6l3.27,5.33c1.08,1.77,2,3.66,3,5.49l1.45,2.76,1.31,2.83c.85,1.9,1.76,3.76,2.56,5.68l2.3,5.8c.78,1.92,1.4,3.91,2.1,5.86s1.33,3.94,1.93,5.93,1.24,4,1.75,6,1.12,4,1.57,6,1,4,1.4,6.08.87,4.06,1.22,6.11.72,4.08,1,6.13.58,4,.78,6l.34,6,.18,3.06c.11,1,.26,2,.39,3l.73,5.4-.08.32.13,0,0,.32,1.22,6c.22,1,.41,2,.64,3l.8,2.93c.56,1.95,1,3.93,1.67,5.86l0,.11c-1.57-.51-3.31-.9-5.1-1.38-1.95-.36-4-.88-6.1-1.13l-3.23-.44c-1.1-.12-2.22-.18-3.34-.27-2.24-.23-4.54-.18-6.81-.2a32.29,32.29,0,0,0-3.41.12l-3.38.23c-2.22.19-4.4.59-6.5.86s-4.09.87-6,1.26-3.63,1-5.25,1.48-3.1.88-4.36,1.44l-3.29,1.3-2.85,1.14,3-.72,3.4-.83c1.3-.37,2.82-.51,4.45-.79a51.34,51.34,0,0,1,5.25-.71c1.88-.12,3.84-.35,5.87-.39s4.12,0,6.22.06l3.17.25a28.17,28.17,0,0,1,3.17.34c2.09.33,4.19.58,6.19,1.09,1,.23,2,.43,3,.68l2.85.83c1.88.5,3.61,1.25,5.28,1.81s3.17,1.28,4.52,2,2.6,1.29,3.66,1.89,2,1.15,2.66,1.6,1.26.84,1.53,1.06l.06,0,.61,1.53,1.26,2.76c.87,1.83,1.64,3.71,2.59,5.5l2.79,5.4,3,5.3,3.19,5.18c1.13,1.69,2.22,3.41,3.4,5.08s2.35,3.34,3.6,5c.49.68,1,1.35,1.56,2l12.15-6.36c-.53-.55-1-1-1.51-1.61s-1.26-1.37-1.87-2.09c-1.24-1.41-2.44-2.88-3.63-4.35s-2.32-3-3.48-4.5l-3.32-4.64-3.15-4.77-3-4.88c-1-1.62-1.85-3.32-2.78-5l-1.37-2.51-1.24-2.57c-.8-1.73-1.73-3.4-2.43-5.18l-2.21-5.27c-.71-1.77-1.28-3.58-1.93-5.38l-1-2.7-.78-2.75-.87-3.09c0-.13,0-.32.08-.58,0-.44.17-1.16.33-2.11s.41-2.09.72-3.4.68-2.81,1.17-4.43,1.06-3.35,1.67-5.2,1.38-3.77,2.25-5.73,1.73-4,2.8-6c.53-1,1-2,1.58-3l1.74-3c1.11-2,2.49-3.91,3.74-5.84a33.2,33.2,0,0,1,2-2.78l2-2.66a30.36,30.36,0,0,1,2.07-2.51l2.06-2.35a54.81,54.81,0,0,1,4-4.14c1.29-1.24,2.39-2.46,3.51-3.39l2.87-2.45,2.51-2.14Z" transform="translate(-757.75 -211.63)"/><path class="cls-1" d="M1867.09,468.81c-2.68,8.19,7.79,5.75,7.79,5.75-1.62,8.23,7.28,5.86,7.28,5.86-3.23,6.43,6.25,4.71,6.25,4.71-.78,6.88,6.22,5.74,6.22,5.74-1.5,4.71,3.17,4.92,3.17,4.92a11.17,11.17,0,0,0,5.68-.44c0-.11-.07-.21-.11-.32-.42-1.23-.86-2.51-1.35-3.72l-2.31-5.8c-.5-1.21-1-2.41-1.61-3.61l-.93-2-1.3-2.83-1.43-2.71c-.35-.64-.69-1.3-1-2-.6-1.16-1.22-2.36-1.9-3.47l-3.26-5.33a28.29,28.29,0,0,0-1.69-2.52l-2.15-3a44.61,44.61,0,0,0-3.44-4.44l-4.11-4.82a1.07,1.07,0,0,1,.15-1.5,1.15,1.15,0,0,1,1.55,0l4.42,4.51a47.44,47.44,0,0,1,3.91,4.38l2.35,2.84a30.27,30.27,0,0,1,2,2.58l3.65,5.12c.81,1.15,1.54,2.34,2.25,3.5.38.63.77,1.26,1.17,1.88l1.67,2.71,1.55,2.82c.35.66.71,1.3,1.06,1.95.67,1.21,1.33,2.43,2,3.66l2.75,5.72c.61,1.26,1.16,2.55,1.69,3.8l0,.1c1.51-.85,2.5-1.55,2.5-1.55,6.56-5.59.39-10.36.39-10.36,5.47-5.29-1.21-9.26-1.21-9.26,6.67-9-2.86-9.74-2.86-9.74,6.34-9.34-3.95-9.28-3.95-9.28,6.25-13.32-7.81-7.37-7.81-7.37,6.35-13.28-10-5.43-10-5.43.86-12.42-11.88-3.85-11.88-3.85-.81-9.73-11.67-1.49-11.67-1.49-12-1.51-7.56,9.48-7.56,9.48-6.9,8.48,3,8.79,3,8.79-2.68,5.89,4.85,7.48,4.85,7.48C1856.1,471.12,1867.09,468.81,1867.09,468.81Z" transform="translate(-757.75 -211.63)"/><path class="cls-1" d="M1896.93,577.84l-1.33-.2a26.76,26.76,0,0,0-3.07-.33l-3.18-.25c-1.29-.07-2.63-.06-3.93-.06h-2.22c-1.23,0-2.5.13-3.72.23-.69.06-1.38.12-2,.16a27.38,27.38,0,0,0-3.51.43l-1.67.27-1.58.25a21.54,21.54,0,0,0-2.69.51l-6.43,1.56a1.07,1.07,0,0,1-1.3-.71,1.1,1.1,0,0,1,.69-1.34l6.14-2.44a24.82,24.82,0,0,1,2.88-1l1.56-.48,1.62-.5a30.11,30.11,0,0,1,3.78-1l1.95-.43c1.31-.3,2.65-.61,4.06-.84l2.21-.31c1.42-.21,2.89-.43,4.38-.56l3.4-.22a30.29,30.29,0,0,1,3.52-.13h1.28c1.43,0,2.9,0,4.36.12,0-.1,0-.17,0-.17-1.63-8.06-9.16-4.93-9.16-4.93-1.93-7-9-3.08-9-3.08-4.65-9.65-10.3-1.89-10.3-1.89-5.14-9.53-10.44-.76-10.44-.76-8.79-11.22-10.73,3.37-10.73,3.37-8.7-11.29-10.13,6.12-10.13,6.12-10.77-6.25-9.67,8.39-9.67,8.39-9.2-3.63-7.42,9.26-7.42,9.26-7.58,9.5,4.64,10.65,4.64,10.65,4.07,9.63,9.48,1.38,9.48,1.38,3.93,4.9,9.29-.81,9.29-.81,6.3,10.46,9.93.09,9.93.09,6,5.9,9.25-4.08,9.25-4.08,6.6,5,9.09-3.59,9.09-3.59,4.13,5.6,7.51-3.23,7.51-3.23,5.82,3.72,8.43-2.74,8.43-2.74,3.48,3.36,6.1-.52,6.1-.52a11,11,0,0,0,2.63-5.36C1900.07,578.31,1898.54,578.08,1896.93,577.84Z" transform="translate(-757.75 -211.63)"/><path class="cls-1" d="M1985.3,473.93s-9.58-8.81-11.84.83c0,0-11.4-9.25-12.4,3.16,0,0-15.13-8.74-10.8,4.84,0,0-13.11-6.71-8.89,6.9,0,0-10.22-.64-5.31,9,0,0-9.61.23-4.32,9.55,0,0-7.24,3.57-2.59,9.14,0,0-6.86,4.41-1.17,10.34l.31.26c.16-.23.29-.47.45-.7s.46-.68.68-1c.44-.67.88-1.34,1.35-2l2.2-2.93c1-1.41,2.12-2.74,3.22-4l1.39-1.65a35.64,35.64,0,0,1,2.45-2.7l2.39-2.5a33.65,33.65,0,0,1,2.48-2.39l2.35-2.15a47.88,47.88,0,0,1,3.84-3.24l.72-.57c.53-.4,1-.78,1.47-1.16a31.21,31.21,0,0,1,2.54-1.91l5.87-4a1.15,1.15,0,0,1,1.51.2,1.07,1.07,0,0,1-.18,1.48l-5.38,4.59c-.69.57-1.39,1.27-2.13,2-.42.43-.87.87-1.33,1.32l-.64.63a46.44,46.44,0,0,0-3.24,3.42l-2.07,2.37a28,28,0,0,0-2,2.42l-2,2.69c-.76,1-1.38,1.81-1.94,2.69-.39.61-.78,1.19-1.18,1.78-.87,1.29-1.77,2.63-2.52,4l-1.76,3c-.34.61-.66,1.25-1,1.89l-.57,1.11c-.2.38-.38.78-.58,1.17a11.39,11.39,0,0,0,6.32,1.06s4.68.05,3.89-4.72c0,0,6.81,1.53,7.06-5.37,0,0,9.18,2.25,6.93-4.33,0,0,8.5,2.86,8.13-5.42,0,0,10.06,3,8.62-5.28,0,0,10.59,2.92,5.59-8.22,0,0,7.74-1.15,6-7.18,0,0,9.86.26,4.27-8.57C1991.41,483.81,1997.42,473.11,1985.3,473.93Z" transform="translate(-757.75 -211.63)"/><path class="cls-1" d="M1898,2373l3.8.27c1.47.13,3.13,0,4.94.07s3.79,0,5.86-.17l3.19-.22c1.1-.07,2.22-.16,3.34-.34l3.43-.48c1.16-.15,2.34-.32,3.5-.59,2.33-.51,4.76-.89,7.08-1.59l3.53-.94c1.16-.33,2.3-.74,3.44-1.11,2.3-.7,4.48-1.58,6.61-2.41s4.12-1.79,6-2.65l1.57-.78-1.56,2.59-.14.21c-1.06,2-2,3.85-2.93,5.79s-1.82,3.86-2.67,5.81-1.67,3.91-2.49,5.86-1.54,4-2.32,5.93-1.42,4-2.14,6-1.33,4-2,6-1.26,4-1.78,6.09-1.15,4.07-1.6,6.13l-1.37,6.19c-.44,2.06-.74,4.16-1.11,6.23l-.52,3.12-.36,3.15c-.21,2.1-.54,4.18-.65,6.29l-.31,6.31a27.75,27.75,0,0,0,0,3.16l.07,3.16a53,53,0,0,0,.37,6.3l.68,6.28-.25-6.29a50.46,50.46,0,0,1,.08-6.27l.14-3.13a25.21,25.21,0,0,1,.24-3.12l.73-6.2c.25-2.07.72-4.1,1.07-6.15l.57-3.07.73-3c.51-2,.94-4.05,1.51-6.05l1.77-6c.59-2,1.33-3.94,2-5.91s1.39-3.92,2.16-5.85,1.48-3.88,2.33-5.78,1.59-3.83,2.5-5.71,1.72-3.78,2.66-5.63,1.84-3.73,2.83-5.55,2-3.66,3-5.47,2-3.52,3.07-5.16l3.44-4.91,1.76-2.51c.54-.87,1-1.75,1.57-2.62l2.77-4.69.26-.21-.09-.09.17-.28,2.73-5.44c.45-.91.92-1.82,1.35-2.74l1.18-2.8c.77-1.87,1.62-3.73,2.33-5.63l0-.11c.91,1.37,2,2.75,3.15,4.24,1.31,1.49,2.56,3.14,4.09,4.67l2.27,2.35c.78.77,1.63,1.51,2.45,2.27,1.62,1.57,3.45,2.95,5.22,4.38a31.86,31.86,0,0,0,2.76,2l2.79,1.92c1.87,1.22,3.82,2.26,5.64,3.35s3.75,1.85,5.48,2.71,3.49,1.45,5,2.09,3,1.24,4.32,1.58l3.39,1,2.94.88-2.79-1.28-3.18-1.46c-1.24-.51-2.52-1.35-4-2.13a51.59,51.59,0,0,1-4.56-2.7c-1.55-1.06-3.23-2.09-4.85-3.32s-3.27-2.51-4.85-3.91l-2.33-2.15a30,30,0,0,1-2.28-2.23c-1.44-1.55-2.93-3.05-4.19-4.69-.65-.81-1.31-1.58-1.92-2.39l-1.73-2.41c-1.16-1.56-2.06-3.21-3-4.69s-1.7-3-2.32-4.36-1.24-2.63-1.7-3.75-.82-2.11-1.1-2.91-.47-1.43-.55-1.78l0-.07.47-1.58.72-2.94c.45-2,1-3.93,1.37-5.92l1.16-6,.93-6,.7-6.05c.16-2,.37-4,.49-6.08s.22-4.08.25-6.14c0-.84,0-1.7,0-2.55l-13.48-2.53c.08.76.14,1.38.19,2.2s.14,1.85.17,2.8c.11,1.88.14,3.77.16,5.66s0,3.8-.05,5.7l-.27,5.7-.48,5.69-.69,5.67c-.21,1.89-.61,3.75-.9,5.64l-.49,2.81-.62,2.79c-.44,1.85-.75,3.75-1.3,5.57l-1.53,5.51c-.53,1.83-1.21,3.61-1.81,5.42l-.92,2.71-1.09,2.65-1.24,2.95-.42.42c-.31.31-.85.8-1.57,1.44s-1.61,1.39-2.67,2.23-2.27,1.78-3.66,2.75-2.91,2-4.53,3-3.42,2.1-5.31,3.11-3.84,2.07-5.92,3c-1,.47-2.06,1-3.12,1.42l-3.22,1.27c-2.14.91-4.38,1.53-6.56,2.27a33,33,0,0,1-3.28,1l-3.25.83a30.49,30.49,0,0,1-3.17.69l-3.07.57a55.63,55.63,0,0,1-5.68.8c-1.78.17-3.4.45-4.85.48l-3.77.15-3.3.13Z" transform="translate(-757.75 -211.63)"/><path class="cls-1" d="M1952.64,2453c7.17-4.77-2.56-9.34-2.56-9.34,6.37-5.46-2.09-9.11-2.09-9.11,6.52-3.05-2-7.56-2-7.56,4.88-4.93-1.33-8.37-1.33-8.37,4.1-2.76.56-5.82.56-5.82a11,11,0,0,0-4.74-3.17c0,.1-.07.21-.11.31-.43,1.23-.87,2.5-1.24,3.76l-1.78,6c-.35,1.26-.66,2.55-1,3.84-.17.72-.35,1.44-.53,2.17l-.72,3-.56,3c-.12.72-.26,1.46-.4,2.19-.25,1.28-.5,2.6-.66,3.9l-.74,6.2a27.46,27.46,0,0,0-.23,3l-.17,3.68a47.88,47.88,0,0,0-.05,5.62l.25,6.32a1.07,1.07,0,0,1-1,1.09,1.13,1.13,0,0,1-1.2-1l-.68-6.28a48.38,48.38,0,0,1-.36-5.86l-.09-3.69a29.94,29.94,0,0,1,0-3.26l.31-6.28c.07-1.41.23-2.8.4-4.15.09-.73.17-1.46.25-2.19l.36-3.16.53-3.18c.13-.73.25-1.46.37-2.19.23-1.36.46-2.73.74-4.08l1.38-6.2c.3-1.36.67-2.71,1-4l0-.11c-1.71-.26-2.93-.33-2.93-.33-8.61.33-6.72,7.9-6.72,7.9-7.57.77-4.78,8-4.78,8-10.79,2.92-3.79,9.43-3.79,9.43-10.75,3.4-2.64,9.72-2.64,9.72-13.15,6.59,1.57,10.63,1.57,10.63-13.21,6.5,4.5,10.47,4.5,10.47-8.36,9.22,6.94,10.38,6.94,10.38-5.38,8.13,8.24,8.39,8.24,8.39,8.45,8.58,11.81-2.76,11.81-2.76,10.67-2.39,3.12-8.73,3.12-8.73,5.76-3,.82-8.88.82-8.88C1962.7,2458,1952.64,2453,1952.64,2453Z" transform="translate(-757.75 -211.63)"/><path class="cls-1" d="M1996.72,2349l.92,1a28.57,28.57,0,0,0,2.21,2.16l2.34,2.16c1,.86,2,1.69,3,2.48l1.74,1.38c1,.75,2,1.45,3.07,2.12l1.71,1.15a27.62,27.62,0,0,0,3,1.83c.5.28,1,.55,1.47.83s.94.52,1.4.78a23,23,0,0,0,2.43,1.27l6,2.75a1.06,1.06,0,0,1,.58,1.36,1.1,1.1,0,0,1-1.37.63l-6.33-1.89a23.64,23.64,0,0,1-2.87-1c-.49-.2-1-.4-1.52-.59s-1-.41-1.58-.61a31.13,31.13,0,0,1-3.6-1.54c-.57-.29-1.18-.58-1.8-.87-1.21-.57-2.46-1.17-3.71-1.86-.65-.39-1.28-.75-1.92-1.12-1.25-.71-2.53-1.45-3.79-2.28l-2.81-1.92a32.1,32.1,0,0,1-2.84-2.09l-1-.79c-1.13-.89-2.26-1.82-3.35-2.8a1.1,1.1,0,0,1-.09.14c-3.71,7.35,4.14,9.55,4.14,9.55-2.81,6.69,5.16,8,5.16,8-2.33,10.45,6.92,7.86,6.92,7.86-1.88,10.67,7.72,7.06,7.72,7.06,0,14.25,10.52,4,10.52,4-.17,14.25,11.73,1.47,11.73,1.47,4.6,11.57,12.79-.61,12.79-.61,5,8.55,11.56-2.67,11.56-2.67,11.84-2.77,2.95-11.23,2.95-11.23,2.77-10.09-6.58-7-6.58-7-.06-6.28-7.8-5.12-7.8-5.12,1.53-12.11-7.75-6.22-7.75-6.22-1-8.35-9.78-2.52-9.78-2.52-2.07-8-9.36-2.81-9.36-2.81.22-6.95-7.9-2.12-7.9-2.12-2.26-6.52-8.32-3.06-8.32-3.06-.64-4.8-5.1-3.37-5.1-3.37a11,11,0,0,0-5.39,2.58C1994.55,2346.64,1995.6,2347.76,1996.72,2349Z" transform="translate(-757.75 -211.63)"/><path class="cls-1" d="M1863,2375.81s2.06,12.85,9.81,6.69c0,0,3.22,14.32,11.7,5.19,0,0,6.46,16.23,11.47,2.89,0,0,6.13,13.39,11.25.09,0,0,7.63,6.83,9.76-3.79,0,0,7.68,5.77,9.3-4.82,0,0,7.89,1.68,7.69-5.58,0,0,8.12.79,7.32-7.39l-.08-.4c-.27.09-.52.19-.79.27l-1.17.39c-.76.25-1.52.5-2.29.72l-3.54,1c-1.65.49-3.37.83-5,1.16l-2.11.43c-1.2.28-2.44.46-3.6.61l-3.42.48a33.43,33.43,0,0,1-3.42.34l-3.19.23a47.83,47.83,0,0,1-5,.17h-2.8c-1.11,0-2.17,0-3.17-.07l-7.07-.52a1.14,1.14,0,0,1-1.07-1.08,1.07,1.07,0,0,1,1.06-1.05l7.07-.28c.89,0,1.88-.14,2.91-.26l1.87-.22.89-.09c1.51-.17,3.06-.34,4.66-.68l3.1-.58a29.23,29.23,0,0,0,3.07-.67l3.27-.84a30.32,30.32,0,0,0,3.19-.91l2-.67a47.24,47.24,0,0,0,4.46-1.58l3.25-1.28c.65-.27,1.3-.58,2-.88l1.12-.52c.41-.17.79-.37,1.19-.56a11.41,11.41,0,0,0-4.31-4.74s-3.64-2.95-6,1.29c0,0-4.39-5.42-8.86-.16,0,0-5.81-7.45-8.13-.89,0,0-4.9-7.51-9.74-.77,0,0-6-8.6-10-1.19,0,0-6.51-8.86-9.48,3,0,0-6.79-3.89-9.12,1.94,0,0-7.59-6.3-8.66,4.1C1864.31,2364.28,1853,2369,1863,2375.81Z" transform="translate(-757.75 -211.63)"/><path class="cls-1" d="M900.26,1371.34c2-.77,3.86-1.35,5.5-1.87s3.1-.88,4.28-1.18,2.11-.49,2.68-.59l.28,0,1.71.38,2.56.59,2.43.62c1.61.42,3.21.79,4.78,1.23l4.63,1.46c1.53.45,3,1,4.47,1.57s2.92,1.06,4.33,1.64a156.06,156.06,0,0,1,15.5,7.41c2.35,1.25,4.53,2.59,6.62,3.81s4,2.49,5.78,3.73c3.61,2.38,6.6,4.66,9.05,6.52s4.27,3.45,5.46,4.52l.35.31,5.32-11.93c-1.11-.82-2.38-1.74-3.85-2.78-2.77-1.88-6.11-4.15-10.11-6.49-2-1.21-4.15-2.37-6.41-3.64s-4.7-2.48-7.28-3.69c-1.78-.86-3.66-1.7-5.59-2.53l-.1-.11c-.38-.34-1-1-1.77-1.81s-1.7-1.87-2.71-3.14l-1.62-2-1.71-2.3c-1.22-1.59-2.37-3.45-3.66-5.36s-2.53-4-3.66-6.31l-1.81-3.41-1.65-3.61c-1.19-2.4-2.07-5-3.07-7.51-.53-1.27-.91-2.58-1.32-3.87s-.81-2.6-1.22-3.89c-.73-2.59-1.28-5.19-1.91-7.7s-.87-5-1.29-7.33c-.09-.59-.19-1.17-.29-1.74s-.11-1.14-.16-1.69c-.11-1.12-.21-2.19-.3-3.23-.16-2.06-.46-4-.42-5.66s-.06-3.17-.08-4.38c0-2.44-.07-3.84-.07-3.84s-.13,1.39-.36,3.82c-.11,1.21-.25,2.69-.41,4.39s-.14,3.62-.22,5.73c0,1,0,2.15-.06,3.28,0,.57,0,1.15,0,1.74s.07,1.18.1,1.78c.16,2.41.21,5,.47,7.61s.62,5.36,1.07,8.11c.27,1.37.54,2.76.81,4.15s.51,2.79.91,4.16c.75,2.74,1.37,5.54,2.32,8.19.45,1.34.88,2.67,1.32,4s1,2.56,1.5,3.82c.93,2.53,2.13,4.85,3.13,7.12.95,1.83,1.81,3.6,2.72,5.22l-.56-.18c-1.59-.5-3.2-1-4.87-1.41l-5-1.29c-1.71-.38-3.45-.69-5.19-1l-2.63-.52-2.56-.44-5.2-.88c-3.45-.64-7-1.21-10.47-1.93s-7.07-1.39-10.6-2.18-7.09-1.62-10.62-2.47-7-1.86-10.54-2.78c-1-.28-2-.58-3-.88l-1.38-1.1c-1.2-1-2.9-2.45-4.85-4.3A88.45,88.45,0,0,1,847,1328.08c-1-1.51-1.92-3-2.77-4.62a51.91,51.91,0,0,1-2.28-4.7c-.35-.77-.66-1.55-.94-2.32s-.55-1.52-.78-2.26-.47-1.47-.64-2.18-.37-1.4-.49-2.07c-.3-1.34-.47-2.58-.62-3.69s-.17-2.08-.24-2.88l0-2.52-.22,2.52c0,.81-.06,1.79,0,2.92s.09,2.4.27,3.79c.05.7.17,1.41.3,2.16s.25,1.51.43,2.29.35,1.59.58,2.4.45,1.64.73,2.48c.52,1.67,1.17,3.37,1.89,5.07s1.53,3.39,2.39,5.06a90.88,90.88,0,0,0,10.62,15.65l-6.62-2.27-9.67-3.77-9.2-4.06-8.61-4.31c-5.46-3-10.63-6-15.13-9.08l-3.35-2.21c-1.07-.76-2.07-1.56-3.07-2.31l-5.64-4.29c-3.32-3-6.29-5.49-8.6-7.71l-7-7.27,6.59,7.66c2.2,2.35,5,5,8.22,8.21l5.45,4.64c1,.81,1.94,1.67,3,2.5l3.27,2.42c4.38,3.4,9.43,6.64,14.82,10,2.76,1.58,5.59,3.21,8.49,4.86l9.12,4.63,9.63,4.38,10,4.06c3.43,1.23,6.86,2.55,10.35,3.74s7,2.38,10.56,3.41,7.09,2.15,10.65,3.09c3.37,1,6.75,1.83,10.11,2.67l-1.06.51c-2.09.93-4.24,2.15-6.55,3.37-1.14.62-2.27,1.35-3.45,2s-2.38,1.39-3.53,2.22c-2.34,1.61-4.78,3.22-7.08,5.11-1.16.92-2.37,1.8-3.51,2.78l-3.36,3-1.68,1.5c-.55.51-1,1.07-1.58,1.6l-3.1,3.2a38.75,38.75,0,0,0-2.9,3.27l-2.72,3.28a35.87,35.87,0,0,0-2.48,3.29l-2.26,3.22a61.89,61.89,0,0,0-3.82,6.09l-1.61,2.75a24.3,24.3,0,0,0-1.36,2.53c-.77,1.63-1.44,3-2,4.22l-1.74,3.66s.76-1.27,2.07-3.49l2.36-4a21.53,21.53,0,0,1,1.57-2.37l1.83-2.57a63.22,63.22,0,0,1,4.28-5.64c.82-1,1.65-1.93,2.5-2.94a34,34,0,0,1,2.7-3l2.93-2.94a37.12,37.12,0,0,1,3.09-2.91l3.27-2.81c.55-.46,1.07-1,1.65-1.4l1.74-1.29,3.47-2.57c1.17-.85,2.41-1.57,3.59-2.35,2.34-1.6,4.8-2.92,7.15-4.23,1.15-.68,2.37-1.22,3.52-1.8s2.29-1.14,3.42-1.63C896.13,1373,898.24,1372,900.26,1371.34Z" transform="translate(-757.75 -211.63)"/><path class="cls-1" d="M820.53,1291.45s-13.27,5.8.09,10.69c0,0-6.69,7.23,3.94,9.27,0,0-5.63,7.28,5,8.84,0,0-1.54,7.49,5.7,7.32,0,0-.66,7.7,7.5,7a29.64,29.64,0,0,0,2.94-.75c-.72-1.21-1.43-2.46-2.11-3.76-1-2-1.78-3.59-2.43-5.14-.83-2-1.44-3.62-1.92-5.17-.27-.8-.53-1.66-.75-2.53s-.4-1.54-.59-2.45-.33-1.58-.44-2.35l0-.17c-.11-.71-.23-1.39-.28-2.06-.18-1.4-.22-2.75-.26-3.83,0-.78,0-1.48,0-2.11,0-.31,0-.59,0-.86l.23-2.61a1.07,1.07,0,0,1,2.13.09l0,2.52c0,.19,0,.49.06.8,0,.59.09,1.25.17,2,.13,1,.3,2.26.6,3.57.11.63.27,1.23.44,1.85l0,.18c.18.71.38,1.41.62,2.12s.5,1.55.77,2.21.59,1.56.91,2.28c.59,1.4,1.3,2.86,2.25,4.62.74,1.37,1.61,2.82,2.73,4.55.94,1.44,1.92,2.81,2.91,4.11a10.14,10.14,0,0,0,3.93-3.68s2.88-3.45-1.38-5.68c0,0,5.33-4.16,0-8.42,0,0,7.33-5.5.75-7.71,0,0,7.41-4.64.61-9.25,0,0,8.48-5.7,1-9.53,0,0,8.73-6.16-3.14-9,0,0,3.77-6.44-2.09-8.67,0,0,6.17-7.18-4.23-8.22,0,0-4.85-10.79-11.53-1.28,0,0-12.79,1.93-6.51,9.3,0,0-14.24,3-5,11.09C823.22,1280.56,807.13,1286.67,820.53,1291.45Z" transform="translate(-757.75 -211.63)"/><path class="cls-1" d="M794,1328s3.32,6.9,9,2.37c0,0,4.15,6.52,10.18,1,0,0,.19-.21.49-.57-3.32-2.15-6.59-4.37-9.51-6.64l-3.25-2.4c-.71-.57-1.36-1.13-2-1.68l-1-.86-5.45-4.65-3.2-3.15c-2-1.92-3.65-3.58-5.11-5.14l-6.62-7.69a1.07,1.07,0,0,1,1.58-1.44l7,7.27c1.46,1.4,3.2,2.93,5.22,4.71q1.59,1.39,3.32,2.94l5.58,4.24,1.07.81c.64.5,1.29,1,2,1.48l3.32,2.19c3,2.11,6.39,4.12,9.86,6.1,1.42-2.4,2.69-5.39,2.28-8,0,0,.19-4.49-4.55-3.67,0,0,1.71-6.55-5.1-6.7,0,0,2.49-8.83-4.08-6.59,0,0,3.07-8.19-5.13-7.72,0,0,3.28-9.68-5-8.19,0,0,3.2-10.2-8-5.25,0,0-.91-7.41-6.92-5.62,0,0,.54-9.46-8.36-4,0,0-10.4-5.63-9.94,6,0,0-9,9.3.47,11.35,0,0-9.47,11,2.77,11.85,0,0-9.08,14.61,4.47,10.28,0,0-7,12.66,6.56,8.43,0,0-.93,9.82,8.76,5C784.64,1324,784.58,1333.23,794,1328Z" transform="translate(-757.75 -211.63)"/><path class="cls-1" d="M921.55,1266.24s-12.89,1-7.13,8.83c0,0-14.42,2-5.74,10.73,0,0-16.47,5-3.43,10.68,0,0-13.63,4.87-.63,10.66,0,0-7.18,6.76,3.29,9.52,0,0-6.11,6.88,4.35,9.16,0,0-2.06,7.37,5.18,7.69,0,0-1.18,7.64,7,7.46,0,0,.72-.08,1.82-.3-.17-.65-.35-1.29-.51-1.93s-.38-1.47-.58-2.2c-.33-1.13-.55-2.3-.77-3.43l-1-4.95c-.31-1.85-.53-3.67-.74-5.43-.12-.93-.23-1.84-.35-2.75-.18-1.78-.26-3.48-.34-5.13,0-.87-.08-1.72-.14-2.55l-.09-1.79c0-.44,0-.84,0-1.23l.07-3.87c0-.72,0-1.41,0-2.06a32.58,32.58,0,0,1,.19-3.79l.77-8.17a1.07,1.07,0,0,1,2.13.08l.15,8.22a28,28,0,0,0,.22,3.54c.07.67.14,1.35.19,2.06l.36,3.81c0,.35.06.7.1,1.05l.29,1.7c.15.82.28,1.68.42,2.55.25,1.54.51,3.14.86,4.74.21.85.42,1.76.64,2.67.38,1.63.78,3.31,1.25,5l1.46,4.65c.32,1,.63,2,1,3,.29.73.56,1.43.83,2.14s.43,1.11.64,1.66a9.39,9.39,0,0,0,3.41-3s3.11-3.25-1-5.77c0,0,5.6-3.78.58-8.4,0,0,7.7-5,1.28-7.64,0,0,7.72-4.12,1.24-9.18,0,0,8.86-5.11,1.68-9.44,0,0,9.13-5.55-2.52-9.2,0,0,4.2-6.16-1.49-8.78,0,0,6.64-6.75-3.66-8.5C933,1268.3,928.87,1257.21,921.55,1266.24Z" transform="translate(-757.75 -211.63)"/><path class="cls-1" d="M876.81,1384.8l-5.2,3.86c-.35.26-.68.55-1,.85l-.6.51-3.25,2.8a33.81,33.81,0,0,0-2.82,2.64l-3.14,3.15a30.69,30.69,0,0,0-2.46,2.69l-2.68,3.17a41.77,41.77,0,0,0-3.31,4.28l-.92,1.29-1.83,2.56a18,18,0,0,0-1.5,2.27l-4.45,7.51a1.07,1.07,0,0,1-1.42.4,1.1,1.1,0,0,1-.46-1.4l3.74-7.88h0a25,25,0,0,1,1.41-2.61l1.6-2.74.8-1.36a44.72,44.72,0,0,1,3.08-4.84l2.42-3.44a35,35,0,0,1,2.38-3.13l2.89-3.48a36.8,36.8,0,0,1,2.79-3.13l3.08-3.18.54-.55c.35-.37.71-.74,1.08-1.09l5-4.51c.36-.31.73-.59,1.1-.88-6.27-5.13-10.07,1.54-10.07,1.54-5.87-4.24-8.84,2.81-8.84,2.81-9.61-4.71-9.09,4.48-9.09,4.48-9.92-4.35-8.5,5.41-8.5,5.41-13.78-3.54-6.13,8.75-6.13,8.75-13.75-3.64-3.94,10.5-3.94,10.5-12.19,1.41-2.17,12-2.17,12-9.34,2.52.1,11.36.1,11.36.13,11.62,10.23,5.47,10.23,5.47,9.17,5,8.15-4.39,8.15-4.39,6.09,1.49,6.63-6,6.63-6,11.39,4.37,7.68-5.65,7.68-5.65,8.32,1.07,4.55-8.43,4.55-8.43,8.22,0,4.73-8,4.73-8,6.69,1.91,3.75-6.79,3.75-6.79,6.8-.49,4.76-6.94,4.76-6.94,4.78.58,4.36-3.9,4.36-3.9.23-2.24-.74-4.67-2-6.77C877.57,1384.3,877.18,1384.53,876.81,1384.8Z" transform="translate(-757.75 -211.63)"/><path class="cls-1" d="M1003.2,1763.74l3.54,2.12c1.36.85,3,1.6,4.73,2.53s3.63,1.95,5.71,2.83,4.23,2,6.54,2.87,4.68,1.89,7.16,2.71l3.75,1.24c1.26.43,2.53.83,3.82,1.16,2.56.72,5.13,1.47,7.71,2,1.28.29,2.55.61,3.82.87l3.77.71c2.47.5,4.9.76,7.19,1.12s4.49.54,6.53.67l1.58.11-2.12,3.26c-1.07,1.79-2.1,3.66-3.17,5.52l-1.6,2.83-1.44,3c-1,2-2,4-2.89,6.06a128.77,128.77,0,0,0-4.75,13c-.34,1.13-.69,2.26-1,3.4l-.52,1.7-.42,1.59c-.58,2.11-1.24,4.24-1.95,6.39-.79,2.35-1.65,4.75-2.53,7.16l0,0c-.38.25-1.17.66-2.13,1.18s-2.2,1.11-3.67,1.7-3.13,1.26-5,1.93c-.92.35-1.92.61-2.93.94s-2.07.65-3.18.9l-3.41.84c-1.17.26-2.38.46-3.61.69-2.44.53-5,.74-7.65,1.09s-5.32.34-8,.51c-2.7-.06-5.41,0-8.08-.14s-5.29-.38-7.83-.65l-7.31-1.09c-2.32-.4-4.47-1-6.49-1.38a55.92,55.92,0,0,1-5.46-1.35l-4.17-1.23-3.64-1.07,3.49,1.47,4,1.7c1.54.71,3.35,1.31,5.32,2s4.09,1.46,6.39,2.13l7.29,2c2.56.57,5.23,1,7.95,1.58s5.53.71,8.33,1.08c2.81.15,5.64.39,8.44.42s5.56,0,8.22-.23c1.34-.1,2.66-.16,3.94-.3l3.77-.49c1.23-.13,2.41-.37,3.56-.59s2.26-.39,3.32-.65c1.39-.34,2.7-.66,3.93-1-2.72,6.78-5.61,13.56-8.69,20.26l-.31.67h0v0c-4.73,10.26-9.85,20.34-15.31,29.94-.5.12-1.16.26-2,.43s-2.28.41-3.72.66-3.08.48-4.89.63l-2.81.29-3,.19c-2.08.18-4.27.14-6.54.2s-4.62-.07-7-.23-4.81-.32-7.2-.74l-3.61-.52c-1.19-.2-2.36-.49-3.53-.73s-2.34-.48-3.49-.76l-3.33-1c-1.1-.33-2.19-.61-3.23-1l-3-1.15-2.86-1.1c-.92-.37-1.76-.83-2.59-1.22-1.64-.82-3.18-1.53-4.5-2.23l-3.3-2-2.89-1.78,2.75,2,3.17,2.27c1.27.8,2.76,1.62,4.36,2.57.81.45,1.63,1,2.53,1.43l2.81,1.31,3,1.4c1,.44,2.11.8,3.2,1.22l3.34,1.25c1.14.36,2.31.68,3.49,1s2.36.72,3.57,1l3.65.8c2.43.6,4.92.88,7.35,1.29s4.86.55,7.2.77,4.61.3,6.77.28l3.14,0,2.94-.08c1.89,0,3.61-.21,5.15-.29l1.61-.15c-2.55,4.27-5.17,8.45-7.86,12.47-9.93,14.92-20.83,27.78-31.6,37.27A107.29,107.29,0,0,1,959,1969l-3.64,2.17-3.51,1.79-1.66.84c-.55.26-1.1.47-1.63.7l-3.06,1.28a67.85,67.85,0,0,1-9.31,2.91l-3.38.8,3.41-.64a68.26,68.26,0,0,0,9.49-2.5l3.14-1.15c.55-.2,1.12-.39,1.68-.62l1.71-.78,3.64-1.64,3.78-2A110,110,0,0,0,976.14,1959a174.52,174.52,0,0,0,22.06-21.6c.11.85.24,1.76.39,2.8.28,1.51.52,3.23,1,5.08.21.92.4,1.88.64,2.87s.53,2,.81,3c.53,2.1,1.31,4.25,2,6.49.42,1.1.84,2.22,1.27,3.36s.87,2.27,1.4,3.39l1.53,3.4c.5,1.14,1.16,2.22,1.73,3.34s1.16,2.22,1.79,3.29,1.33,2.11,2,3.15a66.55,66.55,0,0,0,4.15,5.9,58.34,58.34,0,0,0,4.33,5.16c.72.8,1.4,1.59,2.09,2.32s1.45,1.35,2.13,2c1.38,1.25,2.57,2.48,3.75,3.42l3.11,2.39,2.7,2.07-2.59-2.21-3-2.54c-1.12-1-2.24-2.29-3.54-3.61l-2-2.07c-.64-.76-1.27-1.58-1.94-2.4a58.46,58.46,0,0,1-4-5.32,62.89,62.89,0,0,1-3.77-6l-1.77-3.18c-.56-1.09-1-2.21-1.58-3.32s-1.08-2.19-1.5-3.34l-1.32-3.39c-.46-1.11-.83-2.24-1.18-3.37l-1.06-3.32c-.56-2.22-1.2-4.33-1.6-6.39-.22-1-.42-2-.63-3s-.31-1.9-.46-2.8c-.33-1.8-.47-3.46-.67-4.93s-.26-2.75-.3-3.8-.09-1.87-.09-2.41c0-.27,0-.48,0-.62q4.05-4.92,8-10.25a353.37,353.37,0,0,0,26.21-41.93c.59,1.25,1.24,2.61,2,4,1,1.81,2.16,3.64,3.4,5.58.61,1,1.34,1.91,2,2.89s1.39,2,2.2,2.94c1.57,1.93,3.14,4,4.92,5.85l2.62,2.9,2.78,2.78c.94.92,1.85,1.86,2.79,2.76l2.89,2.59,2.84,2.54,2.88,2.36c1.91,1.51,3.68,3.07,5.49,4.36l5.06,3.72c1.54,1.17,3,2.14,4.35,3l3.4,2.26,2.95,2-2.74-2.27-3.13-2.59c-1.21-1-2.59-2.11-4-3.44l-4.61-4.18c-1.65-1.46-3.23-3.18-4.95-4.85l-2.58-2.59c-.82-.92-1.66-1.84-2.51-2.78l-2.54-2.81c-.82-1-1.61-2-2.42-2.94l-2.4-3c-.75-1-1.49-2-2.22-3-1.52-2-2.8-4.06-4.09-6-.66-1-1.2-2-1.76-3s-1.14-1.91-1.61-2.87c-1-1.91-1.88-3.69-2.56-5.39s-1.27-3.26-1.77-4.64-.79-2.59-1-3.57c-.13-.5-.21-.92-.27-1.29a8.4,8.4,0,0,1-.13-.87l-.07-.63c3.8-7.52,7.39-15.14,10.73-22.76,1.93-4.41,3.78-8.74,5.51-13.2.86-2.23,1.67-4.48,2.41-6.77l.37-1.16c.26.45.54.91.83,1.37l1.81,2.92,2,3c1.35,2.11,3,4.22,4.56,6.44s3.4,4.4,5.24,6.6,3.72,4.41,5.8,6.45l3,3.11c1,1,2.11,2,3.15,2.94l3.12,2.85,3.22,2.58,3.11,2.48,3.14,2.16,3,2c.94.67,2,1.17,2.88,1.72l5.07,2.9,4.09,1.89,3.54,1.64-3.28-2.12-3.73-2.42-4.55-3.54c-.81-.66-1.72-1.27-2.54-2.05l-2.59-2.38-2.71-2.49c-.86-.92-1.75-1.85-2.64-2.81s-1.8-1.91-2.72-2.88l-2.58-3.15c-.86-1.06-1.78-2.08-2.59-3.2l-2.44-3.36c-1.68-2.18-3.08-4.59-4.59-6.84s-2.76-4.63-4-6.87-2.41-4.45-3.39-6.61l-1.48-3.09L1071,1823c-.85-1.86-1.48-3.63-2.11-5.16s-1.09-2.89-1.44-4c-.19-.55-.35-1-.5-1.48s-.22-.74-.31-1l0-.12c.23-.51.46-1,.68-1.52.94-1.86,2-3.66,2.93-5.46l1.44-2.67,1.61-2.54c1.07-1.68,2.09-3.35,3.16-5l3.34-4.64c1.06-1.55,2.22-3,3.37-4.39s2.23-2.81,3.36-4.14c2.35-2.59,4.48-5.16,6.75-7.4l3.24-3.33,3.18-3c2-2,4.08-3.67,5.89-5.33s3.59-3,5.18-4.28c3.18-2.52,5.74-4.41,7.49-5.61.58-.42,1-.72,1.39-1l-11.87-8.72c-1.61,1.29-3.53,2.89-5.75,4.82-1.66,1.44-3.43,3.09-5.37,4.87s-4,3.77-6,6l-3.25,3.4L1084,1765c-2.11,2.29-4.11,4.88-6.24,7.51l-1.3.22c-1,.16-2.33.37-3.83.53s-3.2.36-5.07.49-3.91.2-6.07.32-4.45.1-6.82,0L1051,1774c-1.23-.06-2.46-.17-3.71-.25-2.5-.14-5-.47-7.56-.77-1.27-.13-2.53-.32-3.78-.55l-3.76-.62c-2.49-.42-4.89-1-7.26-1.53s-4.58-1.23-6.73-1.79-4.13-1.28-6-1.89-3.56-1.14-5-1.76l-3.8-1.54-3.33-1.36Z" transform="translate(-757.75 -211.63)"/><path class="cls-1" d="M954.45,1846.82s-2.12,14.41,8.66,8.55c0,0,.11,17.21,9.27,6.32,0,0,.81,14.46,10,3.64,0,0,4.45,8.8,10.07-.46,0,0,4.86,7.82,10-1.57,0,0,6.49,4.07,8.85-2.78,0,0,7,3.3,9.14-4.6,0,0,.08-.43.16-1.11-1.06,0-2.11,0-3.15,0l-2.2,0c-2,0-4.07-.15-6-.27-.82-.06-1.65-.11-2.47-.15-1-.14-2-.25-3-.36-1.81-.22-3.68-.44-5.49-.74l-2.81-.54c-1.77-.34-3.51-.67-5.19-1l-7.34-2c-1.54-.44-3-.94-4.34-1.42l-2.11-.73-.53-.18c-1.77-.6-3.44-1.17-4.9-1.83l-7.49-3.17a1.07,1.07,0,0,1,.72-2l7.81,2.31c1.43.46,3.08.83,4.83,1.21l.56.12c.7.14,1.43.31,2.18.48,1.37.31,2.79.63,4.26.89l7.29,1.08c1.57.17,3.22.29,4.89.42,1,.07,1.91.14,2.87.23,1.65.08,3.4.09,5.08.1,1,0,2,0,2.93,0l2.43-.14c1.81-.09,3.67-.18,5.45-.36.71-.1,1.45-.19,2.19-.27q1.64-.19,3.18-.42a9,9,0,0,0-1.82-3.75s-2.23-3.91-5.8-.69c0,0-2-6.44-7.89-2.94,0,0-2.6-8.8-7-3.4,0,0-1.76-8.57-8.45-3.8,0,0-2.39-9.94-8.57-4.28,0,0-2.73-10.33-9.54-.2,0,0-4.71-5.78-8.84-1.06,0,0-4.59-8.29-9.19,1.09,0,0-11.8.79-5.22,10.37C948,1837.48,945.36,1850.14,954.45,1846.82Z" transform="translate(-757.75 -211.63)"/><path class="cls-1" d="M1102.53,1927.55c1.65-6-5.78-6.79-5.78-6.79,4.68-11.27-5.44-7.83-5.44-7.83,1.3-8.28-8.3-4.78-8.3-4.78.27-8.21-7.84-4.94-7.84-4.94,2.08-6.63-6.68-3.93-6.68-3.93-.32-6.8-6.82-4.94-6.82-4.94.71-4.76-3.78-4.46-3.78-4.46a11.51,11.51,0,0,0-6.68,1.71c.11.17.21.35.33.51l.83,1.29c1,1.56,2.05,3.17,3.22,4.69l2.23,3.06,3.22,3.95c.51.63,1,1.26,1.55,1.88l5,5.56,2.54,2.55,1.79,1.79c1.06,1.08,2.07,2.1,3.11,3l4.62,4.19c1.21,1.14,2.41,2.13,3.47,3l6.36,5.26a1.07,1.07,0,0,1-1.27,1.71l-6.86-4.56c-1-.66-2.12-1.41-3.27-2.26l-.63-.46-5.4-4c-1.08-.79-2.1-1.63-3.19-2.53l-2-1.6-2.9-2.36-5.76-5.17c-.65-.62-1.26-1.23-1.87-1.84l-4-4-2.38-2.64c-1.45-1.53-2.77-3.17-4-4.75l-.92-1.14-.18-.22c-4.13,5.68,1.87,9.33,1.87,9.33-4.4,5.76,2.57,8.91,2.57,8.91-5,9.49,4.23,9.22,4.23,9.22-4.61,9.79,5.19,8.63,5.19,8.63-3.91,13.68,8.58,6.36,8.58,6.36-4,13.65,10.39,4.23,10.39,4.23,1.08,12.22,11.91,2.49,11.91,2.49,2.26,9.41,11.35.2,11.35.2,11.62.18,5.75-10.08,5.75-10.08C1112,1926.78,1102.53,1927.55,1102.53,1927.55Z" transform="translate(-757.75 -211.63)"/><path class="cls-1" d="M1082,1841.92c.48.72,1,1.49,1.47,2.26,1,1.51,2,3.07,3.06,4.49l2.46,3.38c.51.7,1.06,1.36,1.61,2,.31.38.63.76.94,1.15l2.58,3.13,5.65,6,4.9,4.5a17.28,17.28,0,0,0,1.58,1.3c.31.24.62.47.92.72l4.53,3.52,6.93,4.48a1.1,1.1,0,0,1,.35,1.41,1.07,1.07,0,0,1-1.38.46l-7.62-3.53-5.16-2.94c-.34-.2-.66-.39-1-.57a20.25,20.25,0,0,1-2-1.21l-6.09-4.18-6.39-5.1-3.17-2.9-1.1-1c-.7-.63-1.42-1.28-2.1-2l-3-3.11c-1.43-1.39-2.74-2.92-4-4.39-.6-.7-1.21-1.4-1.82-2.09s-1.23-1.49-1.83-2.23c-3.55,5.45,2.17,8.92,2.17,8.92-4.4,5.76,2.57,8.91,2.57,8.91-5,9.48,4.23,9.21,4.23,9.21-4.6,9.8,5.19,8.64,5.19,8.64-3.91,13.68,8.58,6.36,8.58,6.36-4,13.65,10.39,4.23,10.39,4.23,1.08,12.22,11.91,2.48,11.91,2.48,2.27,9.41,11.35.2,11.35.2,11.62.19,5.75-10.08,5.75-10.08,5.27-9-4.17-8.25-4.17-8.25,1.65-6.06-5.78-6.79-5.78-6.79,4.68-11.27-5.43-7.84-5.43-7.84,1.29-8.28-8.31-4.77-8.31-4.77.27-8.21-7.84-4.94-7.84-4.94,2.08-6.63-6.68-3.93-6.68-3.93-.32-6.81-6.82-4.94-6.82-4.94.71-4.76-3.78-4.46-3.78-4.46a10.16,10.16,0,0,0-5.19,1C1081,1840.21,1081.51,1841.06,1082,1841.92Z" transform="translate(-757.75 -211.63)"/><path class="cls-1" d="M1054.27,2010.91c6.78-8-2.65-8.86-2.65-8.86,2.69-5.67-4.49-7.7-4.49-7.7,6.59-10.27-4-8.67-4-8.67,2.73-7.92-7.34-6.16-7.34-6.16,1.71-8-6.85-6.24-6.85-6.24,3.22-6.16-5.89-5-5.89-5,.89-6.75-5.84-6.06-5.84-6.06,1.54-4.56-2.93-5.06-2.93-5.06-2.17-.69-4.78-.21-7.11.59l.67,2.09c.33,1.06.7,2.19,1.15,3.28l1.33,3.42c.26.71.58,1.38.92,2.09.19.39.38.79.56,1.2s.36.77.55,1.17c.32.7.64,1.4,1,2.09l1.76,3.15a48.14,48.14,0,0,0,3,4.82l.75,1.11a41.37,41.37,0,0,0,3,4.12l.9,1.12.71.88c.4.52.8,1,1.21,1.49l2,2,1.35,1.4c.74.79,1.45,1.54,2.14,2.15l5.52,4.74a1.07,1.07,0,0,1-1.32,1.68l0,0-5.81-4.46c-.81-.65-1.59-1.39-2.42-2.18-.45-.42-.91-.86-1.4-1.3l-2.14-2c-.5-.52-.95-1-1.4-1.54l-.75-.84-.95-1.06a43.39,43.39,0,0,1-3.46-4.21l-.77-1a54.08,54.08,0,0,1-3.44-4.95l-2-3.12c-.44-.74-.83-1.47-1.22-2.21-.2-.38-.4-.76-.61-1.14s-.41-.79-.62-1.17c-.39-.72-.8-1.47-1.14-2.25l-1.53-3.39c-.57-1.18-1-2.41-1.43-3.46l-.63-1.67c-1,.52-1.55.91-1.55.91-6.4,5.12-.59,10.22-.59,10.22-5.34,4.89,1,9.23,1,9.23-6.56,8.46,2.55,9.81,2.55,9.81-6.26,8.83,3.58,9.41,3.58,9.41-6.25,12.78,7.33,7.78,7.33,7.78-6.35,12.73,9.49,6,9.49,6-1.09,12.23,11.28,4.55,11.28,4.55.58,9.66,11.14,2.19,11.14,2.19C1058.25,2022.05,1054.27,2010.91,1054.27,2010.91Z" transform="translate(-757.75 -211.63)"/><path class="cls-1" d="M983.12,1753.39s-4.67,12.06,4.84,10.27c0,0-4.44,13.86,7.15,9.85,0,0-2.69,17,8.12,7.74,0,0-1.56,14.39,9.32,5.22,0,0,3,9.41,10,1.19,0,0,3.52,8.5,10.14.08,0,0,5.73,5.06,9.18-1.31,0,0,6.3,4.35,9.72-3l-1.81-.34c-.84-.17-1.67-.37-2.51-.56l-1.35-.31c-2.19-.46-4.4-1.09-6.55-1.69l-1.21-.34c-1.19-.31-2.46-.7-3.87-1.18l-3.74-1.24c-1.64-.54-3.24-1.17-4.78-1.78-.81-.32-1.62-.64-2.43-.94-1.54-.59-3-1.26-4.4-1.9-.74-.34-1.47-.68-2.18-1-1.63-.68-3.1-1.46-4.53-2.2l-1.25-.65-1.8-.95c-1.08-.55-2.09-1.06-3-1.63l-6.61-4a1.07,1.07,0,0,1,1-1.9l7.12,2.89c.91.39,1.94.73,3,1.09.63.2,1.28.42,1.94.65l1.3.44c1.46.5,3,1,4.58,1.42.78.2,1.56.43,2.34.65,1.41.4,2.86.81,4.35,1.13l2.54.56c1.52.34,3.1.7,4.68,1l3.75.63c1.36.24,2.57.42,3.72.53l1.3.16c2,.24,4.16.5,6.21.61l1.35.1c.79.06,1.57.12,2.35.16l1.87,0a8.57,8.57,0,0,0-1.09-3.24s-1.57-4.21-5.62-1.61c0,0-1-6.7-7.3-4.2,0,0-1.13-9.1-6.32-4.48,0,0-.34-8.74-7.72-5.12,0,0-.74-10.2-7.76-5.62,0,0-1-10.64-9.38-1.75,0,0-3.71-6.47-8.56-2.49,0,0-3.17-8.93-9.24-.42C990,1744,978.19,1742.86,983.12,1753.39Z" transform="translate(-757.75 -211.63)"/><path class="cls-1" d="M959.57,1915s3.49,9.22,10,.61c0,0,4,8.28,10.13-.51,0,0,6,4.72,9.09-1.84,0,0,6.6,4,9.57-3.61,0,0,.07-.22.15-.57l-1.87-.1-2.19-.12-.32,0c-2.27-.21-4.61-.42-7-.75-.76-.13-1.49-.24-2.22-.35-1.71-.26-3.49-.53-5.24-1l-3.62-.8c-.82-.2-1.61-.43-2.39-.66l-1.24-.36-1.26-.37c-.76-.22-1.52-.44-2.27-.68l-3.38-1.26-1.16-.43c-.71-.26-1.41-.52-2.09-.81l-5.83-2.73c-.62-.3-1.19-.64-1.75-1l-.84-.49-1.67-1c-1-.57-1.9-1.1-2.74-1.62l-6-4.29h0a1.07,1.07,0,0,1,1.2-1.78l6.19,3.8c.77.41,1.69.85,2.67,1.33l1.75.85.89.44c.52.26,1,.52,1.61.75l5.86,2.25c.62.21,1.29.4,2,.59l1.19.35,3.33,1c.67.16,1.4.31,2.14.47l1.27.27,1.25.27c.74.16,1.48.32,2.23.44l3.58.52c1.64.29,3.31.42,4.93.55.75.06,1.49.11,2.22.18,2.17.15,4.36.19,6.48.23h.44l2.13,0c.89,0,1.74,0,2.58-.06a11.63,11.63,0,0,0-1.58-6.75s-1.81-4.12-5.7-1.29c0,0-1.35-6.62-7.53-3.76,0,0-1.66-9-6.57-4.11,0,0-.85-8.7-8-4.67,0,0-1.33-10.13-8.08-5.16,0,0-1.62-10.56-9.46-1.2,0,0-4.08-6.24-8.68-2,0,0-3.69-8.73-9.26.12,0,0-11.81-.47-6.28,9.75,0,0-4,12.32,5.43,10,0,0-3.63,14.1,7.71,9.41,0,0-1.7,17.12,8.55,7.26C950,1910.29,949.24,1924.75,959.57,1915Z" transform="translate(-757.75 -211.63)"/><path class="cls-1" d="M980.42,1966.85s7.59-1.48,4.64-9.12a30.49,30.49,0,0,0-2-3.28c-2.1,1.9-4.19,3.7-6.27,5.37a111.61,111.61,0,0,1-16.61,11.23l-3.8,2-5.41,2.45-1.18.45-3.72,1.36a70.08,70.08,0,0,1-9.69,2.55l-3.37.63a1.07,1.07,0,0,1-.44-2.09l3.37-.8a67.36,67.36,0,0,0,9.18-2.87l3.6-1.51c.34-.14.68-.28,1-.44l5.14-2.61,3.58-2.14A107.26,107.26,0,0,0,974,1956.49c2-1.77,4-3.7,6-5.71a10.12,10.12,0,0,0-4.61-2.76s-4.11-1.82-5.08,2.89c0,0-5.46-4-8.1,2.3,0,0-7.3-5.54-7.62,1.4,0,0-6.5-5.86-9.06,2,0,0-7.81-6.59-9.44,1.63,0,0-8.33-6.71-7.8,5.49,0,0-7.23-1.86-7.76,4.39,0,0-8.6-4-6.75,6.32,0,0-9,7.63,1.94,11.44,0,0,5.37,11.77,10.73,3.71,0,0,6.82,12.86,12,1.76,0,0,10.29,13.79,11.21-.4,0,0,9.21,11.16,10.24-3,0,0,8.8,4.45,7.84-6.33,0,0,8.55,3.41,7.14-7.2C975,1974.34,982.58,1973.77,980.42,1966.85Z" transform="translate(-757.75 -211.63)"/></svg>