<svg xmlns="http://www.w3.org/2000/svg" viewBox="0 0 741.29 695.88"><defs><style>.cls-1{fill:#9fcea7;}.cls-2{fill:#e9edf7;}.cls-3{fill:#588a60;}.cls-4{fill:#d3ecd7;}.cls-18,.cls-28,.cls-29,.cls-5,.cls-7{fill:none;}.cls-5{stroke:#d3ecd7;}.cls-5,.cls-6{stroke-miterlimit:10;}.cls-6{fill:#d2ffd8;}.cls-6,.cls-7{stroke:#88ba90;}.cls-18,.cls-28,.cls-29,.cls-7{stroke-linecap:round;stroke-linejoin:round;}.cls-7{stroke-width:2px;}.cls-8{fill:#153d1c;}.cls-9{fill:#09190b;}.cls-10{fill:#b6d8bc;}.cls-11{fill:#fff;}.cls-12{fill:#caddcc;}.cls-13{fill:#49824f;}.cls-14{fill:#ed9f00;}.cls-15{fill:#fcba06;}.cls-16{fill:#eecabe;}.cls-17{fill:#3e9b64;}.cls-18{stroke:#fff;stroke-width:1.92px;}.cls-19{fill:#f7d3c9;}.cls-20{fill:#f8d8d0;}.cls-21{fill:#bbc0e6;}.cls-22{fill:#dde2f8;}.cls-23{fill:#ced3f8;}.cls-24{fill:#362e94;}.cls-25{fill:#5652cc;}.cls-26{fill:#e19100;}.cls-27{fill:#ffd03e;}.cls-28{stroke:#3f5140;stroke-dasharray:6 12;}.cls-28,.cls-29{stroke-width:3px;}.cls-29{stroke:#fcba06;}</style></defs><g id="Background"><path class="cls-1" d="M9.17,474.92V463c.42-1.81.93-3.6,1.24-5.43.42-2.46.62-5,1.05-7.42,2.3-13.25,6.83-25.76,12.48-37.9,7.19-15.45,15.93-30,24.83-44.51a603,603,0,0,0,30.45-55Q90,290.24,101.46,268c9.62-18.67,20.43-36.61,33.53-53.09a362.14,362.14,0,0,1,33-35.52c17.15-16.44,35.62-31.18,56.15-43.26C243.48,124.72,263.9,116,286,111.55a272.69,272.69,0,0,1,41.28-4.75c2.06-.09,4.12-.42,6.17-.65h29.43a27.51,27.51,0,0,0,3.36.5c7.81.27,15.63.62,23.45.69a583.67,583.67,0,0,1,74.86,5.15c16.51,2.3,33,5.05,49.38,7.91,10.88,1.89,21.62,4.61,32.5,6.48,18.28,3.12,36.64,5.8,54.95,8.78A272.73,272.73,0,0,1,644,145.74c21.09,7,39.53,18.1,54.41,34.84,13.4,15.08,23.22,32.28,30.72,50.89s12.6,38.19,16.23,58c1.94,10.65,3.93,21.32,4.57,32.17a7.3,7.3,0,0,0,.57,1.75V347.2a10.89,10.89,0,0,0-.6,2.05c-.18,2.07-.14,4.17-.4,6.24a311.62,311.62,0,0,1-7,36.19c-4.17,16.89-8.48,33.76-12.37,50.72a183,183,0,0,0-3.94,57.81c1.4,15.27,3,30.51,4.42,45.77a173.53,173.53,0,0,1-.14,37.78c-2.41,19.25-10,36-23.49,50.06-9.63,10-21,17.76-33.14,24.37-11.37,6.18-23.23,11.32-35.15,16.34-14.89,6.27-29.94,12.19-44.22,19.8-12.69,6.77-25.23,13.83-37.87,20.71-30.7,16.72-62,32.19-95.25,43.26-19.68,6.55-39.23,13.5-59,19.8a235.66,235.66,0,0,1-47,10c-2.88.3-5.75.76-8.63,1.15H324.09a24.52,24.52,0,0,0-3-.62,230.33,230.33,0,0,1-28.76-4.16c-32.59-6.74-62.86-19.28-91.22-36.6-19.24-11.75-36.92-25.39-52.1-42.16-14.39-15.91-26.85-33.25-38.54-51.17-9.91-15.2-19.37-30.69-29.59-45.67-10.46-15.33-21.62-30.17-32.41-45.27C39,550.32,30.06,536.73,23,522c-6.54-13.63-11.25-27.8-12.7-42.94A24.12,24.12,0,0,0,9.17,474.92Z" transform="translate(-9.17 -93.34)"/></g><g id="Shadow"><ellipse class="cls-2" cx="373.37" cy="578.45" rx="108.48" ry="12.95"/></g><g id="Plants"><path class="cls-3" d="M275.38,467.51c12.41-6,22.61-26.55,18.23-39.37S276.39,416.07,276,408.47s10.38-19.71,5.41-28.82c-8.84-16.19-32.51,2.88-40.25-8.38s6.14-21,.56-32.71-24.21,5.21-36-5.27-40.82-28.18-49-10.19c-6.48,14.22,13.32,14.58,14.8,21.16,1.69,7.51-7.58,10.79-3.91,18.65,5.19,11.12,21,7.59,23.8,17.42s-9.25,16,.81,24.91c12.44,11.08,29-9.39,36.86,11s-20.29,19.11-17.19,32.41c3.38,14.51,28.77,5.62,28.69,15.76C240.41,478.25,256.13,476.79,275.38,467.51Z" transform="translate(-9.17 -93.34)"/><path class="cls-3" d="M278.54,465.64c-1.11-3.52.68-13.25-4.49-17.85s-12.22-7.12-16.57-13.38c-9.7-14-3-27.24-8.49-36-4.06-6.48-10.56-1.42-17.83-7.89s-1.25-9.87-10.11-17.76c-7.85-7-12-1.38-20.43-8.23-12.71-10.29-9.78-22.4-14.24-26-3.9-3.13-7.36-1.34-7.36-1.34" transform="translate(-9.17 -93.34)"/><path class="cls-4" d="M512.38,545.34c-3.28-.47,26-39.91,48.82-57.26,20.57-15.59,51.5-34.09,71.46-39.82-14.24,11.9-54.85,46.64-63.12,52.86S515.66,545.8,512.38,545.34Z" transform="translate(-9.17 -93.34)"/><path class="cls-4" d="M512.33,545.35c-2.67.55,9-38,21.9-57.64C545.8,470,564.58,447.2,578.4,437.28c-7.71,13.1-29.48,51.11-34.15,58.19S515,544.8,512.33,545.35Z" transform="translate(-9.17 -93.34)"/><path class="cls-4" d="M512.33,545.31c-2.45-1.19,30.26-24.61,52.46-32.4,20-7,48.74-13.66,65.75-13.12C616.45,505.5,576,522.4,568,525.17S514.77,546.5,512.33,545.31Z" transform="translate(-9.17 -93.34)"/><path class="cls-4" d="M512.29,545.37c-2,1.24-4.19-33.1.2-52.74C516.43,475,524.6,451.07,532.68,439c-2.22,12.82-8.22,49.79-9.83,56.87S514.26,544.13,512.29,545.37Z" transform="translate(-9.17 -93.34)"/><path class="cls-4" d="M512.29,545.37c-1.6-1.69,31.62-10.64,51.74-10.22,18.09.38,43.14,3.67,56.6,9.2-13,.35-50.43,1.77-57.69,1.59S513.89,547.05,512.29,545.37Z" transform="translate(-9.17 -93.34)"/><path class="cls-5" d="M696.16,362.71c-7.91,19.9,2,26.46,8.58,26,2,8,13,13.18,25.59,4.74" transform="translate(-9.17 -93.34)"/><path class="cls-5" d="M704.55,360.66c-9.82,11.45-7.54,24,.76,27.38,3.31,5.52,15.16,9.61,27.4-1.83" transform="translate(-9.17 -93.34)"/><path class="cls-5" d="M716.3,361.39c-4.45,1.74-20.22,17.53-10.17,25.59,3,5.56,18.85,2.94,27.62-7.49" transform="translate(-9.17 -93.34)"/><path class="cls-5" d="M726.73,381.82c-2.57,1.89-13.58,5.08-20.6,5.16.64-6.27,6.87-16.25,10.06-18.52" transform="translate(-9.17 -93.34)"/><path class="cls-5" d="M706.13,387c6.46-2.08,13.48-4.42,21.81-11.59" transform="translate(-9.17 -93.34)"/><path class="cls-5" d="M727.74,368.71c-5.28,1.56-17.24,12.18-20,17.75" transform="translate(-9.17 -93.34)"/><path class="cls-4" d="M704.74,388.75c-4.47,3.18-27.09,28.67-34.49,40.61" transform="translate(-9.17 -93.34)"/><path class="cls-4" d="M701.35,579c6.37.76,9.14-4.63,10.52-8C709.9,571,701.91,571.12,701.35,579Z" transform="translate(-9.17 -93.34)"/><path class="cls-4" d="M662.24,620.17c6.21-11.84,20.12-29,39.76-41.55" transform="translate(-9.17 -93.34)"/><path class="cls-4" d="M664.33,611.1c1.15-12.92-7.89-15.93-14.7-18.49C649.58,596.59,648.31,610.44,664.33,611.1Z" transform="translate(-9.17 -93.34)"/><path class="cls-4" d="M671.36,600.85c3.48-9.82-3-14-7.73-17.32C662.79,586.62,659,597.14,671.36,600.85Z" transform="translate(-9.17 -93.34)"/><path class="cls-4" d="M681.08,591.43c4.88-7.51.34-12.26-3-16C676.78,577.81,671.53,585.85,681.08,591.43Z" transform="translate(-9.17 -93.34)"/><path class="cls-4" d="M691.18,583.11c4.21-3.64,2.33-7.26,1-10.08C691,574.24,686.45,578.12,691.18,583.11Z" transform="translate(-9.17 -93.34)"/><path class="cls-4" d="M670.48,613.93c9.42-6.5,15.66-.87,20.6,3.23C688.05,618.94,678,625.94,670.48,613.93Z" transform="translate(-9.17 -93.34)"/><path class="cls-4" d="M678.34,602.93c7.15-6.81,13.22-2.85,18,0C694,604.83,686.33,612.16,678.34,602.93Z" transform="translate(-9.17 -93.34)"/><path class="cls-4" d="M689.53,591.37c6-3.12,9.23.63,11.81,3.39C699.44,595.58,693,598.94,689.53,591.37Z" transform="translate(-9.17 -93.34)"/><path class="cls-4" d="M697.63,584.12c3.09-2.43,5.35-.63,7.12.68C703.75,585.47,700.44,588.08,697.63,584.12Z" transform="translate(-9.17 -93.34)"/><path class="cls-3" d="M529.55,648.92c-12-7.92-41.75-66.28-18.4-77.59,22.13-10.72,29.15,34.93,30.47,40.86,4.61-22.4,10.65-44.14,25.42-40.19s0,35.58,0,35.58c13.45-17.13,47-43.49,62.23-35.58s-31,36.3-31,36.3c21-11.93,83.83-28,21.1,2.32,28.72-9.29,84.73-13.85,22.47,5.53,37.47-3.25,56.49,1.85,57.15,7.12s-10.33,12.73-58.76,14c23.92,4,35.92,9.55,29.75,11.7Z" transform="translate(-9.17 -93.34)"/><path class="cls-3" d="M613.69,624.64a1.95,1.95,0,1,1,1.95,1.94A2,2,0,0,1,613.69,624.64Z" transform="translate(-9.17 -93.34)"/><path class="cls-3" d="M543,632.2a3,3,0,1,1,3,3A3,3,0,0,1,543,632.2Z" transform="translate(-9.17 -93.34)"/><circle class="cls-3" cx="572.83" cy="519.66" r="2.56"/><path class="cls-6" d="M332.64,168.89c12,3.36,20.36-4.84,22.32-19.42C343.5,148.6,330.41,155.41,332.64,168.89Z" transform="translate(-9.17 -93.34)"/><path class="cls-6" d="M332.08,155c-7.36,5.92-15.59,2.69-21.29-6.86C318.5,144.17,329.62,145,332.08,155Z" transform="translate(-9.17 -93.34)"/><path class="cls-7" d="M311.1,111.22c8.65,9,28,38.17,19.6,76.55" transform="translate(-9.17 -93.34)"/><circle class="cls-6" cx="302.03" cy="18.83" r="18.33"/><path class="cls-6" d="M297.9,112.17a12.76,12.76,0,0,1,1.84-6.62,15.79,15.79,0,0,1,11.46-6.64,12.79,12.79,0,0,1,6.62,1.79c2.08,1.21,4.13,2.49,5.33,4.57s1.24,4.4,1.24,6.9.09,5-1.08,7-3.56,3-5.64,4.22a12.48,12.48,0,0,1-6.47,2.05,13.17,13.17,0,0,1-6.75-1.56c-2.08-1.21-4.4-2.48-5.61-4.56S297.9,114.67,297.9,112.17Z" transform="translate(-9.17 -93.34)"/><path class="cls-6" d="M302.74,112.17a8.45,8.45,0,0,1,2.41-6,8.62,8.62,0,0,1,6.05-2.61,8.46,8.46,0,0,1,5.93,14.58,8,8,0,0,1-5.93,2.16,7.83,7.83,0,0,1-5.84-2.24A8.15,8.15,0,0,1,302.74,112.17Z" transform="translate(-9.17 -93.34)"/><path class="cls-6" d="M307.46,112.17a3.56,3.56,0,0,1,3.74-3.41,3.41,3.41,0,1,1,0,6.81A3.56,3.56,0,0,1,307.46,112.17Z" transform="translate(-9.17 -93.34)"/></g><g id="Screen"><g id="Screen-2" data-name="Screen"><rect class="cls-8" x="409.52" y="384.12" width="98.81" height="61.14"/><rect class="cls-9" x="409.52" y="384.12" width="98.81" height="7.54"/><rect class="cls-4" x="366.33" y="445.33" width="185.18" height="11.94"/><path class="cls-8" d="M678.24,437.75H258v27.09a12.62,12.62,0,0,0,12.62,12.62h395a12.62,12.62,0,0,0,12.63-12.62Z" transform="translate(-9.17 -93.34)"/><path class="cls-8" d="M665.61,183.27h-395A12.62,12.62,0,0,0,258,195.89v8.4H678.24v-8.4A12.62,12.62,0,0,0,665.61,183.27Z" transform="translate(-9.17 -93.34)"/><path class="cls-10" d="M662.89,464.84a2.73,2.73,0,1,1,2.72,2.72A2.72,2.72,0,0,1,662.89,464.84Z" transform="translate(-9.17 -93.34)"/><path class="cls-10" d="M651.69,464.84a2.73,2.73,0,1,1,2.72,2.72A2.72,2.72,0,0,1,651.69,464.84Z" transform="translate(-9.17 -93.34)"/></g><g id="Wall"><rect class="cls-4" x="248.78" y="110.95" width="420.29" height="233.46"/></g><g id="Bricks"><rect class="cls-3" x="429.07" y="319.54" width="28.94" height="8.23"/><rect class="cls-10" x="414.6" y="329.79" width="28.94" height="8.23"/><rect class="cls-3" x="344.43" y="259.77" width="28.94" height="8.23"/><rect class="cls-3" x="257.18" y="280.26" width="28.94" height="8.23"/><rect class="cls-3" x="344.43" y="206.86" width="28.94" height="8.23"/><rect class="cls-10" x="329.97" y="270.01" width="28.94" height="8.23"/><rect class="cls-10" x="248.78" y="270.01" width="28.94" height="8.23"/><rect class="cls-10" x="327.77" y="196.53" width="28.94" height="8.23"/><rect class="cls-3" x="296.51" y="196.53" width="28.94" height="8.23"/><rect class="cls-3" x="624.49" y="196.53" width="28.94" height="8.23"/><rect class="cls-10" x="535.95" y="319.54" width="28.94" height="8.23"/><rect class="cls-10" x="620.1" y="319.54" width="28.94" height="8.23"/><rect class="cls-3" x="629.06" y="285.7" width="28.94" height="8.23"/><rect class="cls-3" x="520.38" y="329.79" width="28.94" height="8.23"/><rect class="cls-10" x="560.68" y="423.13" width="28.94" height="8.23" transform="translate(1141.13 761.15) rotate(180)"/><rect class="cls-10" x="643.52" y="221.13" width="25.54" height="8.23"/><rect class="cls-3" x="668.26" y="324.72" width="9.98" height="8.23" transform="translate(1337.33 564.32) rotate(180)"/></g><g id="Window_and_door" data-name="Window and door"><rect class="cls-4" x="265.9" y="215.1" width="70.24" height="122.92"/><circle class="cls-11" cx="326.08" cy="276.56" r="3.88"/><path class="cls-12" d="M337.68,308.44l-62.61,62.61v32.51l70.25-70.25V308.44ZM305.93,431.36,345.32,392V374.78l-56.59,56.58Zm1-122.92-31.83,31.83v17.19l49-49Zm-31.83,113.9,70.25-70.24V344l-70.25,70.25Z" transform="translate(-9.17 -93.34)"/><rect class="cls-13" x="366.25" y="174.34" width="272.7" height="135.15"/><rect class="cls-12" x="448.59" y="203.29" width="126.37" height="263.92" transform="translate(837.86 -269.87) rotate(90)"/><path class="cls-4" d="M524.46,272.07,398.09,398.44h9.85L534.31,272.07Zm-78.37,0-66.27,66.27v8l74.24-74.24Zm24.5,0-90.77,90.77v35.6h3.67L509.86,272.07Zm143.19,0L487.41,398.44h8L621.75,272.07Zm17,0L504.37,398.44h28.72L643.74,287.78V272.07ZM606.38,398.44l37.36-37.36v-8l-45.33,45.33Z" transform="translate(-9.17 -93.34)"/><rect class="cls-13" x="500.41" y="178.73" width="4.39" height="126.37"/></g><g id="Tent"><path class="cls-14" d="M233.18,266.34V278.7a12.37,12.37,0,1,0,24.73,0,12.37,12.37,0,1,0,24.73,0,12.37,12.37,0,1,0,24.73,0,12.36,12.36,0,1,0,24.72,0,12.37,12.37,0,1,0,24.73,0,12.37,12.37,0,1,0,24.73,0,12.36,12.36,0,1,0,24.72,0,12.37,12.37,0,1,0,24.73,0,12.37,12.37,0,1,0,24.73,0,12.37,12.37,0,1,0,24.73,0,12.36,12.36,0,1,0,24.72,0,12.37,12.37,0,1,0,24.73,0,12.37,12.37,0,1,0,24.73,0,12.36,12.36,0,1,0,24.72,0,12.37,12.37,0,1,0,24.73,0,12.37,12.37,0,1,0,24.73,0,12.37,12.37,0,1,0,24.73,0,12.36,12.36,0,1,0,24.72,0,12.37,12.37,0,1,0,24.73,0V266.34Z" transform="translate(-9.17 -93.34)"/><path class="cls-15" d="M703,266.34c-14.4-16.85-23.23-34.73-24.76-62H258c-1.54,27.32-10.36,45.2-24.77,62Z" transform="translate(-9.17 -93.34)"/></g></g><g id="Man_with_cart" data-name="Man with cart"><g id="Man"><path class="cls-16" d="M333,649.94c.28-1.86.7-4.43.7-4.43h9.67l-.6,12.66h-8Z" transform="translate(-9.17 -93.34)"/><path class="cls-8" d="M329.92,647c1.29-1.45,7.6,9.22,9.93,9s1.13-4.14,2.63-4.09,3.57,3.59,3.47,10.1c-1.4,0-2.59-.28-3.88.91s-5.17,2.48-8.17,2.48-6.46,2.28-11.68,2.28-11.69.23-12.75-.83a9.16,9.16,0,0,1-1.7-2.64c.88-1.45.61-3.2,4.42-3.7C316.22,660,324.59,653,329.92,647Z" transform="translate(-9.17 -93.34)"/><path class="cls-17" d="M346,662l-.85,0-1.38.08a3.16,3.16,0,0,0-1.65.85c-1.29,1.19-5.17,2.48-8.17,2.48s-6.46,2.28-11.68,2.28-11.69.23-12.75-.83a9.16,9.16,0,0,1-1.7-2.64c-.26,0-1-.05-.86,1.24a6.81,6.81,0,0,0,3.53,5,8.78,8.78,0,0,0,4.8,1.38h14.63c.51,0,1.91-1.08,4.19-1.14s2.25,1.14,4.22,1.14,8.86.31,9.79-2.58S347.09,662.39,346,662Z" transform="translate(-9.17 -93.34)"/><line class="cls-18" x1="318.19" y1="559.69" x2="316.08" y2="557.75"/><line class="cls-18" x1="315.03" y1="562.28" x2="313.12" y2="560.16"/><line class="cls-18" x1="311.53" y1="564.52" x2="310.23" y2="562.73"/><path class="cls-16" d="M430.65,645.94c-.4-1.6-1.09-4.3-1.09-4.3l9-2.28,3.56,12.16-7.77,2Z" transform="translate(-9.17 -93.34)"/><path class="cls-8" d="M427,643.87c.89-1.71,9.62,7.08,11.81,6.25s.09-4.3,1.56-4.61,4.34,2.6,5.84,9c-1.36.34-2.58.35-3.55,1.82s-4.4,3.68-7.31,4.41-5.71,3.79-10.77,5.07-11.74,3.21-13,2.44a9.24,9.24,0,0,1-2.3-2.14c.5-1.61.29-3.37,3.85-4.79C416.86,659.76,423.27,650.94,427,643.87Z" transform="translate(-9.17 -93.34)"/><path class="cls-17" d="M446.19,654.46l-.83.18-1.32.41a3.26,3.26,0,0,0-1.4,1.23c-1,1.47-4.4,3.68-7.31,4.41s-5.71,3.79-10.77,5.07-11.74,3.21-13,2.44a9.24,9.24,0,0,1-2.3-2.14c-.26,0-.94.19-.53,1.42a6.83,6.83,0,0,0,4.64,4,10.44,10.44,0,0,0,5.47,0L433,667.9c.51-.13,1.59-1.53,3.79-2.13s2.46.55,4.37.06,8.66-1.87,8.85-4.9S447.39,654.55,446.19,654.46Z" transform="translate(-9.17 -93.34)"/><line class="cls-18" x1="416.8" y1="556.97" x2="414.27" y2="555.6"/><line class="cls-18" x1="414.37" y1="560.25" x2="411.99" y2="558.67"/><line class="cls-18" x1="411.52" y1="563.28" x2="409.82" y2="561.86"/><path class="cls-8" d="M394.24,451.07c2.21,34.67-21.55,79.54-33.3,112.91,3.56,28.71-12.63,56.64-16.92,81.53H333c-.08-27.76,8.3-163.14,21.44-193.69C363.58,451.82,394.24,451.07,394.24,451.07Z" transform="translate(-9.17 -93.34)"/><path class="cls-17" d="M399.46,451.07c16.13,23.57,15.81,61.07,13.88,107.09,20.82,24.76,21.57,68.62,25.41,81.78-3.94,1.16-9,2.42-9,2.42-8.89-17-23.82-42.55-39.75-76.86-4.94-10.65-27-67.21-28.14-113.83C371.16,451.67,399.46,451.07,399.46,451.07Z" transform="translate(-9.17 -93.34)"/><path class="cls-11" d="M399.46,451.07c0-18,1-47.22,3.62-69.24,1-8.23-2.72-22.79-10.33-24.61a22.93,22.93,0,0,0-21,5.36c-8.57,7.67-23,27.51-22.29,31.5,1.31,7.31,8,9.59,7.08,27s-2.16,30.7-2.16,30.7S390.64,451.07,399.46,451.07Z" transform="translate(-9.17 -93.34)"/><path class="cls-19" d="M372.27,362.23c3.32-3.66,2.78-11,1.06-12.87S365.07,350,363,347c-2.78-3.95-5.45-12-6-18.94-.82-10.09,1.36-17.25,12.57-18,8.9-.57,16.08,5.11,17.69,14.15,1.81,10.09-2.05,21.1-.9,24.54a6.61,6.61,0,0,0,3.94,4.27S389,362.23,372.27,362.23Z" transform="translate(-9.17 -93.34)"/><path class="cls-20" d="M314,463.74c-.31-3.89-.57-6.69,2.85-7.26,3.75-.63,7.15-2.22,9.65-3.08s9.35,3.57,4.72,7.22a14.87,14.87,0,0,1-11.89,3.12c.62,1.26,2,4.54-1.49,4.83S314.19,466.76,314,463.74Z" transform="translate(-9.17 -93.34)"/><path class="cls-2" d="M326.45,453.4c9.5-4.45,44.42-32.76,48.65-35.75.33-4.15,4.69-55.42,17.15-55.42,8.43,0,7.69,17.58,5.84,29.74-1.62,10.69-7.8,35.28-11,37.41-11.55,7.57-45.61,27.47-55.88,31.24C329,458.4,326.45,453.4,326.45,453.4Z" transform="translate(-9.17 -93.34)"/><path class="cls-17" d="M392.27,331.59c-.11,8.74,13.35,12.26,24.67,17.07,12.54,5.32,30.44,17.09,35.77,38.32,2.35,9.86-11.32,18-21.09,17.24-9.5-.75-9.68,4.74-16.78,7.59-26.11,4.35-2.61-23.16-2.66-41.43s-16.3-10.58-25.07-18c-6.16-5.19-1.65-10-5.9-15.85-3.71-5.1-7.43-7-13.65-7.32-5.77-.29-9.48-5-10.76-10.15a2.88,2.88,0,0,1,.21-2.64C361.59,301.27,392.67,301,392.27,331.59Z" transform="translate(-9.17 -93.34)"/><path class="cls-8" d="M368.91,327.42c9.1-4.19,10,8.73,13.67,8.34,7.22-.76-1.64,11.45,4.52,16.65,8.8,7.4,25-.31,25.08,18s-20.91,42.39,2.72,41.39c-6.2,2.17-11.13,2.46-15.95-3.66-12-15.25,13.32-32.8-2-41.14-13.84-7.55-19.06-11.08-18.1-22.15.86-9.88-3.07-5.41-6.82-11.64-1.66-2.76-5.92.88-9.08-1.56a16.22,16.22,0,0,1-6.3-13.13C358.18,323.77,363.55,329.89,368.91,327.42Z" transform="translate(-9.17 -93.34)"/></g><g id="Boxes_inside_cart" data-name="Boxes inside cart"><rect class="cls-17" x="147.23" y="522.89" width="45.99" height="65.14" transform="translate(35.69 -105.15) rotate(4.58)"/><rect class="cls-15" x="170.77" y="488.87" width="51.71" height="47.23" transform="translate(32.35 -107.4) rotate(4.58)"/><rect class="cls-8" x="185.94" y="537.25" width="45.99" height="53.46" transform="translate(36.49 -108.21) rotate(4.58)"/></g><g id="Shopping_cart" data-name="Shopping cart"><circle class="cls-8" cx="116.14" cy="559.29" r="12.88"/><circle class="cls-21" cx="125.31" cy="652.63" r="8.62" transform="translate(-433.95 186.42) rotate(-45)"/><rect class="cls-22" x="96.93" y="542.52" width="164.3" height="2.28"/><path class="cls-22" d="M108.67,638.14c1.19,1.92,13.26,21.25,18.73,17.75,5.14-3.29-2.48-17.75-2.48-17.75Z" transform="translate(-9.17 -93.34)"/><path class="cls-23" d="M106.1,635.86a2.48,2.48,0,1,1,0-5H265.22V620.77c-.29-2.53-12.24-18.2-14.74-19.29-3.52-.32-52.57-4.15-73.69-5.8l-1.25-.1a2.48,2.48,0,0,1,.18-5h.21c.72.06,72.14,5.62,75.26,5.93,3.59.36,19,18.87,19,24.21v12.61a2.48,2.48,0,0,1-2.48,2.48Z" transform="translate(-9.17 -93.34)"/><circle class="cls-24" cx="116.14" cy="559.29" r="1.48"/><circle class="cls-8" cx="258.93" cy="559.29" r="12.88"/><circle class="cls-21" cx="268.1" cy="652.63" r="8.62" transform="translate(-348.16 199.77) rotate(-37.03)"/><path class="cls-22" d="M251.46,638.14c1.19,1.92,13.26,21.25,18.73,17.75,5.13-3.29-2.48-17.75-2.48-17.75Z" transform="translate(-9.17 -93.34)"/><circle class="cls-24" cx="258.93" cy="559.29" r="1.48"/><path class="cls-22" d="M252.8,596.9h-.19L105.94,585.61a2.48,2.48,0,0,1-2.26-2.09l-10.39-65a2.48,2.48,0,0,1,2.09-2.84l195.46-29.39c2.64-7.29,5.76-11.13,12.28-15.13a2.49,2.49,0,1,1,2.6,4.24c-5.68,3.48-8,6.35-10.28,12.79-.09.26-.23.63-.4,1.11l-.06.16c-4.91,13.37-38.37,101.95-39.85,105.87A2.5,2.5,0,0,1,252.8,596.9ZM108.28,580.8l142.86,11c4.46-11.83,30.3-80.24,37.74-100.22L98.59,520.18Z" transform="translate(-9.17 -93.34)"/><path class="cls-22" d="M123,586.08a1.67,1.67,0,0,1-1.65-1.49l-6.86-69.4a1.65,1.65,0,1,1,3.29-.32l6.87,69.39a1.67,1.67,0,0,1-1.49,1.82Z" transform="translate(-9.17 -93.34)"/><path class="cls-22" d="M138.49,587.28a1.66,1.66,0,0,1-1.65-1.66V511.67a1.66,1.66,0,1,1,3.31,0v73.95A1.66,1.66,0,0,1,138.49,587.28Z" transform="translate(-9.17 -93.34)"/><path class="cls-22" d="M154.92,588.54h-.11a1.66,1.66,0,0,1-1.54-1.77l5.33-78.49a1.7,1.7,0,0,1,1.76-1.54,1.66,1.66,0,0,1,1.54,1.77L156.57,587A1.65,1.65,0,0,1,154.92,588.54Z" transform="translate(-9.17 -93.34)"/><path class="cls-22" d="M170.85,589.76h-.23a1.67,1.67,0,0,1-1.42-1.87l11.38-83a1.66,1.66,0,0,1,3.29.45l-11.38,83A1.66,1.66,0,0,1,170.85,589.76Z" transform="translate(-9.17 -93.34)"/><path class="cls-22" d="M187,591a1.22,1.22,0,0,1-.32,0,1.65,1.65,0,0,1-1.3-2l17.52-87.6a1.66,1.66,0,0,1,3.25.65l-17.52,87.6A1.67,1.67,0,0,1,187,591Z" transform="translate(-9.17 -93.34)"/><path class="cls-22" d="M203.51,592.28a1.74,1.74,0,0,1-.39,0,1.65,1.65,0,0,1-1.23-2l22-92a1.66,1.66,0,1,1,3.22.77l-21.94,92A1.67,1.67,0,0,1,203.51,592.28Z" transform="translate(-9.17 -93.34)"/><path class="cls-22" d="M218.83,593.46a1.91,1.91,0,0,1-.47-.07,1.66,1.66,0,0,1-1.12-2.06l28.54-96.5a1.65,1.65,0,1,1,3.17.94l-28.53,96.5A1.67,1.67,0,0,1,218.83,593.46Z" transform="translate(-9.17 -93.34)"/><path class="cls-22" d="M235.21,594.72a1.58,1.58,0,0,1-.52-.09,1.65,1.65,0,0,1-1.05-2.09l33.63-101a1.66,1.66,0,0,1,3.15,1l-33.63,101A1.67,1.67,0,0,1,235.21,594.72Z" transform="translate(-9.17 -93.34)"/><path class="cls-22" d="M99.61,544a1.66,1.66,0,0,1-.22-3.3l182-24.16a1.65,1.65,0,1,1,.44,3.28l-182,24.16Z" transform="translate(-9.17 -93.34)"/><path class="cls-22" d="M102.57,562.49a1.66,1.66,0,0,1,0-3.31l163.29-1h0a1.66,1.66,0,0,1,0,3.31l-163.29,1Z" transform="translate(-9.17 -93.34)"/><path class="cls-25" d="M317.64,460.35l-12.76,6.37a5.65,5.65,0,0,0,5,10.11l12.77-6.37a5.65,5.65,0,0,0-5.05-10.11Z" transform="translate(-9.17 -93.34)"/></g></g><g id="Coin"><path class="cls-15" d="M183.29,315.25a25.65,25.65,0,1,1,25.65,25.65A25.64,25.64,0,0,1,183.29,315.25Z" transform="translate(-9.17 -93.34)"/><path class="cls-26" d="M188.1,315.25a20.84,20.84,0,1,0,20.84-20.84A20.86,20.86,0,0,0,188.1,315.25Z" transform="translate(-9.17 -93.34)"/><path class="cls-27" d="M208.94,313.6a3.9,3.9,0,1,1,3.89-3.89h3.53a7.42,7.42,0,0,0-5.66-7.2v-2.79h-3.53v2.79a7.42,7.42,0,0,0,1.77,14.62,3.89,3.89,0,1,1-3.89,3.89h-3.53a7.43,7.43,0,0,0,5.65,7.2v2.56h3.53v-2.56a7.42,7.42,0,0,0-1.76-14.62Z" transform="translate(-9.17 -93.34)"/><line class="cls-28" x1="199.77" y1="191.28" x2="199.77" y2="94.43"/></g><g id="Arrow"><polyline class="cls-29" points="116.41 377.58 127.67 388.83 138.92 377.58"/><line class="cls-29" x1="127.66" y1="388.84" x2="127.66" y2="354.35"/><line class="cls-29" x1="127.66" y1="347.04" x2="127.66" y2="342.98"/><line class="cls-29" x1="127.66" y1="335.06" x2="127.66" y2="330.99"/></g></svg>