<svg xmlns="http://www.w3.org/2000/svg" viewBox="0 0 902.69 879.91"><defs><style>.cls-1{isolation:isolate;}.cls-2{fill:#9fcea7;}.cls-3{fill:#e9efff;}.cls-4{fill:#d3ecd7;}.cls-11,.cls-12,.cls-15,.cls-23,.cls-5,.cls-7{fill:none;}.cls-5,.cls-7{stroke:#b6d8bc;}.cls-5{stroke-miterlimit:10;}.cls-15,.cls-5{stroke-width:3px;}.cls-6{fill:#b6d8bc;}.cls-11,.cls-12,.cls-15,.cls-7{stroke-linecap:round;stroke-linejoin:round;}.cls-11,.cls-12,.cls-7{stroke-width:2px;}.cls-8{fill:#d2ffd8;}.cls-9{fill:#588a60;}.cls-10{fill:#fff;}.cls-11{stroke:#caddcc;}.cls-12,.cls-15{stroke:#d2ffd8;}.cls-12{stroke-dasharray:6;}.cls-13{fill:#ffd03e;}.cls-14{fill:#ff5a72;}.cls-16{fill:#153d1c;}.cls-17{fill:#f0ccc0;}.cls-18{fill:#3e9b64;}.cls-19{fill:#c4cae9;}.cls-20{fill:#efccc5;}.cls-21{fill:#d1d7f3;}.cls-22{fill:#dde2f8;}.cls-23{stroke:#c4cae9;stroke-width:4px;}.cls-24{fill:#f8d8d0;}.cls-25{fill:#e7eeff;}.cls-26{fill:#bbc0e6;}.cls-27{fill:#f7d3c9;}.cls-28{fill:#ffd3c9;}.cls-29{fill:#f2d5cc;}.cls-30{fill:#e19100;}.cls-31{fill:#fcba06;}.cls-32{fill:#ffe357;}.cls-33{fill:#4c4c4c;mix-blend-mode:screen;}</style></defs><g class="cls-1"><g id="Background"><path class="cls-2" d="M533.28,949.09H484.57c-1.8-.24-3.6-.63-5.41-.71-17.27-.73-34.46-2.39-51.58-4.72a495,495,0,0,1-99-23.77c-49.89-17.73-95.21-43.34-134.51-79a582.68,582.68,0,0,1-80.7-90.36,436.46,436.46,0,0,1-40.85-68.31C57,649.5,46.26,615.5,43.63,579.22a46.75,46.75,0,0,0-1.37-6.44V553.13c.5-2.4,1.12-4.79,1.48-7.21,1.43-9.44,2.41-18.95,4.24-28.31a119.61,119.61,0,0,1,30.78-60.38,167.19,167.19,0,0,1,30.56-25.14c16.73-10.89,34.59-19.65,53-27.3,22.58-9.4,45.35-18.36,68-27.69,22-9.09,43.59-19.17,63.88-31.8a200,200,0,0,0,60.29-57.66,382.76,382.76,0,0,0,26.46-45.43c11.65-23.43,22.91-47.05,34.65-70.44,8.94-17.81,19.2-34.84,31.91-50.3,15.79-19.21,34.77-34,58.71-41.7a220.7,220.7,0,0,1,45.35-8.94c5.19-.53,10.38-1.1,15.57-1.65h21.21a49.27,49.27,0,0,0,5,.81,307.68,307.68,0,0,1,40.45,5.27c34.39,6.87,66.87,19,97.8,35.45A424.94,424.94,0,0,1,842,194.64c30,31.69,52.08,68.43,68.13,108.85,21.32,53.71,31.53,109.71,34,167.28.11,2.58.54,5.15.82,7.73v58.92a44.71,44.71,0,0,0-.76,5c-.2,4.31-.07,8.64-.38,13a624.37,624.37,0,0,1-7.53,62.3c-5.78,32.82-14.43,64.82-26.94,95.74C880.15,785.58,833,842.73,766.46,883.52c-49.21,30.16-102.9,48-159.54,57.6a548.81,548.81,0,0,1-69.83,7.3A28.17,28.17,0,0,0,533.28,949.09Z" transform="translate(-42.26 -69.18)"/></g><g id="Shadow"><path class="cls-3" d="M298.88,804.59c0-5.42,55.82-9.82,124.68-9.82s124.68,4.4,124.68,9.82-55.82,9.81-124.68,9.81S298.88,810,298.88,804.59Z" transform="translate(-42.26 -69.18)"/><path class="cls-3" d="M538.26,788.86c0-5.42,45.32-9.81,101.22-9.81s101.22,4.39,101.22,9.81-45.32,9.82-101.22,9.82S538.26,794.28,538.26,788.86Z" transform="translate(-42.26 -69.18)"/></g><g id="Plants"><path class="cls-4" d="M328,520c-3.52-3.54-5.89-8.26-3.55-10.28s6.3.89,9.47,4.52c.6-4.29,2.41-8,5.11-7.68,5.28.67,3,16.15-.24,18.94-3.72,4.34-18.93,3.52-18.62-1.81C320.33,521.11,324,520.05,328,520Z" transform="translate(-42.26 -69.18)"/><path class="cls-5" d="M338.81,525.46c4.2,4.57,9.06,24.3,4.92,43.36" transform="translate(-42.26 -69.18)"/><path class="cls-6" d="M333.21,525.22a3.78,3.78,0,0,1,2.55-1c-.82-1.08-1.31-3.14,0-3.86.93-.51,1.9,1,2.54,2.42a6.12,6.12,0,0,1,.7-1.48c2.54-3.68,2.26,3.37.26,4.71a13.35,13.35,0,0,1-2.35,1.06C334.79,527.78,332.21,526.54,333.21,525.22Z" transform="translate(-42.26 -69.18)"/><path class="cls-4" d="M395.28,648c-48.39,2.24-72.74-36-67.45-92.81C371.9,561.92,415.42,599,395.28,648Z" transform="translate(-42.26 -69.18)"/><path class="cls-7" d="M395.28,648c-11-17.14-42.85-55-59.73-81.06" transform="translate(-42.26 -69.18)"/><path class="cls-8" d="M798.68,493.64c-5.07,5.3-27.95,12.53-50.73,9.1" transform="translate(-42.26 -69.18)"/><path class="cls-8" d="M817.5,491.85l5.13-9.79-11-1.11,4.09-7.36c-2.9,0-5.77-.16-8.17,1.13-10.55,5.66-16.34,15.39-12.93,21.73s14.71,6.89,25.26,1.23a12.64,12.64,0,0,0,5-4.91Z" transform="translate(-42.26 -69.18)"/><path class="cls-4" d="M679.19,510.84c15.47,55.72,67.9,69.09,130.36,42C785.54,505.3,727.24,469.77,679.19,510.84Z" transform="translate(-42.26 -69.18)"/><path class="cls-7" d="M679.19,510.84C702.72,517,757.56,539,793.34,548.41" transform="translate(-42.26 -69.18)"/><path class="cls-8" d="M367.33,706.29c-8.13,28.56-35.1,35.24-67.08,21.09C312.74,703.08,342.8,685,367.33,706.29Z" transform="translate(-42.26 -69.18)"/><path class="cls-4" d="M391.52,675.5c-3.2,14.3-22,29.83-36.37,28.39S338.48,689,330.51,690.35,312.6,705.86,302,702.91c-18.91-5.25-4.86-34.38-18.4-39.67s-20.32,11.43-33.75,8.47-.44-26.34-14.14-36-39-35.49-22.38-48.32c13.17-10.15,18.31,10.28,25.49,10.22,8.18-.07,9.34-10.46,18.38-8.56,12.76,2.69,12.93,20,23.78,20.45s14.31-13.43,26-5.18c14.48,10.22-2.74,32.27,20.32,35.52s14.9-25.62,29.42-25.62c15.85,0,12.77,28.45,23.26,25.92C394.21,636.69,396.5,653.32,391.52,675.5Z" transform="translate(-42.26 -69.18)"/><path class="cls-7" d="M390.35,679.23c-3.91-.31-13.55,3.9-19.57-.34S360.45,668,352.92,665c-16.8-6.68-28.95,3.44-39.31-.12-7.69-2.64-4-10.59-12.48-16.56s-10.52,1.09-20.83-6.19c-9.13-6.44-4.31-12.05-13.46-19.17-13.73-10.68-25.56-4.72-30.34-8.47-4.19-3.29-3.17-7.31-3.17-7.31" transform="translate(-42.26 -69.18)"/><path class="cls-4" d="M382.53,420.27c-7.69-27.07-33.25-33.42-63.57-20C330.78,423.29,359.26,440.41,382.53,420.27Z" transform="translate(-42.26 -69.18)"/><path class="cls-7" d="M382.53,420.27c-11.47-2.9-38.23-13.45-55.67-17.95" transform="translate(-42.26 -69.18)"/><path class="cls-4" d="M684.55,687.69c2.38,28,26.26,39.17,58.58,31.81C735.92,694.62,711.24,672.37,684.55,687.69Z" transform="translate(-42.26 -69.18)"/><path class="cls-7" d="M684.55,687.69c10.71,5,35,20.51,51.22,28.26" transform="translate(-42.26 -69.18)"/><path class="cls-9" d="M695.53,502.4c-4.1-2.41-9.75-46.5-1.3-48.14,6.58-1.28,8.08,5.59,8.43,8.13.54,4,1.22,13.72,4.15,12.84,5.3-1.59.41-25.92-.4-31.92s-.77-17.89,4.39-22.24,7.76-5.53,8.6,5.06-.11,31.64,5.36,26.08,2.39-22.08,4.12-32.19,8.51-28.79,14.07-23.44c5,4.79-4.4,33.64.89,32.92,4.24-.59,3.77-9.33,7.26-22.39s6.92-25.35,14.94-24c6.44,1.06,2.43,9,.63,16s-3.91,17,0,15.41,9.26-36.95,20-37.54c7.14-.38,3.57,6.8,2,15.14s-1.57,11.38.2,11.14,5.79-11.14,7.85-17.18,7.08-14,12.82-12.33,1.45,11-1,14.12-3.35,7-2.42,7.74,9.57-9,13.87-3.78-4.86,13.6-11.57,14.51-15.73,2.39-15.41,4.81,8.11,1.36,14.23.53,8.74.22,9,1.83c.73,5.39-6.61,11-11.08,11.63s-30,.8-29.5,4.38,10,2.51,15,1.83,16.48-2.25,17.3,3.75-14.28,11.36-23.78,12.06-25,.71-24.58,3.48,12.77,4.84,18.77,4,16.31-5.28,17.32,2.1-7.95,10.14-19.74,11.75c-4.93.67-17.13,2.21-24.3-1-8.17-3.64-12.84-4.12-13.8-2.28-1.89,3.67,5.73,5.91,11.54,6.3s23.92.49,21.76,9.25-16.7,5-22.71,4-26.85-6.09-28-1.57,10.54,4.32,14.18,4.64,11,3.39,8.87,6.08S702.83,506.69,695.53,502.4Z" transform="translate(-42.26 -69.18)"/></g><g id="Gears"><path class="cls-8" d="M586.59,603.92a1.24,1.24,0,0,0,1.24-1.13c.07-.73.11-1.48.11-2.23s0-1.49-.11-2.23a1.24,1.24,0,0,0-1.24-1.13h-1.93a1.25,1.25,0,0,1-1.22-1q-.21-1-.51-1.89a1.27,1.27,0,0,1,.56-1.48l1.67-1a1.26,1.26,0,0,0,.52-1.61,24.26,24.26,0,0,0-2.24-3.86,1.25,1.25,0,0,0-1.64-.35l-1.67,1a1.25,1.25,0,0,1-1.56-.25c-.44-.48-.9-1-1.39-1.39a1.25,1.25,0,0,1-.25-1.55l1-1.67a1.25,1.25,0,0,0-.36-1.65,24.21,24.21,0,0,0-3.86-2.23,1.24,1.24,0,0,0-1.6.51l-1,1.67a1.25,1.25,0,0,1-1.47.56c-.62-.19-1.26-.36-1.9-.5a1.26,1.26,0,0,1-1-1.23v-1.92a1.25,1.25,0,0,0-1.13-1.25c-.73-.07-1.48-.1-2.23-.1s-1.49,0-2.23.1a1.25,1.25,0,0,0-1.13,1.25v1.92a1.26,1.26,0,0,1-1,1.23c-.64.14-1.27.31-1.89.5a1.27,1.27,0,0,1-1.48-.56l-1-1.67a1.25,1.25,0,0,0-1.61-.51,24.66,24.66,0,0,0-3.86,2.23,1.26,1.26,0,0,0-.35,1.65l1,1.67a1.24,1.24,0,0,1-.25,1.55c-.48.44-1,.91-1.39,1.39a1.24,1.24,0,0,1-1.55.25l-1.67-1a1.26,1.26,0,0,0-1.65.35,25,25,0,0,0-2.23,3.86,1.26,1.26,0,0,0,.51,1.61l1.67,1a1.24,1.24,0,0,1,.56,1.48c-.19.62-.36,1.25-.5,1.89a1.26,1.26,0,0,1-1.23,1h-1.92a1.25,1.25,0,0,0-1.25,1.13c-.07.74-.1,1.48-.1,2.23s0,1.5.1,2.23a1.25,1.25,0,0,0,1.25,1.13h1.92a1.26,1.26,0,0,1,1.23,1c.14.64.31,1.28.5,1.9a1.23,1.23,0,0,1-.56,1.47l-1.67,1a1.26,1.26,0,0,0-.51,1.61,25,25,0,0,0,2.23,3.86,1.24,1.24,0,0,0,1.65.35l1.67-1a1.24,1.24,0,0,1,1.55.25c.44.48.91.95,1.39,1.39a1.25,1.25,0,0,1,.25,1.56l-1,1.67a1.25,1.25,0,0,0,.35,1.64,23.89,23.89,0,0,0,3.86,2.23,1.24,1.24,0,0,0,1.61-.51l1-1.67a1.27,1.27,0,0,1,1.48-.56,17.52,17.52,0,0,0,1.89.5,1.27,1.27,0,0,1,1,1.23v1.93a1.24,1.24,0,0,0,1.13,1.24c.74.07,1.48.1,2.23.1s1.5,0,2.23-.1a1.24,1.24,0,0,0,1.13-1.24v-1.93a1.27,1.27,0,0,1,1-1.23,17.69,17.69,0,0,0,1.9-.5,1.25,1.25,0,0,1,1.47.56l1,1.67a1.23,1.23,0,0,0,1.6.51,23.47,23.47,0,0,0,3.86-2.23,1.24,1.24,0,0,0,.36-1.64l-1-1.67a1.26,1.26,0,0,1,.25-1.56c.49-.44,1-.91,1.39-1.39a1.25,1.25,0,0,1,1.56-.25l1.67,1a1.23,1.23,0,0,0,1.64-.35,24.26,24.26,0,0,0,2.24-3.86,1.26,1.26,0,0,0-.52-1.61l-1.67-1a1.26,1.26,0,0,1-.56-1.47c.2-.62.37-1.26.51-1.9a1.25,1.25,0,0,1,1.22-1Zm-23.21,6.18a9.54,9.54,0,1,1,9.54-9.54A9.54,9.54,0,0,1,563.38,610.1Z" transform="translate(-42.26 -69.18)"/><path class="cls-6" d="M563.38,588A12.57,12.57,0,1,0,576,600.56,12.57,12.57,0,0,0,563.38,588Zm0,22.11a9.54,9.54,0,1,1,9.54-9.54A9.54,9.54,0,0,1,563.38,610.1Z" transform="translate(-42.26 -69.18)"/><path class="cls-10" d="M574.14,587.83a1.39,1.39,0,1,1,0,2A1.4,1.4,0,0,1,574.14,587.83Z" transform="translate(-42.26 -69.18)"/><path class="cls-10" d="M550.66,589.8a1.39,1.39,0,1,1,2,0A1.38,1.38,0,0,1,550.66,589.8Z" transform="translate(-42.26 -69.18)"/><path class="cls-10" d="M552.62,613.29a1.39,1.39,0,1,1,0-2A1.39,1.39,0,0,1,552.62,613.29Z" transform="translate(-42.26 -69.18)"/><path class="cls-10" d="M576.11,611.32a1.39,1.39,0,1,1-2,0A1.4,1.4,0,0,1,576.11,611.32Z" transform="translate(-42.26 -69.18)"/><path class="cls-8" d="M482.67,458.12a1.43,1.43,0,0,0-.14,1.92c.52.65,1.08,1.3,1.67,1.92s1.2,1.21,1.83,1.76a1.42,1.42,0,0,0,1.92-.05l1.59-1.51a1.43,1.43,0,0,1,1.8-.14,20,20,0,0,0,1.91,1.17,1.44,1.44,0,0,1,.69,1.66l-.62,2.11a1.42,1.42,0,0,0,.84,1.73,27.86,27.86,0,0,0,4.88,1.44,1.43,1.43,0,0,0,1.63-1l.62-2.11a1.44,1.44,0,0,1,1.49-1,20.87,20.87,0,0,0,2.24.06,1.43,1.43,0,0,1,1.43,1.09l.51,2.14a1.44,1.44,0,0,0,1.59,1.08,28.53,28.53,0,0,0,4.95-1.19,1.44,1.44,0,0,0,.92-1.69l-.52-2.14a1.43,1.43,0,0,1,.78-1.62,21.94,21.94,0,0,0,2-1.07,1.44,1.44,0,0,1,1.79.23l1.51,1.59a1.43,1.43,0,0,0,1.92.14c.66-.52,1.3-1.08,1.92-1.67s1.21-1.2,1.76-1.83a1.42,1.42,0,0,0,0-1.92L524,457.6a1.43,1.43,0,0,1-.13-1.79c.42-.62.81-1.26,1.17-1.91a1.42,1.42,0,0,1,1.66-.69l2.11.62a1.42,1.42,0,0,0,1.73-.84,28.71,28.71,0,0,0,1.43-4.88,1.41,1.41,0,0,0-1-1.63l-2.11-.63a1.43,1.43,0,0,1-1-1.48c0-.75.07-1.49,0-2.24A1.44,1.44,0,0,1,529,440.7l2.14-.52a1.42,1.42,0,0,0,1.08-1.58,27.45,27.45,0,0,0-1.19-5,1.43,1.43,0,0,0-1.68-.92l-2.14.52a1.43,1.43,0,0,1-1.62-.78c-.33-.67-.69-1.32-1.08-2a1.43,1.43,0,0,1,.23-1.78l1.59-1.52a1.42,1.42,0,0,0,.15-1.91c-.53-.66-1.08-1.3-1.67-1.92s-1.21-1.21-1.84-1.77a1.43,1.43,0,0,0-1.92,0l-1.59,1.51a1.43,1.43,0,0,1-1.8.14c-.62-.42-1.26-.81-1.91-1.17a1.43,1.43,0,0,1-.69-1.66l.62-2.11a1.43,1.43,0,0,0-.83-1.73,27.24,27.24,0,0,0-4.88-1.43,1.42,1.42,0,0,0-1.64,1l-.62,2.11a1.44,1.44,0,0,1-1.49,1c-.74-.05-1.49-.07-2.24-.05a1.45,1.45,0,0,1-1.43-1.09L502,416a1.42,1.42,0,0,0-1.59-1.08,27.34,27.34,0,0,0-4.94,1.19,1.42,1.42,0,0,0-.93,1.68l.52,2.14a1.42,1.42,0,0,1-.78,1.62c-.66.33-1.32.68-2,1.08a1.44,1.44,0,0,1-1.79-.23L489,420.85a1.43,1.43,0,0,0-1.92-.15c-.66.53-1.3,1.08-1.92,1.67s-1.21,1.21-1.76,1.84a1.43,1.43,0,0,0,0,1.92l1.52,1.59a1.43,1.43,0,0,1,.14,1.79,21.27,21.27,0,0,0-1.17,1.91,1.43,1.43,0,0,1-1.66.7l-2.11-.62a1.42,1.42,0,0,0-1.73.83,28.12,28.12,0,0,0-1.44,4.88,1.44,1.44,0,0,0,1,1.64l2.11.62a1.43,1.43,0,0,1,1,1.48,21.13,21.13,0,0,0-.06,2.25,1.43,1.43,0,0,1-1.09,1.43l-2.14.51a1.44,1.44,0,0,0-1.08,1.59,28.21,28.21,0,0,0,1.19,4.94,1.42,1.42,0,0,0,1.69.92l2.13-.51a1.45,1.45,0,0,1,1.63.77,22.11,22.11,0,0,0,1.07,2,1.44,1.44,0,0,1-.23,1.79ZM497,434.78a10.88,10.88,0,1,1-.39,15.38A10.87,10.87,0,0,1,497,434.78Z" transform="translate(-42.26 -69.18)"/><path class="cls-6" d="M514.36,453.05a14.33,14.33,0,1,0-20.26-.51A14.33,14.33,0,0,0,514.36,453.05ZM497,434.78a10.88,10.88,0,1,1-.39,15.38A10.87,10.87,0,0,1,497,434.78Z" transform="translate(-42.26 -69.18)"/><path class="cls-11" d="M497.86,425.08a18.79,18.79,0,0,1,19.57,31.19" transform="translate(-42.26 -69.18)"/><path class="cls-11" d="M490.87,455.61a18.79,18.79,0,0,1,.67-26.56" transform="translate(-42.26 -69.18)"/><path class="cls-12" d="M595.9,587.11h0l-58-156h0a35.19,35.19,0,1,0-66.33,23.52h0l.07.18.12.33,58.43,157c.15.43.31.85.48,1.27v0h0a35.19,35.19,0,1,0,65.26-26.35Z" transform="translate(-42.26 -69.18)"/></g><g id="Puzzle_pieces" data-name="Puzzle pieces"><path class="cls-13" d="M561,714l7.34-8.93-3.1-2.54a6.42,6.42,0,1,1,8.15-9.91l3.1,2.55,7.35-8.93,8.92,7.34-2.55,3.1a6.42,6.42,0,1,0,9.91,8.15l2.55-3.1,8.92,7.35-22.83,27.75Z" transform="translate(-42.26 -69.18)"/><path class="cls-13" d="M493.24,258.33l-11.45-6.89-2.39,4a7.42,7.42,0,0,1-12.72-7.65l2.4-4-11.46-6.88-6.88,11.45-4-2.39a7.42,7.42,0,1,0-7.64,12.72l4,2.39-6.88,11.45,11.45,6.89-2.39,4A7.42,7.42,0,0,0,458,291l2.39-4L471.83,294Z" transform="translate(-42.26 -69.18)"/></g><g id="Target"><circle class="cls-14" cx="527.02" cy="528.2" r="66.68" transform="translate(-45.36 -66.08) rotate(-0.34)"/><circle class="cls-10" cx="527.02" cy="528.2" r="54.55" transform="translate(-45.77 -65.66) rotate(-0.38)"/><circle class="cls-14" cx="527.02" cy="528.2" r="42.41" transform="translate(-54.8 -56.37) rotate(-1.38)"/><path class="cls-10" d="M496.74,528.2A30.28,30.28,0,1,1,527,558.47,30.28,30.28,0,0,1,496.74,528.2Z" transform="translate(-42.26 -69.18)"/><path class="cls-14" d="M508.88,528.2A18.14,18.14,0,1,1,527,546.33,18.14,18.14,0,0,1,508.88,528.2Z" transform="translate(-42.26 -69.18)"/></g><g id="Arrows"><line class="cls-15" x1="689.97" y1="193.84" x2="621.46" y2="262.35"/><polyline class="cls-15" points="689.97 209.39 689.97 193.84 674.42 193.84"/><line class="cls-15" x1="639.3" y1="164.18" x2="593.3" y2="210.18"/><polyline class="cls-15" points="639.3 176.8 639.3 164.18 626.68 164.18"/><line class="cls-15" x1="555.97" y1="308.18" x2="528.13" y2="336.01"/><polyline class="cls-15" points="555.97 317.45 555.97 308.18 546.69 308.18"/><line class="cls-15" x1="555.3" y1="196.51" x2="511.97" y2="239.85"/><polyline class="cls-15" points="555.3 205.78 555.3 196.51 546.03 196.51"/><line class="cls-15" x1="659.94" y1="326.21" x2="632.1" y2="354.04"/><polyline class="cls-15" points="659.93 335.48 659.93 326.21 650.66 326.21"/><line class="cls-15" x1="681.24" y1="264.79" x2="659.91" y2="286.12"/><polyline class="cls-15" points="681.24 277.41 681.24 264.79 668.62 264.79"/></g><g id="Right_man" data-name="Right man"><path class="cls-16" d="M604,531.84c0,31.12.11,170.63.11,234.35h11.31c6.35-15.79,48.69-204.3,53-234.35Z" transform="translate(-42.26 -69.18)"/><path class="cls-17" d="M615.46,770.33v-4.14H604.15a27.85,27.85,0,0,1-1.3,7.53C605.79,774.85,610.09,771.93,615.46,770.33Z" transform="translate(-42.26 -69.18)"/><path class="cls-16" d="M615.46,770.33c-5.37,1.6-9.67,4.52-12.61,3.39-1.55,1.13-24.49,9.38-26.82,11s-2,4.17.49,4.17c3.7,0,34.15-1.34,34.15-1.34.61.67,1.11,1.34,1.11,1.34h7C620.82,785.27,620.26,774.47,615.46,770.33Z" transform="translate(-42.26 -69.18)"/><path class="cls-17" d="M698.6,770.33v-4.14H687.3a28.26,28.26,0,0,1-1.3,7.53C688.94,774.85,693.24,771.93,698.6,770.33Z" transform="translate(-42.26 -69.18)"/><path class="cls-16" d="M698.6,770.33c-5.36,1.6-9.66,4.52-12.6,3.39-1.56,1.13-24.49,9.38-26.83,11s-2,4.17.5,4.17c3.69,0,34.15-1.34,34.15-1.34.61.67,1.11,1.34,1.11,1.34h7C704,785.27,703.4,774.47,698.6,770.33Z" transform="translate(-42.26 -69.18)"/><path class="cls-18" d="M687.44,531.84c.64,11.81,11.16,170.63,11.16,234.35H687.3c-6.35-15.79-60-204.3-64.26-234.35Z" transform="translate(-42.26 -69.18)"/><path class="cls-19" d="M620.78,410.35c-9.31,16.32-15.13,58.75-26.7,69.81-7.77,7.43-36,30.79-49.54,35.65a50.19,50.19,0,0,1,2.26,10c8.77-1.36,39.25-14.26,54.38-20.27s27.67-23.86,34.76-39.84S620.78,410.35,620.78,410.35Z" transform="translate(-42.26 -69.18)"/><path class="cls-20" d="M526.05,519.27c-4,1.55-5,3.08-4.06,4.4s6.32-1.06,5.75-.81c-.34,1.27-1.9,15.82-1.9,15.82,4.21-.62,6.11-1.73,11.87-4.66,6.73-3.41,5.19-5.44,9.09-8.26a25.28,25.28,0,0,0-2.26-10C538.44,519.77,532.64,516.69,526.05,519.27Z" transform="translate(-42.26 -69.18)"/><path class="cls-21" d="M547,528.13s-3.06-13.13-3.39-14c2.5-1.43,8.16-4.77,8.27-5,.94,2.44,5.47,16.74,5.28,17.14C555.78,526.73,547,528.13,547,528.13Z" transform="translate(-42.26 -69.18)"/><path class="cls-22" d="M687.44,531.84H604c2.17-30.15,4.39-103.51,16.74-121.49,15.36-22.37,28-19.87,44.05-3.83C686.46,428.15,690.76,506.7,687.44,531.84Z" transform="translate(-42.26 -69.18)"/><path class="cls-23" d="M635.28,400c-4.45,6.76-8.46,19.73-12.24,54.09-1.83,16.6-1.82,30.9-1.82,77.71" transform="translate(-42.26 -69.18)"/><path class="cls-24" d="M652.57,375.28c-.5,4-.69,19.35,2.73,23.74-2.46,1.87-15.45,4.5-25.17.61,2.08-2.58,5.39-4.31,2.73-8.88-2.9-5-7.81,1.72-11.7-6.44-4.54-9.5-5.91-28.25-1.41-33.47,5-5.85,15.07-13,28.64-5C659.47,352.31,653.57,367.1,652.57,375.28Z" transform="translate(-42.26 -69.18)"/><path class="cls-16" d="M642.35,366.08c-3.08.05-1.51-8-3.77-10-2.67-2.27-11.62-3.59-20.29-2.63s-14.08-10.35-8.54-15.05,10.59,1.77,14.73.39c4.81-1.61,4-7.48,11.12-6.87,6.61.57,3.61,6.72,7.81,7.81s10.69-4.62,16,2.17c3.93,5-2,8-1.34,13.58.39,3.5,9.1,13.82-.29,18.2s-7.23-5.22-6.73-9.19-1.31-6.58-3.29-6.66S646.75,366,642.35,366.08Z" transform="translate(-42.26 -69.18)"/><path class="cls-19" d="M654.06,395.32c-2.3,1.16-16.68,3.68-21.62.8a14,14,0,0,0-2.31,3.51c3.45,2.06,16.37,4.25,25.4-.39C655,397.67,654.06,395.32,654.06,395.32Z" transform="translate(-42.26 -69.18)"/><path class="cls-25" d="M664.42,405.89c15.36,12.46,22.35,32.25,33.48,59.39,6.63,16.17.33,70.16-2.53,83.9-4.12-1.66-13.71-3-13.71-3,3.18-7.91.43-63.37-5-71.27a239.82,239.82,0,0,0-18.82-24.53c-11.67-13.31-14.11-22.84-12-30.78S658,400.69,664.42,405.89Z" transform="translate(-42.26 -69.18)"/><path class="cls-21" d="M696.21,551.57s-14.88-3.81-15.89-3.91c0-3,.51-7.41.47-10,2.85.31,18.08,2.69,18.38,3.07C698.94,542.23,696.21,551.57,696.21,551.57Z" transform="translate(-42.26 -69.18)"/></g><g id="Briefcase"><path class="cls-16" d="M719.93,642.13a4.58,4.58,0,0,1-5.35,3.62L627,628.91a4.59,4.59,0,0,1-3.62-5.35l10.45-54.37a4.58,4.58,0,0,1,5.34-3.62l87.63,16.84a4.59,4.59,0,0,1,3.63,5.35Z" transform="translate(-42.26 -69.18)"/><path class="cls-22" d="M693,603.55l22.13-15.71-26.62,12.4Z" transform="translate(-42.26 -69.18)"/><path class="cls-26" d="M700.75,602.68l14.36-14.84-18.25,13Z" transform="translate(-42.26 -69.18)"/><polygon class="cls-18" points="596.86 496.39 634.59 536.48 684.49 513.23 596.86 496.39"/><rect class="cls-22" x="673.42" y="599.89" width="7.61" height="7.61" transform="translate(-85.68 1085.66) rotate(-79.12)"/><polygon class="cls-26" points="630.83 535.88 636.72 537.01 639.42 531.5 637.99 538.97 630.51 537.53 630.83 535.88"/><path class="cls-26" d="M698.31,564.06l-26-5a1.75,1.75,0,0,0-1.28.26,1.69,1.69,0,0,0-.72,1.1l-2.07,10.74,3.36.65,1.75-9.06L696,567.1l-1.74,9.06,3.36.65,2.07-10.74A1.72,1.72,0,0,0,698.31,564.06Z" transform="translate(-42.26 -69.18)"/><path class="cls-27" d="M694.28,551.08c-1.53,5.84.2,12-3,15.21-1.82,1.82-17.07,2.05-14.26-2.83,2.2-.63.79-3.34.79-3.34l-1.93-.37c-1.69-2.3,2.79-5.75,6.29-6.47.57-1.39,1.43-4.87,1.43-4.87Z" transform="translate(-42.26 -69.18)"/></g><g id="Left_man" data-name="Left man"><path class="cls-28" d="M463.25,643.76c3.27,10.75,9.42,23.48,8.61,40.57s-12,101-12.25,105.86l-8.55-.4c.27-5.7-6.79-75.37,1.61-102.1a266.09,266.09,0,0,0-18.22-38.81Z" transform="translate(-42.26 -69.18)"/><path class="cls-16" d="M455.21,801.27a3.63,3.63,0,0,0-3.22,2.79l-2.34-.11A12.77,12.77,0,0,1,449,795c.91-3.11,1.68-2.32,2.46-1.46,1.79,1.6,9.37,2.45,10.08-.07,2,.38,21.87,7.14,21.78,9-.14,3-2.52,2.91-4.13,2.83C460.07,804.44,462.66,803.39,455.21,801.27Z" transform="translate(-42.26 -69.18)"/><path class="cls-27" d="M459.61,790.19c-.52-2.9-8.74-5.46-8.55-.4a6.87,6.87,0,0,1-.58,3.19h0c1.79,1.6,18.93,7.79,22,4.2C470.5,796,459.46,793.24,459.61,790.19Z" transform="translate(-42.26 -69.18)"/><path class="cls-28" d="M400,665.75h0l-4.27-20.66,33.65-.47s-6.6,23-9.55,29.76a12.59,12.59,0,0,1-2.85,4.09c-12.31,11.88-75.15,62.94-78.67,66.34l-5.94-6.16C336.44,734.73,378.78,680.31,400,665.75Z" transform="translate(-42.26 -69.18)"/><path class="cls-16" d="M327.53,749.84a3.64,3.64,0,0,0-4.26-.18L321.65,748a12.78,12.78,0,0,1,5.63-7c2.8-1.63,2.81-.53,2.79.63.21,2.39,5.13,8.21,7.39,6.87,1.15,1.61,11,20.19,9.66,21.49-2.18,2.11-3.82.39-4.95-.78C328.89,755.48,331.5,756.49,327.53,749.84Z" transform="translate(-42.26 -69.18)"/><path class="cls-27" d="M338.33,744.8c1.62-2.48-2.62-10-5.94-6.16a6.78,6.78,0,0,1-2.62,1.92h0c.2,2.4,8.42,18.66,13.11,18.13C342.26,756.5,336.13,746.92,338.33,744.8Z" transform="translate(-42.26 -69.18)"/><path class="cls-16" d="M384,532.13c5.7,0,59.66-.57,59.66-.57,8.94,6.41,35.61,127.73,37.34,160.9-22.68,9.75-46,13.25-67.34,9.5-19.22-3.38-28.42-9.63-43-18.11C384,666.21,388,653.93,392,637,397,615.38,367,576.21,384,532.13Z" transform="translate(-42.26 -69.18)"/><path class="cls-27" d="M513.55,533.77c4,1.44,9.91,7.06,14.16,7.06s16.56-6.19,17.12-6.75,2.19-3.19-2.12-5.37-14.51-6-15.69-6-6-.14-8.76-1.93C517,522.69,513.55,533.77,513.55,533.77Z" transform="translate(-42.26 -69.18)"/><path class="cls-16" d="M381.71,523c-5.06-5.92-13.9-21-13.9-24.9,1.58-4.73,8.81-14.37,13.29-26.85,7-19.37,6.74-51.42,6.74-51.42C374.12,426.86,359.13,458.13,350,496c-2.07,8.53,13.4,23.69,31.75,44C382,535.39,381.71,528.21,381.71,523Z" transform="translate(-42.26 -69.18)"/><path class="cls-18" d="M442.46,500.71c-2.75-20.25,13.25-21.75,8.87-51.92-2.18-15-7.12-30.07-20.81-35.21-11.88-4.46-30-1.09-30-1.09-16,5.69-21.44,11.1-23.81,42.41-.89,11.83,8.78,36.76-.55,101.09,4.16.7,11.13,2.13,17.89,2.13l4.5-13.5,4.92,13.8c19.17,1.59,38.44.41,51.51-5C450,536.12,445.21,521,442.46,500.71Z" transform="translate(-42.26 -69.18)"/><path class="cls-16" d="M448.21,433c-4.06-9.84-12.4-20.49-18.9-16-10,6.85-.19,25.35,5.15,39,3.88,10,16.91,37.16,25.45,45.7,8.3,8.3,53.25,32.42,53.25,32.42,2-1.33,6.27-9,4.87-14.37-7.84-4.23-46-30.59-48.44-35.89C463.84,471.09,456.43,452.88,448.21,433Z" transform="translate(-42.26 -69.18)"/><path class="cls-20" d="M521.8,522.12c-1,1.59-1.93,6.79.32,6.34s4.9-5.77,4.9-5.77Z" transform="translate(-42.26 -69.18)"/><path class="cls-20" d="M515.16,534.37c-1.08,1.07,2.17,4.84,4.26,5.55s9.41.72,8.66-.4-5.44-3.44-7.31-3.44S515.16,534.37,515.16,534.37Z" transform="translate(-42.26 -69.18)"/><path class="cls-29" d="M398.74,413.14c3.55-3.8,3.1-9.21,2.17-14.56s-12.64-37.41,12-43.23c16.35-3.87,20.2,11,20.63,17.13.5,7.12-.26,30.42-11,30.42-1.65,2.84.06,7,1.77,9.08C413.21,416.21,398.74,413.14,398.74,413.14Z" transform="translate(-42.26 -69.18)"/><path class="cls-16" d="M376.62,397c0-21.86,5.94-42.65,20.56-50.73,18.94-10.46,34.24,4.24,34.83,19.16-6,0-3,10.39-6.42,12.42-1.16.69.66-9.15-3.88-4.6-3.07,3.06,3,13.16,3.91,24.75,1.95,24.63-1.14,60.86-15,69-5.78,3.39-37.6,10.22-53.33-13.84C371.29,454.29,376.62,420.29,376.62,397Z" transform="translate(-42.26 -69.18)"/></g><g id="Coins"><path class="cls-30" d="M803.42,378.16l-5.86,3.74a15,15,0,0,1-7.67,2.31c-11.31.4-23.37-10.18-26.86-23.57-2.6-9.94.24-18.68,6.51-22.69l5.86-3.74c-6.27,4-9.11,12.75-6.51,22.69,3.49,13.39,15.55,24,26.86,23.57A15.22,15.22,0,0,0,803.42,378.16Z" transform="translate(-42.26 -69.18)"/><path class="cls-31" d="M783.07,331.9c11.32-.4,23.37,10.18,26.87,23.57s-2.88,24.6-14.19,25-23.37-10.18-26.86-23.57S771.76,332.29,783.07,331.9Z" transform="translate(-42.26 -69.18)"/><path class="cls-32" d="M787,337l.85,3.24c3.44.82,6.7,4.14,7.76,8.2l-3.48.12c-.65-2.5-2.9-4.47-5-4.4s-3.3,2.17-2.64,4.67a6.43,6.43,0,0,0,2,3.16,4.47,4.47,0,0,0,3,1.23c4-.14,8.33,3.63,9.57,8.4,1.06,4.05-.43,7.54-3.38,8.57l.78,3-3.48.12-.78-3c-3.42-.8-6.69-4.13-7.75-8.18L788,362c.65,2.49,2.9,4.46,5,4.39s3.31-2.17,2.66-4.66-2.91-4.48-5-4.4a8.59,8.59,0,0,1-5.83-2.35,12.2,12.2,0,0,1-3.73-6c-1.06-4.06.43-7.54,3.37-8.58l-.85-3.25Z" transform="translate(-42.26 -69.18)"/><path class="cls-33" d="M800.09,339.13c-5-4.63-11.1-7.44-17-7.23-11.31.39-17.68,11.61-14.18,25a34.1,34.1,0,0,0,6.45,12.68Z" transform="translate(-42.26 -69.18)"/><path class="cls-30" d="M281.8,513.92l3.43,6.08c2.88,5.11,1.46,12.41-4.42,18.93-8.28,9.18-22.3,13.38-31.26,9.39a11.88,11.88,0,0,1-5.66-5l-3.43-6.08a11.93,11.93,0,0,0,5.66,5c9,4,23-.21,31.26-9.39C283.26,526.33,284.68,519,281.8,513.92Z" transform="translate(-42.26 -69.18)"/><path class="cls-31" d="M276.14,509c9,4,9.52,14.71,1.24,23.89s-22.29,13.39-31.26,9.39-9.52-14.7-1.24-23.88S267.18,505,276.14,509Z" transform="translate(-42.26 -69.18)"/><path class="cls-32" d="M272.74,513.12l-2,2.25c2,1.76,1.81,5-.67,7.75l-2.78-1.22c1.53-1.72,1.39-3.73-.3-4.48s-4.31.06-5.83,1.79a3.65,3.65,0,0,0-1.06,2.61,2.12,2.12,0,0,0,1.35,1.87c3.23,1.42,3.48,5.25.57,8.54a11.4,11.4,0,0,1-9.59,3.85l-1.83,2.07-2.78-1.22,1.83-2.08c-2-1.76-1.8-4.94.69-7.75l2.77,1.22c-1.53,1.73-1.4,3.74.29,4.48s4.31-.06,5.84-1.79,1.39-3.73-.3-4.48a4.07,4.07,0,0,1-2.58-3.57,7,7,0,0,1,2-5c2.48-2.81,6.45-4.33,9.57-3.84l2-2.25Z" transform="translate(-42.26 -69.18)"/><path class="cls-33" d="M281.51,513.49a11.83,11.83,0,0,0-5.37-4.53c-9-4-23,.23-31.26,9.4a22,22,0,0,0-5.63,10.71Z" transform="translate(-42.26 -69.18)"/></g><g id="Secondary_shapes" data-name="Secondary shapes"><path class="cls-31" d="M267.45,822.33l7.11,17.7a2.68,2.68,0,0,0,4.6.66l11.78-15a2.68,2.68,0,0,0-1.74-4.31l-18.89-2.69A2.68,2.68,0,0,0,267.45,822.33Z" transform="translate(-42.26 -69.18)"/></g></g></svg>