<svg id="Layer_1" data-name="Layer 1" xmlns="http://www.w3.org/2000/svg" viewBox="0 0 1407.64 497.79"><defs><style>.cls-1{fill:#fff;}</style></defs><path class="cls-1" d="M255.47,503.24c1.82-4.55,3.21-9.32,5.54-13.59,9.56-17.51,24.33-27.07,44.45-27.35q29.48-.42,59,.08c5.14.09,7.94-1.69,10.67-5.82Q425.84,380,476.82,303.63c5.63-8.49,13.05-12.7,23.2-11.26,8.56,1.2,14.27,6.24,17.14,14.29s.58,15.25-4.07,22.18q-41.93,62.61-83.63,125.38c-1.43,2.14-2.75,4.35-4.64,7.36H681.56c-1.51-2.46-2.84-4.8-4.32-7-27.73-41.63-55.61-83.16-83-125a36.13,36.13,0,0,1-5.79-17.32c-.41-9,6.36-16.8,14.78-19.18,9.05-2.55,17.15-.66,23.5,6.64a62,62,0,0,1,4.57,6.38q49.9,74.84,99.69,149.77c3.08,4.65,6.22,6.64,11.94,6.52,19.12-.39,38.26-.23,57.39-.13,33.42.18,57.2,30,49.2,62.52Q824.09,628,797.87,731.09a77.47,77.47,0,0,1-75.51,58.58q-169,.24-338.06,0c-36.63,0-66.72-23.63-76-60C291,661.52,274.1,593.18,257,524.91a46.27,46.27,0,0,0-1.54-4.37Zm298,3H359.3c-17,0-34.06-.08-51.09,0-7.36.05-9.71,2.91-8,9.75q25.38,101.63,51,203.2c4.36,17.17,17.13,26.41,35.28,26.42q166.63.06,333.28,0c19.13,0,31.46-9.64,36.17-28.35q25-99.3,49.8-198.63c2.61-10.42.91-12.42-10.14-12.43Z" transform="translate(-255.47 -291.99)"/><path class="cls-1" d="M1075.24,485.33c21.86-19.58,52.09-18.52,67.7,4.74,8.54-10.75,19.32-17.58,33.22-18.24,22.65-1.08,40.92,12.34,42.85,34.84,2.23,26,1.49,52.3,1.52,78.48,0,2.12-3.88,5.86-6.21,6.07-8.31.76-16.74.3-25.12.32-6.14,0-6.28-4.31-6.28-8.7,0-19.39.09-38.78-.09-58.17a42.64,42.64,0,0,0-1.75-12.33c-2.25-7.09-7.88-10.34-15.07-10.32-7.49,0-13.27,3.38-15.5,10.87a42.23,42.23,0,0,0-1.55,11.59c-.15,19.13-.35,38.26.07,57.38.17,7.72-2.72,10.37-10.13,9.8-5.73-.45-11.52-.07-17.29-.1-9.53,0-10.42-.87-10.45-10.23,0-19.13.07-38.25-.08-57.38a36.89,36.89,0,0,0-1.49-10.78A15.67,15.67,0,0,0,1093.46,502c-7.6.38-13.68,4.92-15.21,12.46a86.29,86.29,0,0,0-1.29,16.4c-.15,17.29-.22,34.59,0,51.88.08,6.29-2,9.22-8.62,8.94-7.59-.33-15.2-.11-22.8-.08-4.52,0-6.76-2.15-6.76-6.7q0-51.87,0-103.75c0-5,2.49-7.19,7.22-7.24,5.76-.06,11.53-.05,17.29,0C1073.87,473.86,1074.39,474.35,1075.24,485.33Z" transform="translate(-255.47 -291.99)"/><path class="cls-1" d="M950.67,758.88c1.44,10.88-4,12.7-12,12.06a124.3,124.3,0,0,0-16.49,0c-6.07.33-8.64-2.27-8.51-8.27.17-8.12,0-16.23,0-24.35q0-58.5,0-117c0-10.59.56-11.08,11.06-11.11,5.76,0,11.52,0,17.28,0,9.83,0,10.39.55,10.42,10.1,0,13.85,0,27.69,0,42.41a37.25,37.25,0,0,0,4.47-2.3c28.88-20.58,65.7-7.71,74.38,26.53,4.63,18.26,4.74,36.94-1.33,55-10.69,31.77-48.94,42.22-74.8,20.78C954,761.74,952.88,760.75,950.67,758.88Zm1.07-47.21c.76,5.58,1,11.65,2.52,17.41,2.38,9.19,9.28,13.68,19.36,13.67s16.86-3.85,18.26-13.53a122.6,122.6,0,0,0,.26-33.25c-1.36-10.28-8.42-14.68-18.29-14.74s-17.41,5.2-19.9,14.5C952.62,700.71,952.48,706,951.74,711.67Z" transform="translate(-255.47 -291.99)"/><path class="cls-1" d="M1353.32,691.21c10.58-11.64,19.56-22.15,29.32-31.87a22.86,22.86,0,0,1,12.65-6c8-.94,16.23-.54,24.33-.09,2.45.14,5.66,1.76,6.87,3.72.76,1.22-1.06,4.84-2.63,6.56-12.83,14.1-25.87,28-39.24,42.41l42.18,51.23a49.16,49.16,0,0,1,4.41,5.52c2.8,4.64,1.37,7.84-4,8-10.47.31-21,.53-31.42-.17-3.06-.2-6.54-3-8.75-5.6-10.93-12.68-21.5-25.68-34-38.45,0,7.83,0,15.66,0,23.49-.09,23.67,2.4,20.7-21.09,20.85-18.55.12-16.48.91-16.49-16.5q0-66.42,0-132.84c0-11.14.2-11.31,11.62-11.33,5.24,0,10.48,0,15.72,0,9.15,0,10.23,1.12,10.24,10.59,0,21,0,41.92,0,62.88C1353,685.46,1353.14,687.27,1353.32,691.21Z" transform="translate(-255.47 -291.99)"/><path class="cls-1" d="M1126,759.42c-15,14.46-32.67,17-51.65,11-21.72-6.88-31.78-30.22-21.15-48.13,5.68-9.56,15-14.75,25.17-17.57,12.29-3.42,25-5.18,37.53-7.9,3.53-.77,9.28,1.63,9.32-5.27,0-6.34-1.35-12.07-8.08-14.74-7.78-3.09-17-.29-22.91,5.69a18.73,18.73,0,0,1-10.31,5c-6.44.79-13.07,0-19.6.28-6.94.29-9.23-4.07-6.39-8.79,4.19-6.94,9.16-14.7,15.85-18.58,23.12-13.42,47.6-13.24,71.24-1.21,13.15,6.7,19,19.35,19.29,33.83.47,23.29.09,46.6.22,69.9,0,5.66-2.34,8.16-8,8-5.49-.18-11,0-16.49,0C1127.93,770.86,1127.93,770.86,1126,759.42Zm-1.43-42.11c-9.87,2.32-19.79,4.19-29.4,7.08-5.48,1.65-9.86,5.79-8.76,12.3,1.15,6.9,6.48,9.77,13,10.45C1116.76,749,1127.59,736.79,1124.6,717.31Z" transform="translate(-255.47 -291.99)"/><path class="cls-1" d="M1315.6,580c-13.16,13.14-28.95,16.11-46.31,12.72-21.74-4.25-35-23.81-29.38-43.1,2.85-9.83,9.55-16.93,18.61-19.9,15.28-5,31.17-8.14,46.78-12.15,3.59-.93,9.52,1.53,9.55-5.14,0-6.11-1.16-12.16-8-14.88-7.66-3.07-17.05-.29-23,5.59a18.91,18.91,0,0,1-10.36,5c-6.71.79-13.59.16-20.39.23-6.32.07-8.78-3.82-5.78-8.47,4.54-7,9.49-15.14,16.38-19.11,22.61-13,46.63-12.8,69.9-1.45,13.95,6.81,19.91,19.81,20.19,34.89.43,23,.06,46.08.19,69.12,0,6.08-2.61,8.53-8.6,8.22-5.22-.27-10.47,0-15.7,0C1317.74,591.56,1317.74,591.56,1315.6,580Zm-1-42.19c-10.44,2.49-20.37,4.43-30,7.31-5.56,1.65-9.51,5.8-8.48,12.35s6,9.44,12.09,10.28C1305.57,570.15,1316.72,558.25,1314.6,537.82Z" transform="translate(-255.47 -291.99)"/><path class="cls-1" d="M1478.27,722.31c-1.28,11,2.49,19.78,9.74,23.59,7.57,4,15.3,1.91,23.48-5.06a21,21,0,0,1,11-4.38c7-.68,14.12-.25,21.19-.18,9.16.09,11.92,4.23,6.25,11.54-5.31,6.83-11.84,13.73-19.37,17.65-20.58,10.74-42.32,10.66-63.69,1.78-10.15-4.22-18.47-11.4-22.64-21.82-9.68-24.24-10.86-48.63,3.55-71.45,12.43-19.69,39.65-27.65,66.78-21.07,21.63,5.24,37,23,40,46.2s3,23.2-20,23.2Zm36.86-22.72c.09-16.2-7.27-24.5-20.26-23.74-11.22.66-18.12,10.31-16.7,23.74Z" transform="translate(-255.47 -291.99)"/><path class="cls-1" d="M927.05,558.28c7.23-1.08,15.35.57,22.83,6.84,6.18,5.17,14.13,5.81,21.54,2.46,2.63-1.19,5.74-4.63,5.86-7.18.15-3-1.94-7.45-4.44-8.89-4.86-2.81-10.64-4.11-16.13-5.76-8.5-2.56-17.3-4.29-25.55-7.47-12.43-4.79-20.3-13.85-21.06-27.68-.73-13.36,5.63-23.44,16.74-30,20.7-12.11,42.57-12.17,64-2.68,7.32,3.24,13.58,9.47,19.38,15.26,2.28,2.28,3.27,7.48,2.38,10.66-.49,1.73-6.1,2.64-9.46,2.84-11.23.68-22.6,1.44-31.6-7.64-1.17-1.19-3.26-1.65-5-2.06-9-2.1-16.22.65-18,6.72s1.79,10.46,12.15,13.19c9.86,2.59,20,4.07,29.78,7,18.41,5.46,28,17.35,27.84,33.48-.13,15.33-8.76,25.33-22,30.47-22.53,8.75-45.79,9.44-68-.85-7.35-3.41-13.84-10.23-18.72-17-5.2-7.18-2-11.66,6.81-11.77C919.32,558.25,922.21,558.28,927.05,558.28Z" transform="translate(-255.47 -291.99)"/><path class="cls-1" d="M1204.22,737.58c7.3-1.57,14.56,1.77,22.29,6.61,5.15,3.23,12.8,3.52,19.23,3.18,3-.16,7.84-4.91,7.93-7.7.1-3.37-3.21-8.46-6.38-10-6.51-3.06-14-4.1-21-6.19-6.74-2-13.69-3.68-20-6.61-24.32-11.22-26.82-39.93-5.1-55.7,21.27-15.45,60.52-13.3,80,4.41,1.73,1.58,3.76,3.21,4.64,5.26,1.7,3.9,2.67,8.13,3.94,12.22-3.8,1-7.55,2.69-11.39,2.91-10.69.62-21.08.79-30.28-7.17-3.29-2.84-10-3-14.85-2.25-3.22.52-7.68,4.63-8.13,7.65-.42,2.86,3,8,5.9,9.29,7.12,3,15,4.18,22.5,6.44,8.21,2.48,16.91,4.24,24.34,8.28,23,12.49,23.4,44,.14,56-25.64,13.25-52.49,13.25-78.19-.61-5.82-3.13-10.58-9.29-14.23-15.06-4.33-6.85-1.47-10.77,6.61-11C1195.61,737.51,1199,737.58,1204.22,737.58Z" transform="translate(-255.47 -291.99)"/><path class="cls-1" d="M1590,682.78c-5.57,0-10,0-14.41,0-1.83,0-4.25.46-5.37-.49-7.59-6.39-2.73-15.08-3.61-22.71-.59-5.13,3.47-6.42,7.86-6.43H1590c0-11.89.21-22.85-.08-33.79-.18-6.66,2.24-9.65,9.16-9.25s13.61.27,20.41,0c5.76-.21,8,2.37,8,8-.14,11.21,0,22.43,0,35,8.58,0,16.56.22,24.52-.06,6.94-.25,9.87,2.32,9.74,9.62-.42,22.82,2.09,20-20.27,20.1-4.17,0-8.34,0-12.73,0-.47,1.55-1.14,2.74-1.15,3.94-.09,12.56-.35,25.13,0,37.69.33,11.66,4.49,15.39,15.93,15.52a13.69,13.69,0,0,1,1.57,0c5.78.82,15.84.35,16.56,2.72,2.33,7.67,1.47,16.39,1.21,24.68,0,1.2-3.5,3.32-5.33,3.29-12.52-.26-25.22.19-37.5-1.82-17-2.78-27.82-15.22-29.13-32.39-1.08-14-.62-28.23-.83-42.35C1589.9,690.71,1590,687.35,1590,682.78Z" transform="translate(-255.47 -291.99)"/><path class="cls-1" d="M1417.72,510.92c0,23.57-.22,47.15.13,70.72.11,7.53-2.5,10.51-10,10-6.78-.44-13.62-.27-20.42,0-5.27.17-7.71-1.87-7.7-7.29q.09-73.08,0-146.15c0-5.44,2.72-7.41,7.84-7.32,7.34.13,14.68.21,22,0,6.16-.19,8.29,2.65,8.25,8.58C1417.62,463.25,1417.72,487.09,1417.72,510.92Z" transform="translate(-255.47 -291.99)"/><path class="cls-1" d="M1482.31,511.07c0,23.83-.18,47.66.12,71.48.08,6.87-2.35,9.48-9.15,9.1-7-.39-14.14-.18-21.21-.06-5.21.09-7.65-2.13-7.64-7.49q.09-72.66,0-145.32c0-5.63,2.33-8.12,8-7.94,7.07.22,14.15.29,21.21,0,6.41-.27,8.82,2.28,8.75,8.77C1482.16,463.41,1482.31,487.24,1482.31,511.07Z" transform="translate(-255.47 -291.99)"/></svg>