<svg width="50" height="50" viewBox="0 0 50 50" fill="none" xmlns="http://www.w3.org/2000/svg">
<circle cx="25" cy="25" r="24.5" stroke="black"/>
<path d="M26.152 33.24C25.144 33.24 24.264 33.12 23.512 32.88C22.76 32.624 22.128 32.288 21.616 31.872C21.104 31.456 20.712 31 20.44 30.504C20.184 30.008 20.048 29.496 20.032 28.968C20.032 28.824 20.08 28.712 20.176 28.632C20.272 28.552 20.392 28.512 20.536 28.512H21.712C21.856 28.512 21.984 28.544 22.096 28.608C22.208 28.672 22.304 28.808 22.384 29.016C22.544 29.592 22.816 30.04 23.2 30.36C23.6 30.68 24.056 30.904 24.568 31.032C25.096 31.144 25.624 31.2 26.152 31.2C27.256 31.2 28.152 30.936 28.84 30.408C29.528 29.88 29.872 29.104 29.872 28.08C29.872 27.04 29.56 26.296 28.936 25.848C28.312 25.4 27.448 25.176 26.344 25.176H24.064C23.904 25.176 23.768 25.128 23.656 25.032C23.56 24.936 23.512 24.8 23.512 24.624V23.976C23.512 23.832 23.536 23.712 23.584 23.616C23.648 23.504 23.712 23.408 23.776 23.328L28.432 18.24H21.352C21.192 18.24 21.056 18.192 20.944 18.096C20.848 18 20.8 17.864 20.8 17.688V16.776C20.8 16.6 20.848 16.464 20.944 16.368C21.056 16.256 21.192 16.2 21.352 16.2H30.928C31.104 16.2 31.24 16.256 31.336 16.368C31.448 16.464 31.504 16.6 31.504 16.776V17.64C31.504 17.752 31.472 17.856 31.408 17.952C31.36 18.032 31.304 18.112 31.24 18.192L26.608 23.352L26.992 23.376C28.048 23.408 28.968 23.6 29.752 23.952C30.552 24.304 31.168 24.832 31.6 25.536C32.048 26.224 32.272 27.096 32.272 28.152C32.272 29.224 32.008 30.144 31.48 30.912C30.952 31.664 30.224 32.24 29.296 32.64C28.368 33.04 27.32 33.24 26.152 33.24Z" fill="black"/>
</svg>
