<svg width="50" height="50" viewBox="0 0 50 50" fill="none" xmlns="http://www.w3.org/2000/svg">
<circle cx="25" cy="25" r="24.5" stroke="black"/>
<path d="M20.728 33C20.568 33 20.432 32.952 20.32 32.856C20.224 32.744 20.176 32.608 20.176 32.448V31.68C20.176 31.536 20.216 31.376 20.296 31.2C20.376 31.024 20.536 30.832 20.776 30.624L25.864 25.536C26.68 24.848 27.32 24.264 27.784 23.784C28.264 23.288 28.6 22.816 28.792 22.368C29 21.92 29.104 21.456 29.104 20.976C29.104 20.064 28.848 19.344 28.336 18.816C27.824 18.272 27.064 18 26.056 18C25.416 18 24.864 18.136 24.4 18.408C23.936 18.664 23.568 19.024 23.296 19.488C23.04 19.936 22.872 20.448 22.792 21.024C22.76 21.232 22.672 21.376 22.528 21.456C22.4 21.536 22.28 21.576 22.168 21.576H20.92C20.776 21.576 20.656 21.536 20.56 21.456C20.464 21.36 20.416 21.248 20.416 21.12C20.432 20.512 20.56 19.904 20.8 19.296C21.04 18.672 21.392 18.112 21.856 17.616C22.336 17.12 22.92 16.72 23.608 16.416C24.312 16.096 25.128 15.936 26.056 15.936C27.32 15.936 28.352 16.168 29.152 16.632C29.968 17.08 30.568 17.68 30.952 18.432C31.336 19.184 31.528 20.008 31.528 20.904C31.528 21.608 31.408 22.256 31.168 22.848C30.928 23.424 30.576 23.992 30.112 24.552C29.664 25.096 29.104 25.656 28.432 26.232L23.824 30.912H31.312C31.488 30.912 31.624 30.96 31.72 31.056C31.832 31.152 31.888 31.288 31.888 31.464V32.448C31.888 32.608 31.832 32.744 31.72 32.856C31.624 32.952 31.488 33 31.312 33H20.728Z" fill="black"/>
</svg>
