<svg width="50" height="50" viewBox="0 0 50 50" fill="none" xmlns="http://www.w3.org/2000/svg">
<circle cx="25" cy="25" r="24.5" stroke="black"/>
<path d="M25.624 33C25.464 33 25.328 32.952 25.216 32.856C25.12 32.744 25.072 32.608 25.072 32.448V19.008L21.088 22.08C20.96 22.176 20.824 22.216 20.68 22.2C20.536 22.184 20.416 22.112 20.32 21.984L19.696 21.192C19.6 21.048 19.56 20.904 19.576 20.76C19.608 20.616 19.688 20.496 19.816 20.4L25.048 16.368C25.16 16.288 25.264 16.24 25.36 16.224C25.456 16.208 25.56 16.2 25.672 16.2H26.896C27.056 16.2 27.184 16.256 27.28 16.368C27.376 16.464 27.424 16.592 27.424 16.752V32.448C27.424 32.608 27.376 32.744 27.28 32.856C27.184 32.952 27.056 33 26.896 33H25.624Z" fill="black"/>
</svg>
